<svg width="128" height="128" viewBox="0 0 128 128" fill="none" xmlns="http://www.w3.org/2000/svg">
<g clip-path="url(#clip0_25_8)">
<path d="M52.4715 28.46C38.7845 31.286 25.2073 37.5583 14.9315 47.138C6.03025 55.4368 0.98625 67.918 0.59625 79.9888C0.0987504 95.381 7.0775 111.416 20.2295 119.892C29.2922 125.733 40.3905 127.475 51.1637 127.915C60.3853 128.292 70.2755 127.599 77.6537 122.055C84.283 117.073 86.4988 109.999 87.1018 102.01C87.327 99.0253 87.4615 96.0008 88.32 93.134C90.3112 86.4845 96.0748 83.8405 101.348 80.2428C106.762 76.5483 111.892 72.0428 114.604 65.9373C122.169 48.907 106.795 34.77 91.7913 29.904C79.3223 25.8603 65.224 25.827 52.4715 28.46Z" fill="#9BEFE6"/>
<path d="M100.701 108.374C100.682 108.374 100.663 108.372 100.644 108.368C100.495 108.337 100.4 108.191 100.431 108.042C101.016 105.252 102.449 98.7148 103.136 98.2725C103.292 98.1718 103.469 98.1525 103.646 98.2128C104.343 98.4513 104.956 100.101 105.073 100.429C105.123 100.573 105.048 100.73 104.905 100.781C104.76 100.831 104.603 100.757 104.552 100.613C104.261 99.788 103.763 98.8355 103.467 98.7343C103.053 99.1118 101.878 103.822 100.971 108.154C100.944 108.285 100.829 108.374 100.701 108.374Z" fill="#AE312F"/>
<path d="M80.852 117.459C80.823 117.459 80.7927 117.454 80.7637 117.445C80.6195 117.396 80.542 117.239 80.591 117.095C81.453 114.547 84.3275 106.191 85.1283 105.666C85.3248 105.537 85.5497 105.501 85.7807 105.565C86.5387 105.775 87.1768 107.059 87.2468 107.205C87.313 107.341 87.2555 107.506 87.1185 107.572C86.9818 107.64 86.8165 107.581 86.7503 107.444C86.5263 106.981 86.0245 106.205 85.633 106.096C85.5555 106.075 85.4947 106.084 85.4305 106.127C84.9427 106.52 82.8412 112.163 81.113 117.272C81.0742 117.387 80.9672 117.459 80.852 117.459Z" fill="#AE312F"/>
<path opacity="0.39" d="M100.763 108.062C101.989 110.187 101.21 112.933 99.0225 114.196C96.835 115.458 94.0677 114.759 92.8415 112.635C91.6152 110.51 92.3942 107.764 94.5817 106.502C96.769 105.239 99.5365 105.938 100.763 108.062Z" fill="white"/>
<path opacity="0.39" d="M88.2032 113.575C89.4295 115.699 88.8308 118.341 86.8655 119.475C84.9003 120.609 82.3132 119.807 81.0867 117.682C79.8605 115.558 80.4595 112.916 82.4245 111.781C84.3898 110.647 86.9767 111.45 88.2032 113.575Z" fill="white"/>
<path d="M84.9362 120.234C83.3452 120.234 81.7487 119.347 80.8492 117.788C79.549 115.536 80.1912 112.721 82.2802 111.516C84.3697 110.309 87.128 111.161 88.4282 113.413C89.7285 115.666 89.0862 118.48 86.9965 119.686C86.353 120.058 85.645 120.234 84.9362 120.234ZM84.343 111.518C83.7275 111.518 83.1137 111.671 82.556 111.993C80.7297 113.047 80.1785 115.523 81.3262 117.513C82.4752 119.501 84.8947 120.263 86.721 119.209C88.5472 118.154 89.0992 115.678 87.9512 113.689C87.1535 112.308 85.743 111.518 84.343 111.518Z" fill="#AE312F"/>
<path d="M88.4775 113.862L88.0555 113.507C88.1297 113.418 89.9065 111.336 92.4398 111.735L92.3535 112.28C90.1343 111.926 88.4943 113.842 88.4775 113.862Z" fill="#AE312F"/>
<path d="M96.6338 115.137C96.2353 115.137 95.8358 115.088 95.4423 114.988C94.2018 114.675 93.1713 113.901 92.5408 112.808C91.2405 110.555 92.0665 107.636 94.3815 106.299C96.6983 104.963 99.639 105.708 100.939 107.96C102.239 110.214 101.414 113.133 99.098 114.47C98.334 114.911 97.4878 115.137 96.6338 115.137ZM96.8483 106.186C96.1063 106.186 95.3505 106.376 94.6575 106.776C92.6058 107.961 91.8702 110.543 93.018 112.533C93.5737 113.495 94.4825 114.177 95.577 114.454C96.6743 114.731 97.827 114.567 98.8225 113.993C100.875 112.808 101.61 110.226 100.463 108.236C99.7018 106.919 98.3023 106.186 96.8483 106.186Z" fill="#AE312F"/>
<path d="M33.5923 108.432C33.5923 108.432 37.9115 106.791 41.58 100.844C45.2485 94.897 30.7165 86.37 30.7165 86.37C30.7165 86.37 23.6805 94.4603 20.7117 99.3503C17.743 104.24 33.5923 108.432 33.5923 108.432Z" fill="#FF9C3D"/>
<path d="M125.452 0.00325382C123.425 0.112504 122.29 1.933 121.078 4.51025C120.115 6.557 119.105 9.08725 117.557 11.6138C116.7 13.0213 115.674 14.4288 114.399 15.7503C114.111 16.0465 113.811 16.335 113.495 16.608C106.766 22.4678 94.122 23.0058 87.3615 28.5538C87.0925 28.772 86.839 28.9983 86.5935 29.2323C83.6577 31.9965 82.3713 35.4935 81.8333 38.4138C81.5138 40.1383 81.4555 41.6565 81.4707 42.7093C67.4012 38.766 58.3305 42.8623 51.8232 50.4748C45.229 58.189 43.0913 73.8375 43.0913 73.8375L59.0882 105.332C59.0882 105.332 52.1057 106.984 46.4367 111.724C42.349 115.142 40.0882 118.862 40.9232 121.51C40.9232 122.389 41.0075 122.778 41.338 123.296C42.0953 124.484 43.3267 124.718 45.5327 124.486C47.0425 125.272 48.9172 124.183 50.242 123.381C54.0787 121.057 58.8915 116.557 71.1597 111.445C83.4282 106.333 89.3935 90.976 89.8173 86.8068C89.8173 86.8068 95.6145 84.6438 98.908 75.2885C98.908 75.2885 99.8787 85.6998 104.061 85.7928C108.243 85.8858 103.504 81.421 104.154 75.2885C104.805 69.156 104.526 63.3008 98.6708 65.81C98.6708 65.81 98.1595 50.6055 85.8737 44.3848C86.5175 41.3433 88.6292 34.594 94.9565 32.2225C98.1925 31.01 101.569 29.7545 104.89 28.2848C107.241 27.2438 109.569 26.0938 111.795 24.772C114.458 23.1893 116.984 21.3568 119.249 19.1695C121.464 17.033 123.367 14.2493 124.778 11.4655C127.729 5.6485 128.52 -0.156496 125.452 0.00325382Z" fill="#FF9C3D"/>
<path d="M45.1463 43.9458L44.8428 48.3285C44.8428 48.3285 44.4543 48.4985 43.8533 48.8143C43.7668 48.8575 43.4328 48.6893 43.338 48.74C43.2333 48.7963 43.3668 49.0723 43.2523 49.136C42.8638 49.3485 42.4268 49.6035 41.9713 49.8948C41.8795 49.9528 41.5253 49.824 41.433 49.8853C41.3418 49.9455 41.5125 50.1958 41.419 50.259C40.727 50.7325 40.0228 51.2728 39.3975 51.8738C39.3288 51.9398 39.0008 51.8578 38.9333 51.9258C38.8515 52.0078 39.0308 52.24 38.9545 52.323C38.6145 52.6873 38.311 53.0698 38.0623 53.4703C37.8315 53.8345 37.6858 54.229 37.5948 54.654C37.572 54.7478 37.2838 54.7223 37.2685 54.8188C37.251 54.9285 37.5075 55.16 37.4978 55.2733C37.443 55.7893 37.4553 56.3418 37.4918 56.9183C37.4945 56.9653 37.226 57.0498 37.2358 57.1793C37.2463 57.318 37.5353 57.502 37.5403 57.5618C37.5888 58.2113 37.6615 58.8973 37.698 59.6015C37.704 59.7003 37.4685 59.8008 37.4725 59.9018C37.4763 60.0055 37.7193 60.11 37.7225 60.2148C37.7408 60.9858 37.7103 61.787 37.5708 62.6065C37.556 62.7038 37.3418 62.7715 37.3235 62.8688C37.304 62.9718 37.4805 63.1045 37.4555 63.2075C37.3038 63.863 37.073 64.5248 36.7333 65.1925C36.6915 65.2848 36.3028 65.3305 36.2515 65.425C36.1983 65.5233 36.4825 65.6703 36.4238 65.769C36.2903 66.0058 36.1325 66.2485 35.9625 66.4853C35.7318 66.813 35.483 67.153 35.24 67.5113C35.1643 67.6155 34.8095 67.669 34.7345 67.7783C34.6655 67.8788 34.8758 68.0348 34.809 68.1365C34.299 68.8953 33.8013 69.7088 33.3945 70.583C33.343 70.6893 32.9898 70.7945 32.9418 70.9038C32.894 71.013 33.1515 71.1263 33.109 71.2385C32.8178 71.967 32.593 72.744 32.49 73.5575C32.474 73.6695 32.2028 73.8083 32.192 73.9228C32.1823 74.0255 32.432 74.1038 32.4293 74.207C32.32 76.0705 32.83 78.1405 34.4205 80.4413L33.595 82.3718C33.595 82.3718 28.2653 79.7008 27.7918 75.5425C27.7758 75.433 28.046 75.2985 28.0408 75.1893C28.0363 75.0923 27.7553 75.0203 27.7553 74.9235C27.7553 74.4075 27.828 73.8793 28.004 73.327C28.1558 72.8475 28.3258 72.38 28.508 71.9248C28.558 71.8045 28.829 71.7228 28.88 71.6028C28.9218 71.5043 28.7435 71.3675 28.787 71.2693C29.2363 70.2615 29.7403 69.3025 30.2318 68.3433C30.2893 68.2283 30.5418 68.1565 30.601 68.0415C30.648 67.9503 30.5018 67.8155 30.5475 67.724C30.9543 66.9105 31.3368 66.085 31.6583 65.229C31.6988 65.121 31.965 65.0678 32.0038 64.9588C32.0348 64.8718 31.8385 64.729 31.8708 64.6403C32.077 63.9968 32.247 63.323 32.3563 62.625C32.375 62.522 32.6223 62.4348 32.6353 62.3325C32.6478 62.2358 32.4263 62.1243 32.435 62.024C32.526 61.2348 32.5323 60.4033 32.429 59.5108C32.419 59.402 32.6235 59.328 32.6083 59.2158C32.5955 59.1213 32.364 58.9888 32.35 58.8918C32.259 58.321 32.1315 57.7203 31.9493 57.095C31.834 56.6823 31.749 56.2695 31.6943 55.875C31.6788 55.763 31.8553 55.6898 31.8453 55.5785C31.8358 55.4728 31.6395 55.329 31.6335 55.2255C31.591 54.3938 31.6823 53.5985 31.8703 52.8458C31.8955 52.742 32.124 52.759 32.1533 52.6578C32.1805 52.5635 32.008 52.3508 32.0403 52.257C32.4045 51.14 32.975 50.1203 33.6368 49.2278C33.7033 49.1348 33.9515 49.2003 34.019 49.1123C34.0748 49.0398 33.9493 48.8135 34.007 48.742C34.6383 47.9588 35.3183 47.285 35.9555 46.7205C36.0375 46.6478 36.322 46.7415 36.4033 46.6733C36.4845 46.605 36.3623 46.3745 36.441 46.314C36.963 45.877 37.4305 45.543 37.7825 45.3003C37.8898 45.2298 38.1518 45.3433 38.2348 45.2895C38.3448 45.2183 38.2665 44.9863 38.3288 44.9483C38.4018 44.9058 38.438 44.8815 38.438 44.8815L45.1463 43.9458Z" fill="#FF5555"/>
<path d="M43.8533 48.814C43.6713 48.905 43.4708 49.0142 43.2523 49.1357L37.7828 45.2993C38.0315 45.1353 38.2198 45.014 38.329 44.9473L43.8533 48.814Z" fill="white"/>
<path d="M41.9715 49.8945C41.7895 50.0098 41.6073 50.1313 41.4193 50.2588L35.9557 46.7198C36.1197 46.574 36.2835 46.4345 36.4415 46.313L41.9715 49.8945Z" fill="white"/>
<path d="M39.3975 51.8735C39.2457 52.0193 39.094 52.171 38.9545 52.3228L33.6367 49.2268C33.7582 49.0568 33.8795 48.899 34.0073 48.7413L39.3975 51.8735Z" fill="white"/>
<path d="M37.5948 54.6538C37.546 54.854 37.5158 55.0605 37.4978 55.273L31.8705 52.8448C31.919 52.6445 31.9738 52.4503 32.0405 52.256L37.5948 54.6538Z" fill="white"/>
<path d="M37.5402 57.5615L31.6945 55.874C31.6642 55.6555 31.646 55.437 31.6338 55.2245L37.4917 56.918C37.5037 57.1245 37.522 57.343 37.5402 57.5615Z" fill="white"/>
<path d="M37.7223 60.2142L32.4288 59.51C32.4105 59.3097 32.3803 59.1032 32.3498 58.8907L37.6978 59.601C37.71 59.8015 37.7163 60.008 37.7223 60.2142Z" fill="white"/>
<path d="M37.5705 62.606C37.5403 62.8063 37.5038 63.0065 37.4553 63.207L32.356 62.6243C32.3925 62.424 32.4168 62.2298 32.435 62.0233L37.5705 62.606Z" fill="white"/>
<path d="M36.7328 65.192C36.6478 65.3803 36.5385 65.5745 36.4233 65.7688L31.658 65.2285C31.731 65.0343 31.7975 64.84 31.8705 64.6398L36.7328 65.192Z" fill="white"/>
<path d="M35.2395 67.511C35.0938 67.7113 34.9483 67.9238 34.8085 68.1363L30.2315 68.3428C30.3348 68.1363 30.444 67.93 30.5473 67.7235L35.2395 67.511Z" fill="white"/>
<path d="M33.394 70.5825C33.2908 70.795 33.1937 71.0135 33.1087 71.238L28.5075 71.924C28.5985 71.7055 28.6898 71.487 28.7868 71.2683L33.394 70.5825Z" fill="white"/>
<path d="M32.4895 73.557C32.459 73.7695 32.4348 73.988 32.4288 74.2065L27.791 75.542C27.7608 75.3358 27.7545 75.1293 27.7545 74.9228L32.4895 73.557Z" fill="white"/>
<path d="M124.777 11.4655C122.922 9.97225 125.565 6.52575 125.565 6.52575C123.292 6.52575 121.916 5.6135 121.077 4.51025C122.29 1.93325 123.425 0.112504 125.452 0.00325382C128.52 -0.156496 127.729 5.6485 124.777 11.4655Z" fill="#AE312F"/>
<path d="M117.526 17.2825C116.017 17.766 114.544 17.22 113.495 16.608C113.811 16.335 114.111 16.0465 114.399 15.7503C115.674 14.4285 116.7 13.0213 117.557 11.6138C118.427 13.5903 119.417 16.678 117.526 17.2825Z" fill="#AE312F"/>
<path d="M111.795 24.7718C109.569 26.0935 107.241 27.2435 104.89 28.2845C104.957 26.6705 105.471 24.7795 107.335 23.8515C109.031 23.0018 110.606 23.7425 111.795 24.7718Z" fill="#AE312F"/>
<path d="M86.609 36.1953C85.0768 37.8405 83.2443 38.3278 81.833 38.4135C82.371 35.4935 83.6575 31.9963 86.5932 29.232C87.533 31.1893 88.461 34.199 86.609 36.1953Z" fill="#AE312F"/>
<g opacity="0.2">
<path d="M125.476 0.0240056C123.448 0.133256 122.313 1.95376 121.101 4.53101C120.138 6.57776 119.128 9.10801 117.58 11.6345C116.723 13.042 115.698 14.4495 114.423 15.771C114.134 16.0673 113.834 16.3558 113.518 16.6288C106.789 22.4885 94.1452 23.0265 87.3848 28.5745C87.1157 28.7928 86.8623 29.019 86.6165 29.2528C83.6808 32.017 82.3942 35.5143 81.8562 38.4343C81.5385 40.15 81.456 41.6568 81.4705 42.709C80.957 42.5643 80.4705 42.432 79.9693 42.3095C76.4183 41.44 72.7212 40.9955 69.0677 41.2953C64.4817 41.6715 60.0858 43.31 56.429 46.1108C53.3398 48.4768 50.7955 51.3683 48.9485 54.7968C47.9425 56.6643 47.0625 58.7173 46.3527 60.7153C45.6537 62.683 45.1617 64.6948 44.5807 66.6963C44.5727 66.7235 44.565 66.7548 44.5572 66.782C43.5357 70.825 43.1225 73.8465 43.1225 73.8465L59.119 105.341C59.119 105.341 57.4115 105.742 54.998 106.729C54.8888 106.771 54.7798 106.818 54.6705 106.865C54.3353 107.005 53.9883 107.157 53.6295 107.317C53.025 107.594 52.3975 107.902 51.7465 108.241C51.6802 108.276 51.61 108.311 51.5437 108.346C51.0448 108.615 50.534 108.904 50.0192 109.216C48.83 109.933 47.6215 110.772 46.4675 111.735C46.405 111.785 46.3465 111.836 46.2842 111.891C42.3112 115.263 40.132 118.908 40.9545 121.52C40.9545 122.398 41.0365 122.787 41.3677 123.306C42.124 124.491 43.356 124.729 45.5628 124.495C47.0715 125.283 48.9467 124.191 50.2725 123.392C52.5337 122.02 55.138 119.891 59.4072 117.329C59.4695 117.29 59.532 117.255 59.5982 117.216C60.5572 116.643 61.5982 116.051 62.7445 115.439C62.9082 115.349 63.072 115.263 63.2395 115.173C63.3252 115.131 63.411 115.084 63.4967 115.037C63.5865 114.994 63.676 114.943 63.7695 114.897C65.8945 113.793 68.339 112.639 71.1887 111.454C71.7267 111.228 72.253 110.986 72.7678 110.721C74.5573 109.813 76.1987 108.686 77.6957 107.415C79.805 105.63 81.6295 103.567 83.1773 101.435C85.0915 98.8068 86.5848 96.0815 87.6685 93.6525C88.994 90.6855 89.7115 88.167 89.848 86.818C89.848 86.818 95.6453 84.6543 98.9398 75.2973C98.9398 75.2973 99.9105 85.7108 104.09 85.8005C108.273 85.894 103.533 81.43 104.184 75.2973C104.835 69.1645 104.558 63.3088 98.7018 65.8195C98.7018 65.8195 98.6782 65.1645 98.534 64.069C98.4795 63.6635 98.4093 63.1995 98.3195 62.685C98.187 61.956 98.0155 61.1333 97.7815 60.2405C97.6255 59.6518 97.4462 59.028 97.2357 58.3848C96.7795 56.9695 96.1713 55.4568 95.372 53.9403C94.53 52.33 93.4733 50.716 92.1438 49.215C90.508 47.3623 88.4515 45.6903 85.8972 44.398C86.543 41.3525 88.6567 34.6133 94.9782 32.2438C98.2142 31.0313 101.59 29.7758 104.912 28.306C107.263 27.265 109.591 26.115 111.817 24.7933C114.48 23.2105 117.006 21.378 119.271 19.1908C121.486 17.0543 123.389 14.2705 124.8 11.4868C127.752 5.66951 128.544 -0.135744 125.476 0.0240056Z" fill="#AE312F"/>
</g>
<path d="M69.869 90.8C69.8603 91.772 69.7573 92.7508 69.5648 93.7218C68.7995 97.5813 66.6423 101.687 63.2995 103.905C61.8775 104.849 60.3442 105.316 58.655 105.316C58.655 105.316 58.5848 105.324 58.4485 105.331C57.887 105.374 56.2145 105.476 53.9338 105.359C49.4893 105.14 42.717 104.115 37.2745 100.29C36.557 99.7913 35.8592 99.2375 35.1965 98.6295C34.7482 98.2163 34.335 97.7953 33.9567 97.3625C31.0742 94.074 30.0117 89.6545 30.853 85.3815C31.3967 82.619 32.6207 80.001 34.3507 77.783C35.6217 76.1533 37.111 74.82 38.686 73.9388C40.6823 72.8198 43.1462 72.422 45.7972 72.5508C48.6995 72.6918 51.5292 73.3873 54.2575 74.3613C56.4552 75.146 58.5745 76.1408 60.6125 77.276C62.9545 78.5808 65.2933 80.1575 66.9928 82.2595C68.9858 84.7245 69.897 87.7283 69.869 90.8Z" fill="#FF9C3D"/>
<path d="M36.3708 79.182C36.3315 79.1198 36.2925 79.0573 36.2575 78.993C33.5798 74.4188 36.9775 68.5098 38.3178 68.6525C38.3405 68.6543 38.3663 68.6578 38.3898 68.6623C39.715 68.8673 40.885 70.8575 41.6543 73.4195C42.4403 76.0268 44.8445 77.5353 44.8445 77.5353C44.8445 77.5353 39.255 83.7785 36.3708 79.182Z" fill="#FF9C3D"/>
<path d="M36.2578 78.9938C33.5803 74.4175 36.977 68.5085 38.3172 68.6528C38.34 68.6545 38.3658 68.658 38.3893 68.6623C38.1985 69.0435 37.983 69.6445 37.9135 70.5053C37.8463 71.3738 38.0833 78.062 37.0943 78.6733C36.7978 78.8595 36.5023 78.963 36.2578 78.9938Z" fill="#AE312F"/>
<path d="M37.0942 78.6733C34.997 76.4123 36.9415 74.2123 36.9415 74.2123C36.9415 74.2123 36.321 74.317 36.2895 73.8568C36.2618 73.4155 36.905 73.548 36.9603 73.559C36.9375 73.5338 36.4575 73.0263 36.476 72.7325C36.4943 72.43 37.082 72.8638 37.082 72.8638C36.9743 71.6745 37.5785 70.8585 37.9135 70.505C37.8463 71.3735 37.928 72.5035 38.3362 73.9348C39.0897 76.5655 38.0832 78.062 37.0942 78.6733Z" fill="white"/>
<path d="M69.5113 94.2903C69.4645 94.4813 69.4138 94.6763 69.3593 94.8673C69.1175 95.7405 68.8017 96.6063 68.4157 97.46C68.3845 97.5263 68.3533 97.5965 68.3183 97.6705C68.3105 97.686 68.3065 97.6978 68.2988 97.7133C68.1233 97.643 67.944 97.565 67.7722 97.4873C66.895 97.0895 65.9283 96.5788 65.468 95.686C65.312 95.3858 65.2262 95.0543 65.2615 94.758C65.324 94.1343 65.8853 93.7795 66.4818 93.7365C67.082 93.6898 67.7215 93.8885 68.3493 94.0523C68.7315 94.1575 69.1213 94.2435 69.5113 94.2903Z" fill="#AE312F"/>
<path d="M69.9277 90.797C69.92 91.2338 69.8965 91.6625 69.8535 92.103C69.8417 92.216 69.8262 92.3253 69.8145 92.4343C69.799 92.5473 69.7795 92.6683 69.7637 92.789C69.756 92.832 69.7522 92.8748 69.7442 92.9178C68.9527 92.4733 68.0405 91.8495 68.1107 91.097C68.1262 90.8748 68.2627 90.707 68.4577 90.5863C68.8555 90.3408 69.3737 90.329 69.9235 90.364C69.9277 90.5085 69.9277 90.6528 69.9277 90.797Z" fill="#AE312F"/>
<path d="M67.4555 99.3693C67.4477 99.381 67.4437 99.3888 67.436 99.4005C67.4087 99.4513 67.3775 99.498 67.3502 99.5488C67.054 100.044 66.75 100.504 66.442 100.921C66.403 100.976 66.364 101.031 66.325 101.081C66.1455 100.851 65.978 100.606 65.8297 100.352C65.627 100.001 65.4555 99.6113 65.475 99.2488C65.4905 98.886 65.7675 98.5743 66.126 98.6523C66.3015 98.6913 66.4693 98.812 66.633 98.9213C66.898 99.0963 67.1747 99.2485 67.4555 99.3693Z" fill="#AE312F"/>
<path d="M57.1333 103.272C55.6263 103.509 53.7122 102.919 52.6485 101.802C52.4215 101.563 52.232 101.295 52.0897 100.994C51.4782 99.6847 51.5967 97.95 52.1942 96.6578C52.2057 96.627 52.2197 96.597 52.2337 96.567C52.861 95.2745 54.1605 94.4512 55.593 94.3682C57.269 94.272 59.3743 94.967 60.124 96.596C60.4193 97.2395 60.5373 97.9947 60.4943 98.7627L60.4967 98.7637C60.389 100.811 59.1518 102.953 57.1333 103.272Z" fill="white"/>
<path d="M57.1333 103.272C56.279 103.405 55.402 103.281 54.583 103.015C54.173 102.879 53.7772 102.697 53.4077 102.469C53.0377 102.243 52.6923 101.968 52.4065 101.632C52.1195 101.297 51.916 100.891 51.7837 100.472C51.649 100.052 51.5755 99.6135 51.5527 99.173C51.5087 98.2913 51.6645 97.3995 52.0132 96.5743L52.0073 96.5885C52.4288 95.6048 53.2288 94.841 54.2028 94.4455C54.6863 94.25 55.2082 94.1353 55.7277 94.1303C56.2435 94.1183 56.7575 94.1715 57.2573 94.2885C58.2473 94.528 59.2205 95.0255 59.86 95.8593C60.1825 96.2715 60.3837 96.7643 60.4917 97.259C60.6032 97.7568 60.627 98.267 60.588 98.768L60.5275 98.6748L60.53 98.6758L60.5957 98.7025L60.5905 98.7685C60.5505 99.281 60.4423 99.7855 60.2738 100.267C60.1033 100.748 59.8755 101.208 59.5872 101.626C59.2982 102.044 58.9408 102.414 58.527 102.706C58.1132 102.998 57.6338 103.197 57.1333 103.272ZM57.1333 103.272C57.633 103.192 58.1092 102.988 58.5182 102.694C58.9305 102.402 59.2702 102.018 59.5445 101.598C59.8202 101.177 60.0265 100.714 60.1668 100.233C60.3085 99.753 60.3885 99.2558 60.4025 98.759L60.463 98.8518L60.4603 98.851L60.3978 98.829L60.3997 98.7578C60.4132 98.272 60.365 97.785 60.2368 97.3228C60.11 96.8588 59.9042 96.424 59.5967 96.07C58.982 95.3568 58.082 94.9265 57.1567 94.7288C56.2262 94.5315 55.2435 94.5298 54.3773 94.8773C53.9443 95.0508 53.5457 95.3048 53.2015 95.6193C53.0315 95.7783 52.8702 95.9488 52.7347 96.139C52.6615 96.2303 52.6037 96.3323 52.5387 96.4295C52.4862 96.5283 52.4172 96.6405 52.3807 96.7273L52.3747 96.7418C52.015 97.4863 51.8215 98.3263 51.8225 99.1663C51.8235 99.5863 51.8725 100.007 51.981 100.414C52.088 100.821 52.259 101.21 52.517 101.544C53.0352 102.215 53.7923 102.687 54.595 102.98C55.4005 103.274 56.2795 103.392 57.1333 103.272Z" fill="#AE312F"/>
<path d="M54.5745 101.717C55.5855 102.278 56.93 102.324 57.9033 101.677C59.4538 100.647 59.84 98.266 58.6657 96.8098C58.0352 96.028 56.9707 95.5073 55.966 95.536C53.2807 95.6128 52.1527 99.2188 53.8332 101.129C54.0402 101.364 54.2932 101.561 54.5745 101.717Z" fill="#AE312F"/>
<g opacity="0.21">
<path d="M60.494 98.7627C56.6125 94.7605 52.6808 96.428 52.194 96.6578C52.2055 96.627 52.2195 96.597 52.2335 96.567C52.8608 95.2745 54.1603 94.4512 55.5928 94.3682C57.2688 94.272 59.374 94.967 60.1237 96.596C60.419 97.2395 60.537 97.995 60.494 98.7627Z" fill="#AE312F"/>
</g>
<path d="M39.223 97.3438C37.716 97.5805 35.802 96.9903 34.7383 95.8738C34.5113 95.635 34.3215 95.3665 34.1795 95.0658C33.568 93.7563 33.6865 92.0215 34.2838 90.7295C34.2953 90.6985 34.3093 90.6688 34.3233 90.6388C34.9503 89.3463 36.25 88.523 37.6823 88.44C39.3583 88.3438 41.4635 89.0388 42.2133 90.6678C42.5085 91.3113 42.6265 92.0665 42.5835 92.8345L42.586 92.8355C42.4788 94.8828 41.2413 97.0248 39.223 97.3438Z" fill="white"/>
<path d="M39.223 97.3438C38.3687 97.477 37.4917 97.3525 36.6727 97.0863C36.263 96.95 35.867 96.7685 35.4977 96.5403C35.1277 96.3143 34.7822 96.0395 34.4965 95.7038C34.2095 95.3683 34.006 94.9625 33.8737 94.5435C33.739 94.1235 33.6655 93.6848 33.6425 93.2443C33.5985 92.3625 33.7543 91.4708 34.103 90.6455L34.097 90.6598C34.5185 89.676 35.3185 88.9123 36.2925 88.5168C36.776 88.321 37.298 88.2065 37.8175 88.2018C38.3333 88.1898 38.847 88.243 39.347 88.3598C40.337 88.5993 41.3102 89.097 41.9497 89.9305C42.2722 90.3428 42.4735 90.8355 42.5815 91.3303C42.693 91.828 42.7167 92.3383 42.6777 92.8393L42.6165 92.7458L42.619 92.7468L42.6855 92.7733L42.6802 92.8398C42.6402 93.3523 42.532 93.8568 42.3635 94.3383C42.193 94.819 41.9652 95.2788 41.677 95.6973C41.388 96.1148 41.0305 96.485 40.6167 96.7773C40.203 97.069 39.7235 97.2688 39.223 97.3438ZM39.223 97.3438C39.7227 97.2638 40.199 97.0593 40.608 96.7653C41.0203 96.473 41.36 96.0893 41.6345 95.6693C41.91 95.2488 42.1165 94.7853 42.2567 94.3048C42.3982 93.8248 42.4785 93.3278 42.4925 92.8308L42.5537 92.9238L42.5513 92.923L42.488 92.9013L42.49 92.8295C42.5035 92.3438 42.4552 91.8568 42.327 91.3945C42.2002 90.9305 41.9945 90.4958 41.687 90.1418C41.0723 89.4285 40.1725 88.9983 39.247 88.8005C38.3165 88.6033 37.3338 88.6015 36.4678 88.949C36.0345 89.1225 35.6363 89.3765 35.2918 89.691C35.1218 89.8498 34.9605 90.0208 34.8247 90.2108C34.7515 90.302 34.694 90.404 34.6287 90.5013C34.5765 90.6 34.5073 90.7123 34.471 90.799L34.465 90.8133C34.1055 91.5578 33.9117 92.3978 33.9127 93.2378C33.9137 93.6578 33.9628 94.0788 34.0713 94.4853C34.1783 94.8928 34.3492 95.2815 34.6072 95.6158C35.1255 96.286 35.8825 96.7583 36.6852 97.051C37.4902 97.3455 38.3692 97.4635 39.223 97.3438Z" fill="#AE312F"/>
<path d="M36.6642 95.7888C37.6752 96.3493 39.0197 96.3955 39.993 95.749C41.5437 94.7188 41.9298 92.3375 40.7555 90.8815C40.1253 90.0998 39.0605 89.579 38.0558 89.6078C35.3708 89.6848 34.2425 93.2905 35.923 95.2008C36.13 95.436 36.383 95.6328 36.6642 95.7888Z" fill="#AE312F"/>
<g opacity="0.21">
<path d="M42.5838 92.8345C38.7023 88.8323 34.7702 90.4995 34.2837 90.7292C34.2952 90.6982 34.3092 90.6685 34.3232 90.6385C34.9502 89.346 36.25 88.5227 37.6823 88.4397C39.3583 88.3435 41.4635 89.0385 42.2132 90.6675C42.5087 91.3113 42.6268 92.0665 42.5838 92.8345Z" fill="#AE312F"/>
</g>
<path d="M46.3855 96.5765C46.3855 96.5765 45.8527 95.3372 45.3077 95.3702C44.7627 95.4032 45.261 96.7992 46.1335 97.3565C46.1335 97.3565 47.9517 97.0435 47.781 96.2375C47.6102 95.4318 46.3855 96.5765 46.3855 96.5765Z" fill="#AE312F"/>
<path d="M41.8838 103.175C42.2255 102.649 42.5795 102.133 42.9282 101.612L43.9938 100.064L45.0752 98.5278C45.4385 98.0178 45.794 97.502 46.1637 96.9965L46.3483 96.7445L46.3737 97.053C46.4235 97.6568 46.4513 98.2575 46.4673 98.8605C46.4835 99.463 46.4832 100.066 46.459 100.668C46.4352 101.271 46.3938 101.872 46.3288 102.471C46.2543 103.069 46.1608 103.665 46.0223 104.251C46.1113 103.656 46.1815 103.06 46.2197 102.462C46.257 101.863 46.2833 101.264 46.2848 100.665C46.283 99.467 46.2542 98.2653 46.1427 97.0753L46.3525 97.1318C45.9933 97.6448 45.6195 98.1473 45.2537 98.6555L44.148 100.175L43.0262 101.682C42.646 102.18 42.271 102.682 41.8838 103.175Z" fill="#AE312F"/>
<g opacity="0.48">
<path d="M44.3095 96.921C43.6633 96.9148 42.9635 97.184 42.4255 97.7583C41.6458 98.5908 41.1975 99.7833 41.58 100.844C41.8175 101.502 42.2885 101.956 42.7963 102.293C43.7693 102.94 44.7823 103.5 45.9843 103.453C46.4203 103.436 46.8715 103.346 47.2928 103.103C47.9388 102.73 48.4815 101.991 48.7158 101.164C48.9503 100.338 48.8702 99.4438 48.5067 98.8208C48.0595 98.0545 47.189 97.6073 46.4293 97.4058C45.7523 97.2265 45.02 96.9278 44.3095 96.921Z" fill="#AE312F"/>
</g>
<g opacity="0.48">
<path d="M58.4485 105.331C57.887 105.374 56.2145 105.476 53.9338 105.359C53.6413 104.805 53.922 104.158 54.5185 103.9C54.92 103.725 55.3995 103.678 55.7193 103.655C56.4133 103.596 57.1423 103.674 57.7818 103.982C58.2615 104.212 58.5305 104.801 58.4485 105.331Z" fill="#EA4949"/>
</g>
<g opacity="0.48">
<path d="M37.2745 100.29C36.557 99.7913 35.8592 99.2375 35.1965 98.6295C34.7482 98.2163 34.335 97.7953 33.9567 97.3625C34.144 97.187 34.3935 97.074 34.6743 97.0468C35.1148 97.0038 35.5865 97.113 35.9025 97.191C36.5808 97.3625 37.2398 97.6745 37.7388 98.1853C38.296 98.758 38.1283 99.9705 37.2745 100.29Z" fill="#EA4949"/>
</g>
<path d="M34.5983 85.9608C34.6215 86.4558 34.1928 86.873 33.7173 87.0018C33.2415 87.1265 32.7348 87.029 32.2593 86.9043C31.7095 86.764 31.1715 86.5885 30.649 86.3703V86.3663C30.7895 85.2708 31.0428 84.1948 31.3938 83.1538C31.425 83.064 31.4563 82.9743 31.4873 82.8885C32.2125 83.637 33.1013 84.218 33.8928 84.8885C34.2358 85.1693 34.5828 85.5203 34.5983 85.9608Z" fill="#AE312F"/>
<path d="M32.0578 89.9883C31.699 90.2845 31.2468 90.464 30.7673 90.5418V90.534C30.6658 89.8908 30.6073 89.2553 30.5995 88.612C30.5958 88.4483 30.5918 88.2845 30.5958 88.1208C30.7438 88.1675 30.8958 88.2065 31.0558 88.2415C31.3443 88.3 31.6405 88.343 31.9095 88.4598C32.1785 88.5728 32.424 88.7755 32.4983 89.0408C32.5918 89.3918 32.358 89.7465 32.0578 89.9883Z" fill="#AE312F"/>
<path d="M33.7293 81.643C33.585 81.8418 33.3005 81.908 33.0588 81.8495C32.817 81.787 32.6142 81.6273 32.431 81.4518C32.353 81.3738 32.279 81.2918 32.2088 81.21C32.2478 81.1243 32.2868 81.0425 32.3298 80.9528C32.661 80.2745 33.0315 79.6195 33.437 78.9995C33.441 78.9918 33.4487 78.9838 33.4525 78.976C33.4955 79.5958 33.5967 80.208 33.745 80.8083C33.819 81.0855 33.889 81.4053 33.7293 81.643Z" fill="#AE312F"/>
<g opacity="0.48">
<path d="M31.9663 93.7063C31.848 93.934 31.741 94.1673 31.6525 94.4058C31.565 94.6428 31.4958 94.894 31.5013 95.1325C31.5073 95.2495 31.5408 95.3613 31.6208 95.4228C31.7113 95.491 31.8173 95.526 31.924 95.5125C32.1393 95.4828 32.3403 95.3078 32.484 95.129L33.0833 94.384L32.653 95.2395C32.5683 95.4083 32.4993 95.5963 32.4585 95.7798C32.42 95.9628 32.4145 96.1555 32.489 96.2888C32.567 96.421 32.7238 96.4775 32.9008 96.457C33.0753 96.4373 33.2618 96.3658 33.421 96.2795L33.5523 96.2083L33.5945 96.3508C33.7063 96.7268 33.891 97.1005 34.0955 97.4493C34.3048 97.798 34.543 98.1315 34.8143 98.4375C35.0875 98.741 35.381 99.0305 35.709 99.2788C35.8648 99.4143 36.0393 99.5243 36.2073 99.6445C36.3788 99.7595 36.5603 99.8593 36.7358 99.9708C36.357 99.8018 35.987 99.6063 35.643 99.368C35.2935 99.137 34.9815 98.8535 34.6848 98.5568C34.3873 98.259 34.1333 97.9195 33.9075 97.5633C33.6823 97.204 33.497 96.8283 33.3668 96.4105L33.5403 96.4818C33.3473 96.5893 33.1495 96.6645 32.9228 96.69C32.8103 96.7005 32.688 96.6925 32.5715 96.6455C32.4553 96.5983 32.3533 96.5135 32.2898 96.4023C32.1688 96.174 32.1998 95.9363 32.2455 95.731C32.2983 95.5225 32.374 95.331 32.4748 95.1423L32.6438 95.2525C32.5523 95.3625 32.4525 95.4503 32.3363 95.528C32.2213 95.6038 32.0878 95.6663 31.9383 95.6778C31.7875 95.6898 31.6358 95.6295 31.5278 95.5365C31.4038 95.429 31.3733 95.2693 31.373 95.1348C31.3778 94.8578 31.481 94.6128 31.586 94.3775C31.6943 94.1433 31.8218 93.9185 31.9663 93.7063Z" fill="#AE312F"/>
</g>
<path d="M29.466 97.9225C30.294 97.8953 31.1163 97.9398 31.9373 98.002C32.7575 98.0713 33.5765 98.1585 34.3895 98.3178C33.5615 98.3455 32.7393 98.301 31.9185 98.2383C31.0978 98.1688 30.279 98.0815 29.466 97.9225Z" fill="#AE312F"/>
<path d="M29.69 95.8813C30.4735 96.0443 31.2343 96.2755 31.9895 96.5235C32.7425 96.7783 33.4898 97.05 34.214 97.3908C33.4303 97.2283 32.6695 96.997 31.9145 96.7485C31.1618 96.4933 30.4145 96.2213 29.69 95.8813Z" fill="#AE312F"/>
<path d="M31.0205 93.7063C31.6528 94.1973 32.2343 94.7395 32.8035 95.2943C33.3678 95.8543 33.9192 96.427 34.42 97.0515C33.7875 96.561 33.206 96.0185 32.6372 95.4633C32.073 94.903 31.5215 94.3303 31.0205 93.7063Z" fill="#AE312F"/>
<path d="M57.8163 105.265C58.6443 105.233 59.4665 105.274 60.2878 105.332C61.1085 105.398 61.9278 105.481 62.7415 105.636C61.9135 105.668 61.091 105.627 60.27 105.569C59.4495 105.503 58.6303 105.42 57.8163 105.265Z" fill="#AE312F"/>
<path d="M62.913 104.046C62.1445 104.269 61.3643 104.422 60.581 104.558C59.7965 104.686 59.009 104.797 58.2095 104.836C58.9778 104.612 59.7583 104.459 60.5415 104.324C61.3263 104.196 62.1138 104.086 62.913 104.046Z" fill="#AE312F"/>
<path d="M61.7632 101.43C61.1715 101.969 60.538 102.45 59.894 102.916C59.246 103.376 58.5875 103.822 57.8867 104.209C58.4782 103.67 59.1118 103.189 59.756 102.723C60.4043 102.263 61.0627 101.818 61.7632 101.43Z" fill="#AE312F"/>
<path d="M58.0952 75.7087C57.4442 77.6502 56.446 79.4865 55.5027 81.2878C55.0427 82.1613 54.5202 82.9955 53.9392 83.779C53.756 84.0245 53.5612 84.278 53.3037 84.4222C52.8397 84.6912 52.2667 84.5547 51.8495 84.2507C51.097 83.705 50.711 82.6913 50.672 81.6815C50.6252 80.6678 50.8825 79.658 51.1867 78.6872C51.6312 77.2602 52.2355 75.3577 53.1282 73.8372C53.257 73.8762 53.3817 73.9152 53.5102 73.9542C54.7072 74.3285 55.8963 74.769 57.0465 75.2525C57.1595 75.2993 57.265 75.35 57.378 75.3968C57.6195 75.4983 57.8612 75.6035 58.0952 75.7087Z" fill="#AE312F"/>
<path d="M64.4145 79.4798C64.2352 79.6863 64.0517 79.893 63.8802 80.0998C63.3382 80.7508 62.8432 81.4643 62.239 82.0335C61.6347 82.5988 60.886 83.0278 60.1455 82.9693C59.701 82.934 59.2487 82.6845 59.0927 82.213C58.9757 81.862 59.0302 81.4605 59.1277 81.0863C59.467 79.7568 60.2 78.5288 60.964 77.324C61.2017 77.4528 61.4357 77.5853 61.6657 77.7178C61.8762 77.8348 62.083 77.9555 62.2857 78.0803C62.816 78.4 63.3265 78.7275 63.8062 79.059C63.931 79.1408 64.0517 79.2228 64.1687 79.3045C64.2505 79.3628 64.3325 79.4213 64.4145 79.4798Z" fill="#AE312F"/>
<path d="M50.2417 73.0693C49.6802 74.4885 48.9435 75.8295 48.2105 77.1513C47.9882 77.5608 47.6452 78.0285 47.2435 77.931C46.9082 77.849 46.764 77.4045 46.7132 77.0108C46.5182 75.5333 46.8848 74.04 47.3683 72.6325C47.618 72.656 47.8753 72.6833 48.1285 72.7183C48.452 72.7573 48.7757 72.804 49.0992 72.8585C49.115 72.8625 49.1305 72.8625 49.146 72.8663C49.5087 72.929 49.8752 72.9953 50.2417 73.0693Z" fill="#AE312F"/>
<path d="M66.2885 88.9918C66.2885 88.9918 64.1297 88.1653 62.7777 86.5435C62.0425 85.6585 61.5477 84.5358 61.7772 83.179C61.7772 83.179 67.5583 76.5785 69.6383 76.746C69.8893 76.7655 70.1045 76.9838 70.273 77.3425C71.5245 79.9505 70.5955 90.1808 66.2885 88.9918Z" fill="#FF9C3D"/>
<path d="M66.389 89.015C66.3565 89.011 66.321 88.9995 66.2885 88.9915C66.2885 88.9915 67.5833 84.1065 68.383 81.7283C69.154 79.432 69.4157 77.155 69.8497 77.116C70.004 77.1005 70.1438 77.1863 70.273 77.3423C71.5138 79.931 70.61 90.021 66.389 89.015Z" fill="#AE312F"/>
<path d="M67.9023 85.982C67.9023 85.982 68.408 86.7968 68.2538 86.941C68.0998 87.0853 67.594 86.438 67.594 86.438C67.594 86.438 67.5008 88.2665 66.389 89.015C66.3565 89.011 66.321 88.9995 66.2885 88.9915C66.2885 88.9915 64.1297 88.165 62.7777 86.5433C63.0072 86.5198 63.2728 86.5083 63.5703 86.5083C66.2313 86.5083 67.5833 84.1065 68.383 81.7285C68.616 82.4148 69.172 84.4498 67.992 85.479C67.992 85.479 69.0212 85.5765 69.0785 85.791C69.136 86.0053 67.9023 85.982 67.9023 85.982Z" fill="white"/>
<g opacity="0.48">
<path d="M50.856 101.221C50.856 101.221 51.799 103.01 54.1405 103.758L50.856 101.221Z" fill="#AE312F"/>
</g>
<g opacity="0.48">
<path d="M38.8577 98.6448C38.8577 98.6448 40.3237 98.5933 41.7897 96.8388L38.8577 98.6448Z" fill="#AE312F"/>
</g>
<g opacity="0.48">
<path d="M80.5452 77.944C80.8797 79.1268 81.3162 80.2783 81.8875 81.3563C82.4432 82.439 83.1205 83.4625 83.9622 84.3215C84.8045 85.1738 85.7975 85.8783 86.9245 86.257C87.5022 86.3878 88.0705 86.592 88.641 86.5398C89.2127 86.5073 89.7788 86.3433 90.3063 86.0863C91.3735 85.5868 92.308 84.7925 93.1488 83.9278C93.9925 83.0575 94.7325 82.0863 95.45 81.0995C96.1607 80.1065 96.8147 79.07 97.4262 78.0083C97.737 77.4803 98.0377 76.9455 98.3227 76.4023C98.4652 76.1305 98.6043 75.857 98.7375 75.5805L98.9352 75.1648L99.0263 74.9535L99.067 74.846C99.0703 74.821 99.1098 74.7473 99.0683 74.7603C99.1135 74.746 99.077 74.8233 99.077 74.8488L99.046 74.9603L98.974 75.18L98.8138 75.6138C98.7003 75.9003 98.5785 76.1833 98.4542 76.4653C98.2052 77.029 97.9398 77.5858 97.6633 78.1373C97.0958 79.2325 96.4772 80.3028 95.7995 81.3385C95.1267 82.3778 94.3605 83.3595 93.5115 84.273C92.6552 85.175 91.6998 86.0225 90.54 86.5838C89.96 86.8563 89.321 87.0363 88.6637 87.064C87.991 87.1095 87.3762 86.8808 86.7637 86.7303C85.5595 86.3008 84.488 85.5495 83.6553 84.6103C81.9825 82.726 81.0057 80.353 80.5452 77.944Z" fill="#AE312F"/>
</g>
<path d="M104.692 85.7635C104.425 85.7515 104.18 85.6513 103.962 85.5163C103.74 85.3835 103.553 85.1995 103.393 84.9948C103.239 84.7853 103.114 84.551 103.053 84.2962C102.981 84.047 102.977 83.778 103.04 83.5235C103.203 83.7375 103.315 83.9375 103.447 84.1237C103.573 84.3105 103.696 84.4917 103.832 84.6637C104.093 85.0217 104.38 85.3467 104.692 85.7635Z" fill="#AE312F"/>
<path d="M55.9403 91.24C55.73 91.3395 55.5058 91.5363 55.5673 91.7605C55.5945 91.8598 55.6733 91.9355 55.7518 92.002C56.345 92.5053 57.1178 92.7925 57.8958 92.7988C58.9285 92.807 59.1445 91.7725 58.3158 91.222C57.7228 90.8283 56.5305 90.9613 55.9403 91.24Z" fill="#AE312F"/>
<path d="M40.5648 87.0488C40.796 87.024 41.0725 86.9115 41.088 86.6795C41.095 86.5768 41.0453 86.4795 40.993 86.391C40.598 85.7208 39.9623 85.1958 39.2295 84.9345C38.2568 84.5878 37.7133 85.494 38.315 86.286C38.7458 86.8528 39.9155 87.1185 40.5648 87.0488Z" fill="#AE312F"/>
<path d="M45.476 124.663C45.5598 124.014 45.7465 123.386 45.9775 122.777C46.208 122.167 46.5015 121.58 46.839 121.017C47.1913 120.463 47.5898 119.934 48.0568 119.467C48.5315 119.009 49.0733 118.611 49.6748 118.356C49.1975 118.805 48.772 119.265 48.3765 119.754C47.996 120.255 47.6375 120.769 47.3073 121.306C46.646 122.38 46.075 123.509 45.476 124.663Z" fill="#AE312F"/>
<path d="M40.923 121.51C41.076 120.975 41.3273 120.477 41.6188 120.007C41.9095 119.535 42.259 119.1 42.6413 118.695C43.027 118.293 43.4658 117.939 43.9388 117.642C44.4098 117.343 44.9368 117.128 45.476 117.009C45.027 117.339 44.593 117.642 44.1908 117.991C43.793 118.341 43.3967 118.689 43.0365 119.078C42.2957 119.837 41.6258 120.659 40.923 121.51Z" fill="#AE312F"/>
<path d="M52.5225 115.082C52.1677 115.145 51.8052 115.039 51.4697 114.907C49.8207 114.263 48.503 113.039 46.9823 112.17C46.8225 112.08 46.5613 111.987 46.2533 111.881C46.3155 111.827 46.374 111.776 46.4365 111.725C47.5905 110.762 48.799 109.924 49.9883 109.207C51.0098 109.749 51.9025 110.536 52.651 111.425C53.1305 111.994 53.575 112.645 53.6372 113.386C53.6997 114.127 53.2555 114.957 52.5225 115.082Z" fill="#AE312F"/>
<path d="M77.6655 107.405C76.1682 108.676 74.527 109.803 72.7375 110.712C72.4803 109.39 72.106 108.092 71.607 106.844C71.416 106.369 71.1975 105.905 70.9753 105.445C70.406 104.255 69.8253 103.078 69.7083 101.725C69.564 100.021 71.3575 99.8457 72.57 100.407C73.2563 100.723 73.8333 101.234 74.3518 101.783C75.8135 103.323 77.0337 105.304 77.6655 107.405Z" fill="#AE312F"/>
<path d="M65.049 70.3167C63.5558 70.0945 62.1795 69.4862 60.7878 68.964C57.3177 67.6657 53.5985 66.882 49.8322 66.6325C48.0622 66.5155 46.304 66.609 44.5495 66.687C44.8652 65.4355 45.2435 64.0865 45.6802 62.7025C47.0525 62.765 48.425 62.8662 49.7895 63.0145C54.1483 63.49 58.4172 64.4453 62.3317 66.149C64.051 66.8975 65.8795 67.8293 66.5033 69.4045C66.8503 70.274 65.8405 70.4377 65.049 70.3167Z" fill="#AE312F"/>
<path d="M75.9305 57.6928C75.303 57.9695 74.5153 57.8135 73.833 57.5798C70.7413 56.5388 68.3983 54.2775 65.7235 52.531C62.2653 50.2775 58.316 48.9285 54.2105 47.8603C54.5067 47.5795 54.811 47.3028 55.119 47.0375C55.5362 46.675 55.961 46.328 56.3978 45.9965C57.5635 45.1038 58.7993 44.3163 60.117 43.6455C60.4523 43.778 60.7838 43.9185 61.115 44.0588C66.62 46.4058 71.7313 49.6573 75.5403 53.8795C76.0665 54.4683 76.5853 55.096 76.7568 55.8173C76.9285 56.5425 76.6595 57.373 75.9305 57.6928Z" fill="#AE312F"/>
<path d="M65.1348 60.7532C64.9438 60.8935 64.6825 60.917 64.4447 60.913C62.7877 60.909 61.2323 60.1877 59.7 59.5602C55.9805 58.028 52.074 56.988 48.0973 56.3955C48.3118 55.9355 48.5378 55.447 48.7718 55.0027C48.9745 54.613 49.185 54.2307 49.4033 53.8565C49.5788 53.5445 49.766 53.2365 49.953 52.9402C50.101 52.7062 50.2533 52.4725 50.4053 52.2462C52.8185 52.8 55.1772 53.49 57.427 54.223C60.3745 55.186 63.4115 56.5505 65.0762 59.1587C65.3922 59.6537 65.6105 60.4022 65.1348 60.7532Z" fill="#AE312F"/>
<path d="M81.7225 49.125C81.5863 49.6748 81.356 50.244 80.9622 50.5247C80.51 50.8482 79.9602 50.7275 79.5042 50.4897C77.5392 49.476 76.5645 46.7585 75.4378 44.4622C74.8453 43.2537 74.159 42.2845 73.3753 41.2552C75.2428 41.4112 77.2155 41.5655 79.3012 42.0762C79.9875 42.244 80.7195 42.4818 81.429 42.6925C81.4368 42.6965 81.4627 42.7055 81.4705 42.7095C81.572 43.2515 81.6092 43.7413 81.6872 44.283C81.929 45.8735 82.1163 47.542 81.7225 49.125Z" fill="#AE312F"/>
<path d="M95.3422 53.8253C93.8295 55.7903 91.7555 57.3225 89.42 58.1608C88.691 58.422 87.919 58.6208 87.151 58.539C86.8858 58.5118 86.613 58.4455 86.4062 58.2738C85.8642 57.8215 86.0552 56.9443 86.379 56.3165C87.3615 54.4218 89.069 53.0298 90.4883 51.4393C91.116 50.7298 91.693 49.954 92.114 49.1C93.4435 50.601 94.5 52.215 95.3422 53.8253Z" fill="#AE312F"/>
<path d="M98.504 63.954C97.9972 64.153 97.4825 64.3323 96.9717 64.4883C95.7475 64.8625 94.4805 65.151 93.1977 65.151C92.7182 65.151 92.1255 65.0185 92.0085 64.5545C91.8995 64.1063 92.3165 63.7203 92.6947 63.455C94.0515 62.496 95.4357 61.576 96.843 60.6988C97.1432 60.5115 97.451 60.3205 97.7515 60.1258C97.9855 61.0185 98.157 61.8413 98.2895 62.5703V62.5743C98.3792 63.0848 98.4495 63.5485 98.504 63.954Z" fill="#AE312F"/>
<path d="M87.6383 93.5375C86.5543 95.9665 85.0613 98.6918 83.147 101.319C82.3868 100.352 81.915 98.9568 81.7317 98.0093C81.4705 96.6448 81.6615 95.058 82.7142 94.1455C83.564 93.4085 84.7805 93.2763 85.9072 93.319C86.4882 93.3388 87.073 93.4013 87.6383 93.5375Z" fill="#AE312F"/>
<path d="M7.22425 63.4308C7.22425 63.4308 8.672 74.9643 14.3768 81.8875L26.31 77.6343C26.31 77.6343 21.9915 68.6503 22.2353 57.8403C22.2353 57.8403 12.5288 60.1128 7.22425 63.4308Z" fill="white"/>
<path d="M10.102 66.0008C9.9565 66.0008 9.835 65.8868 9.82725 65.74C9.8195 65.588 9.936 65.4585 10.0878 65.4505C10.4105 65.4335 10.7315 65.3067 11.006 65.0932C10.9108 64.9252 10.849 64.735 10.8333 64.535C10.804 64.1608 10.972 63.758 11.2618 63.5083C11.4965 63.3055 11.7788 63.2298 12.0555 63.2938C12.1723 63.321 12.258 63.4205 12.268 63.5398C12.3123 64.0848 12.129 64.6525 11.7623 65.1135C11.8618 65.1763 11.9743 65.2115 12.0833 65.2095C12.2438 65.2065 12.4115 65.0995 12.5108 64.9368C12.5478 64.8758 12.624 64.7233 12.565 64.5723C12.5585 64.5588 12.5523 64.545 12.5468 64.531C12.4895 64.3938 12.5515 64.236 12.6868 64.1745C12.823 64.1128 12.9823 64.1705 13.0475 64.3033C13.0548 64.3175 13.0613 64.332 13.0678 64.3468C13.1563 64.522 13.353 64.608 13.5133 64.6305C13.6808 64.6533 13.9083 64.6203 14.0388 64.4558C14.063 64.4253 14.0848 64.3923 14.1068 64.3598C14.1718 64.263 14.2528 64.1425 14.3845 64.056C14.6678 63.8713 14.973 63.9503 15.2183 64.0138C15.33 64.0428 15.4358 64.0703 15.5245 64.0715C15.526 64.0715 15.5275 64.0715 15.5288 64.0715C15.6905 64.0715 15.8143 63.9313 15.8713 63.8098C15.9288 63.6878 15.9583 63.5008 15.8523 63.376C15.7598 63.2678 15.7655 63.107 15.8645 63.0053C15.964 62.9028 16.1248 62.8938 16.2348 62.9835C16.3898 63.1093 16.6335 63.1228 16.802 63.0163C16.8188 63.0058 16.8343 62.994 16.8493 62.9813C16.7788 62.7903 16.7753 62.5223 16.905 62.337C16.9983 62.2043 17.1435 62.1338 17.3043 62.1493C17.422 62.1593 17.5203 62.243 17.5483 62.358C17.6005 62.5703 17.5778 62.7958 17.4953 62.997C17.759 63.3175 18.2283 63.477 18.6263 63.3528C18.7102 63.3265 18.7908 63.2903 18.8715 63.2548C18.9973 63.199 19.1278 63.1418 19.2768 63.1073C19.5893 63.0365 19.9878 63.1043 20.1778 63.42C20.2563 63.5503 20.2143 63.7193 20.084 63.7978C19.9543 63.876 19.7845 63.8345 19.7063 63.704C19.6683 63.6415 19.5312 63.6143 19.4008 63.644C19.294 63.6688 19.1943 63.7145 19.0935 63.7588C18.9943 63.8025 18.8945 63.8458 18.791 63.8783C18.2175 64.0588 17.5678 63.8663 17.1553 63.4415C17.1365 63.4555 17.117 63.469 17.0973 63.4815C16.9128 63.5985 16.6913 63.6488 16.4743 63.6345C16.4678 63.7703 16.433 63.9095 16.3698 64.0445C16.1993 64.4063 15.8645 64.6253 15.5163 64.622C15.3613 64.6195 15.2118 64.5808 15.08 64.5468C14.8843 64.4958 14.7593 64.4685 14.6863 64.5163C14.6475 64.5415 14.6068 64.6022 14.5633 64.6665C14.5333 64.7115 14.5028 64.756 14.4698 64.798C14.2398 65.0875 13.8413 65.2338 13.4375 65.1755C13.3035 65.157 13.1768 65.118 13.0618 65.0615C13.0398 65.1163 13.0125 65.1705 12.9805 65.2228C12.7825 65.5475 12.4423 65.7533 12.0923 65.7598C11.8478 65.7613 11.5768 65.67 11.3665 65.5088C10.9988 65.8015 10.56 65.9763 10.116 66C10.112 66.0008 10.1068 66.0008 10.102 66.0008ZM11.7155 63.861C11.679 63.8798 11.6473 63.903 11.621 63.9255C11.4648 64.06 11.3668 64.2928 11.3823 64.4918C11.3865 64.5483 11.3978 64.6038 11.4145 64.658C11.5828 64.412 11.6865 64.1365 11.7155 63.861Z" fill="#6CE0C0"/>
<path d="M11.712 69.7323C11.5655 69.7323 11.4438 69.6168 11.4373 69.4688C11.4308 69.3168 11.5485 69.1883 11.7005 69.1818C11.9295 69.1718 12.1538 69.06 12.3103 68.8895C12.118 68.6393 11.9673 68.3643 11.829 68.113C11.6105 67.714 11.637 67.3665 11.9 67.1835C12.1795 66.9885 12.5213 67.1383 12.7213 67.3605C13.072 67.751 13.1775 68.3328 12.9908 68.8218C13.2563 69.0608 13.571 69.1743 13.8458 69.1285C14.014 69.0998 14.1653 68.9905 14.2515 68.8568C14.204 68.6548 14.2625 68.4578 14.415 68.3253C14.491 68.259 14.597 68.2403 14.6915 68.275C14.786 68.31 14.8538 68.3935 14.8683 68.4933C14.8848 68.6058 14.8793 68.7183 14.8548 68.827C14.8808 68.8473 14.904 68.854 14.9208 68.8548C15.1365 68.8415 15.2903 68.5403 15.3323 68.4483C15.3655 68.375 15.429 68.3203 15.5063 68.298C15.5843 68.276 15.667 68.2885 15.7335 68.3323C15.8638 68.4175 15.999 68.4523 16.101 68.4283C16.14 68.4195 16.1778 68.3965 16.205 68.3685C16.0998 68.33 16.0008 68.274 15.9125 68.201C15.842 68.1425 15.8053 68.0525 15.8143 67.9615C15.8238 67.87 15.8778 67.7895 15.9588 67.7465C16.1178 67.6613 16.314 67.6673 16.4828 67.762C16.5385 67.793 16.5883 67.832 16.631 67.8765C16.692 67.8688 16.7508 67.8493 16.8025 67.8185C16.8555 67.7868 16.9013 67.7428 16.9373 67.6913C16.9085 67.643 16.8853 67.589 16.8725 67.528C16.843 67.3873 16.8855 67.2333 16.9835 67.126C17.0725 67.0285 17.194 66.9798 17.323 66.9958C17.441 67.0098 17.5368 67.0983 17.5605 67.2148C17.5825 67.3238 17.5852 67.4343 17.571 67.542C18.0217 67.8583 18.586 68.0168 19.1345 67.9765C19.3615 67.9598 19.518 67.905 19.6 67.8133C19.61 67.8023 19.6185 67.7885 19.6255 67.7738C19.5675 67.6675 19.5228 67.554 19.495 67.435C19.47 67.3278 19.5113 67.2163 19.5995 67.1508C19.6885 67.0858 19.808 67.0795 19.902 67.1345C20.057 67.225 20.1585 67.3798 20.188 67.5693C20.1918 67.593 20.1943 67.6168 20.1955 67.641C20.3813 67.8733 20.6825 68.021 20.9768 67.9978C21.133 67.983 21.2615 68.0975 21.2738 68.2493C21.2865 68.401 21.1737 68.534 21.0223 68.5463C20.651 68.5803 20.2743 68.4433 19.986 68.2058C19.804 68.394 19.5378 68.4985 19.1743 68.5253C18.5385 68.5723 17.8868 68.402 17.351 68.0575C17.2775 68.1495 17.188 68.229 17.085 68.2905C16.9915 68.3465 16.8903 68.3858 16.7858 68.4083C16.7323 68.6725 16.5128 68.8983 16.2243 68.9645C16.055 69.0033 15.874 68.989 15.6948 68.925C15.4988 69.2158 15.238 69.387 14.9538 69.4043C14.8295 69.4135 14.7033 69.379 14.5935 69.315C14.4268 69.4953 14.1983 69.627 13.9383 69.6713C13.5255 69.7435 13.0688 69.5998 12.6905 69.29C12.4388 69.5505 12.0898 69.7168 11.724 69.7323C11.72 69.7323 11.716 69.7323 11.712 69.7323ZM12.24 67.668C12.2495 67.7108 12.2708 67.7725 12.312 67.8483C12.381 67.974 12.4513 68.1018 12.5258 68.2255C12.5068 68.0425 12.4333 67.8638 12.3115 67.7283C12.2875 67.7015 12.262 67.6815 12.24 67.668Z" fill="#6CE0C0"/>
<path d="M13.0503 73.032C12.9908 73.032 12.9308 73.013 12.8805 72.973C12.5885 72.744 12.5185 72.291 12.7215 71.942C12.868 71.6895 13.1403 71.4987 13.4875 71.4057C14.0358 71.26 14.6385 71.395 15.099 71.7235C15.754 71.4588 16.4818 71.2055 17.245 71.261C17.4378 71.2747 17.6248 71.3077 17.8063 71.3432C17.6698 71.2705 17.5393 71.1838 17.4168 71.0813C17.2043 70.9038 17.1263 70.6865 17.2028 70.4855C17.2853 70.2675 17.5263 70.1565 17.8105 70.1998C18.305 70.2773 18.732 70.6485 18.8953 71.118C19.159 71.1607 19.429 71.1783 19.6865 71.1868C19.9293 71.1943 20.1815 71.194 20.3583 71.0875C20.434 71.042 20.4975 70.955 20.5168 70.8707C20.5273 70.8237 20.523 70.7852 20.5038 70.7565C20.4193 70.6297 20.4535 70.459 20.58 70.3747C20.707 70.2902 20.877 70.3245 20.9618 70.451C21.0648 70.6052 21.0972 70.7972 21.0538 70.9915C21.0015 71.2237 20.8475 71.4363 20.6418 71.5598C20.3368 71.7433 19.9798 71.748 19.668 71.737C19.4275 71.7292 19.177 71.714 18.9265 71.6795C18.8895 71.7865 18.8228 71.8737 18.7305 71.9312C18.5783 72.0252 18.4138 72.0053 18.3345 71.996C18.159 71.9748 17.985 71.9402 17.8113 71.9057C17.6018 71.864 17.4043 71.8245 17.206 71.8102C16.64 71.77 16.0648 71.9407 15.5285 72.1462C15.578 72.2145 15.623 72.2862 15.6623 72.3617C15.7253 72.4825 15.6905 72.6312 15.5808 72.7112C15.108 73.057 14.4178 73.028 13.976 72.6438C13.9073 72.5838 13.8725 72.4937 13.8833 72.403C13.8943 72.3127 13.9493 72.2332 14.03 72.1915C14.1703 72.1185 14.3128 72.0532 14.4548 71.9915C14.193 71.8905 13.901 71.8645 13.6303 71.9378C13.5113 71.9698 13.2965 72.0485 13.1978 72.2187C13.1343 72.328 13.145 72.481 13.2203 72.54C13.34 72.6337 13.361 72.807 13.2668 72.9265C13.2128 72.996 13.132 73.032 13.0503 73.032ZM14.996 72.3615C14.9688 72.3728 14.9418 72.384 14.9145 72.395C14.947 72.3915 14.9793 72.3857 15.0108 72.3782C15.006 72.3727 15.001 72.367 14.996 72.3615Z" fill="#6CE0C0"/>
<path d="M14.9013 76.4943C14.8938 76.4943 14.8863 76.4943 14.8788 76.494C14.502 76.4875 14.153 76.3195 13.9445 76.0443C13.8528 75.923 13.8768 75.75 13.998 75.6585C14.1195 75.567 14.292 75.591 14.3838 75.712C14.4908 75.8535 14.6793 75.94 14.888 75.9438C15.1035 75.9328 15.288 75.8668 15.4 75.7298C15.4428 75.677 15.4748 75.6148 15.4955 75.5463C15.48 75.5365 15.4643 75.527 15.4485 75.517C15.201 75.3603 14.9413 75.0615 14.9185 74.747C14.9053 74.565 14.974 74.3993 15.1115 74.281C15.1933 74.2098 15.31 74.1945 15.408 74.2408C15.7205 74.3878 15.957 74.6948 16.041 75.062C16.054 75.1188 16.063 75.1755 16.0683 75.2323C16.3793 75.3798 16.747 75.4783 17.0855 75.379C17.295 75.318 17.491 75.131 17.5733 74.9143C17.6145 74.8063 17.644 74.647 17.553 74.5028C17.4863 74.3968 17.4995 74.2593 17.585 74.1678C17.6705 74.0763 17.8063 74.054 17.917 74.1138C18.426 74.3888 19.0413 74.4713 19.6058 74.3415C19.8235 74.2913 20.0443 74.1468 20.1193 74.006C20.1555 73.938 20.1463 73.8923 20.1338 73.86C20.0998 73.7713 20.114 73.6715 20.1718 73.5958C20.229 73.5205 20.3183 73.4788 20.416 73.4878C20.8603 73.527 21.3045 73.497 21.7385 73.3968C21.8238 73.377 21.8965 73.354 21.956 73.3283C21.7755 73.1688 21.7058 72.9968 21.7485 72.8163C21.7635 72.752 21.8013 72.6955 21.8548 72.6568C22.0283 72.5308 22.258 72.5398 22.439 72.6803C22.586 72.7943 22.6997 72.997 22.689 73.2098L23.7078 74.021C23.8265 74.1158 23.8463 74.2888 23.7515 74.408C23.657 74.5265 23.484 74.5468 23.3645 74.4518L22.4133 73.6945C22.2135 73.852 21.967 73.9093 21.8625 73.9335C21.475 74.023 21.0825 74.064 20.682 74.0543C20.6678 74.1255 20.6423 74.196 20.6053 74.265C20.421 74.6108 20.0183 74.8115 19.7295 74.8783C19.2148 74.9973 18.6643 74.9718 18.159 74.8113C18.1495 74.9098 18.126 75.0098 18.088 75.1095C17.943 75.4915 17.618 75.7973 17.2398 75.9075C16.8623 76.018 16.4378 75.979 15.9898 75.7985C15.9495 75.8993 15.895 75.9935 15.8275 76.0765C15.6145 76.339 15.2695 76.4943 14.9013 76.4943Z" fill="#6CE0C0"/>
<path d="M42.6953 34.6435C42.6953 34.6435 50.403 39.6128 54.4922 50.743L65.5085 43.9455C65.5085 43.9455 61.1042 31.372 55.5612 26.946L42.6953 34.6435Z" fill="white"/>
<path d="M47.1765 35.7545C47.148 35.7545 47.1195 35.7533 47.091 35.7508C46.9393 35.7385 46.827 35.6052 46.8395 35.4535C46.8518 35.3017 46.9827 35.1882 47.1367 35.202C47.2882 35.2135 47.4485 35.156 47.5788 35.042C47.6163 35.0092 47.6493 34.9735 47.6778 34.9352C47.6503 34.9167 47.6238 34.8972 47.598 34.8777C47.183 34.5625 46.9378 34.141 46.9248 33.7205C46.9225 33.6453 46.951 33.5725 47.0038 33.5187C47.0565 33.4652 47.1313 33.4383 47.2038 33.4365C47.5033 33.4405 47.8015 33.5775 48.0218 33.8117C48.242 34.0462 48.3597 34.3525 48.3452 34.6517C48.345 34.6555 48.3447 34.6592 48.3447 34.663C48.6255 34.763 48.9395 34.7792 49.202 34.6307C49.379 34.531 49.5113 34.3112 49.5315 34.084C49.5395 33.992 49.5347 33.829 49.425 33.7088C49.4045 33.691 49.3848 33.6722 49.3653 33.6527C49.262 33.5487 49.2585 33.3818 49.3573 33.2733C49.4568 33.165 49.6232 33.153 49.7357 33.2462C49.7592 33.2652 49.7813 33.2855 49.8025 33.3068C49.9793 33.4513 50.2388 33.5025 50.4538 33.4292C50.6893 33.3502 50.877 33.1228 50.91 32.8763C50.9213 32.7933 50.9698 32.7195 51.0415 32.6765C51.1138 32.634 51.2008 32.6262 51.2798 32.655C51.6473 32.7942 52.0733 32.5908 52.3498 32.3558L52.4025 32.31C52.5045 32.221 52.62 32.12 52.7745 32.0575C52.9445 31.989 53.1133 31.9868 53.2625 31.985C53.309 31.9845 53.3558 31.984 53.402 31.9807C53.4985 31.9742 53.5945 31.953 53.6865 31.9197C53.6233 31.8142 53.6368 31.6757 53.727 31.5847C53.9395 31.37 54.2343 31.2367 54.5355 31.2195C54.6347 31.215 54.7265 31.2602 54.7808 31.3417C54.8348 31.423 54.8418 31.527 54.7988 31.615C54.5468 32.132 54.013 32.4912 53.439 32.5302C53.383 32.534 53.326 32.5348 53.2692 32.5358C53.1587 32.537 53.0547 32.5385 52.9805 32.5682C52.9125 32.596 52.841 32.6582 52.765 32.7247L52.7065 32.7755C52.375 33.0573 51.8775 33.2995 51.3773 33.241C51.2428 33.5688 50.967 33.838 50.6295 33.9518C50.4543 34.011 50.267 34.027 50.0845 34.0023C50.0852 34.045 50.0838 34.0882 50.08 34.1325C50.0438 34.5447 49.8108 34.9195 49.4725 35.1105C49.0623 35.3422 48.588 35.3272 48.174 35.1842C48.1115 35.2837 48.0338 35.376 47.942 35.456C47.723 35.6485 47.4482 35.7545 47.1765 35.7545Z" fill="#6CE0C0"/>
<path d="M51.3372 38.855C51.2372 38.855 51.1407 38.8005 51.092 38.7053L50.4765 37.506C49.8665 37.2665 49.3477 36.8308 49.132 36.1905C49.0337 35.9015 49.1497 35.741 49.2277 35.671C49.293 35.612 49.41 35.5463 49.5997 35.5718C50.1392 35.6425 50.4207 36.1905 50.556 36.4538L50.864 37.0543C51.1965 37.1575 51.5527 37.1958 51.8792 37.167C52.1415 37.145 52.4215 37.047 52.4565 36.8783C52.475 36.7885 52.4312 36.671 52.3805 36.5348C52.319 36.3703 52.2492 36.184 52.2657 35.9715C52.2717 35.8943 52.3097 35.8233 52.3705 35.7758C52.4312 35.7288 52.5092 35.7088 52.5855 35.7213C52.5865 35.7215 52.5875 35.7215 52.5882 35.7218C52.5587 35.707 52.529 35.6918 52.5 35.6755C52.4115 35.627 52.3567 35.5338 52.3572 35.433C52.3577 35.3323 52.4132 35.2398 52.5022 35.1918C53.0177 34.9153 53.4655 34.9535 53.6707 35.294C53.6962 35.3358 53.7157 35.38 53.729 35.4263C54.1525 35.4205 54.575 35.285 54.9092 35.027C54.9795 34.973 55.0715 34.9563 55.156 34.981C55.2407 35.0063 55.3083 35.0708 55.3375 35.1543C55.4545 35.4895 55.6472 35.7525 55.8797 35.8953C56.1277 36.0473 56.4428 36.057 56.6463 35.9203C56.7455 35.8533 56.8215 35.7315 56.8445 35.6025C56.8553 35.5408 56.8632 35.4223 56.793 35.325C56.7037 35.2018 56.7312 35.0298 56.8545 34.9408C56.9775 34.851 57.1497 34.8793 57.2387 35.0023C57.3795 35.196 57.4317 35.4435 57.3867 35.6988C57.3372 35.9775 57.1797 36.225 56.9547 36.377C56.5715 36.6353 56.024 36.6298 55.592 36.365C55.2887 36.179 55.087 35.9098 54.9547 35.6548C54.552 35.879 54.0862 35.9863 53.6217 35.9738C53.5425 36.086 53.4322 36.1775 53.308 36.2308C53.167 36.291 53.0153 36.3128 52.8833 36.3078C52.8875 36.319 52.8918 36.3305 52.8963 36.3423C52.9668 36.531 53.0467 36.7448 52.996 36.9905C52.9117 37.3955 52.5117 37.6668 51.9255 37.716C51.687 37.7365 51.4387 37.7288 51.1917 37.6935L51.5822 38.4548C51.6515 38.59 51.5985 38.756 51.4627 38.8253C51.4225 38.8453 51.3792 38.855 51.3372 38.855ZM49.7702 36.2555C49.8232 36.3453 49.8855 36.4285 49.9555 36.5048C49.8988 36.4108 49.8372 36.3233 49.7702 36.2555Z" fill="#6CE0C0"/>
<path d="M52.7537 41.919C52.3627 41.919 51.999 41.7745 51.7363 41.633C51.6023 41.561 51.5522 41.394 51.6247 41.26C51.6967 41.126 51.864 41.0755 51.9977 41.1485C52.2585 41.2885 52.6432 41.4352 53.0012 41.336C53.2632 41.2627 53.5185 40.9917 53.4665 40.7202C53.4452 40.612 53.3807 40.5162 53.314 40.4425C52.936 40.4135 52.5937 40.2455 52.367 39.9752C52.2955 39.8902 52.2822 39.7702 52.3335 39.6717C52.3847 39.5732 52.49 39.5135 52.601 39.5242C52.9382 39.5525 53.263 39.682 53.5277 39.8917C53.7247 39.8717 53.9017 39.7915 54.0255 39.6625C54.066 39.62 54.103 39.5737 54.1397 39.5275C54.2085 39.441 54.2787 39.3557 54.3615 39.283C54.5405 39.1267 54.7497 39.0465 54.9342 38.9757L55.4765 38.768C55.5985 38.7212 55.9237 38.5967 56.1775 38.8027C56.4487 39.0235 56.3597 39.353 56.3067 39.55C56.2877 39.6205 56.268 39.6932 56.2647 39.7455C56.2555 39.9047 56.4577 40.0615 56.6587 40.1215C56.922 40.2002 57.254 40.1392 57.4845 39.9705C57.5957 39.8887 57.7292 39.7475 57.7322 39.5402C57.7327 39.5007 57.7295 39.4607 57.7265 39.4207C57.7187 39.3125 57.7087 39.1775 57.7507 39.037C57.8852 38.59 58.4085 38.442 58.8322 38.529C58.9605 38.5552 59.086 38.5977 59.2107 38.6405C59.3695 38.695 59.5192 38.7465 59.66 38.7502C59.9327 38.77 60.1875 38.5495 60.2127 38.3132C60.2245 38.2027 60.1725 38.0782 60.0765 37.9885C59.9947 37.9115 59.8965 37.878 59.8105 37.8917C59.6605 37.9197 59.518 37.8182 59.4915 37.6685C59.465 37.5187 59.565 37.376 59.7147 37.3495C59.974 37.3027 60.2427 37.39 60.4525 37.5862C60.6757 37.7952 60.7907 38.089 60.76 38.3725C60.704 38.8912 60.1957 39.3177 59.6442 39.301C59.4195 39.2947 59.222 39.227 59.0315 39.1615C58.9288 39.1262 58.826 39.0902 58.7205 39.0685C58.5397 39.0305 58.3125 39.0775 58.278 39.1955C58.265 39.2382 58.2702 39.3072 58.2755 39.3805C58.2795 39.4365 58.2832 39.4927 58.2825 39.5482C58.2775 39.8865 58.1095 40.1942 57.81 40.414C57.4415 40.6845 56.9282 40.7767 56.5012 40.649C56.1032 40.5307 55.6872 40.1872 55.7147 39.7137C55.721 39.6047 55.7495 39.4995 55.7745 39.4065C55.7885 39.3552 55.81 39.2755 55.814 39.2295C55.7987 39.2415 55.7535 39.2512 55.6732 39.2822L55.1307 39.49C54.9822 39.547 54.8285 39.6062 54.7235 39.6975C54.6655 39.7485 54.618 39.8102 54.5695 39.8712C54.5222 39.9305 54.4747 39.9892 54.4225 40.044C54.2847 40.1872 54.1127 40.296 53.921 40.3642C53.961 40.4462 53.9897 40.5307 54.0065 40.6162C54.1207 41.2092 53.6502 41.727 53.1487 41.8667C53.016 41.903 52.8832 41.919 52.7537 41.919Z" fill="#6CE0C0"/>
<path d="M57.3087 45.993C57.2317 45.993 57.152 45.987 57.0692 45.975C55.9412 45.8108 55.2448 44.801 54.6603 43.7343C54.587 43.601 54.636 43.4338 54.7695 43.3605C54.9032 43.287 55.0707 43.3363 55.1432 43.4698C55.6592 44.4115 56.2595 45.3007 57.1487 45.4302C57.3185 45.4542 57.46 45.4423 57.5687 45.3938C57.7605 45.307 57.9005 45.07 57.9257 44.7898C57.9352 44.6863 57.9307 44.5805 57.918 44.4738C57.9092 44.461 57.9007 44.4483 57.8927 44.435C57.7525 44.2085 57.7157 43.955 57.79 43.7213C57.8267 43.6045 57.9312 43.5255 58.0585 43.5293C58.1807 43.532 58.2865 43.615 58.3182 43.733C58.3612 43.8933 58.407 44.0635 58.439 44.241C58.5045 44.3028 58.5853 44.3453 58.6668 44.358C58.9088 44.3943 59.1937 44.2455 59.361 43.9938C59.5125 43.7665 59.593 43.4572 59.6077 43.0482C59.6115 42.9445 59.673 42.8518 59.7675 42.8083C59.8615 42.765 59.9727 42.7778 60.0537 42.8428C60.3497 43.0775 60.7705 43.1438 61.1235 43.0125C61.4777 42.881 61.7522 42.5565 61.8232 42.1858C61.8495 42.0393 61.8762 41.8908 61.988 41.7668C62.0892 41.653 62.2642 41.6445 62.3767 41.7463C62.49 41.8483 62.4987 42.0222 62.3972 42.135C62.3895 42.1485 62.3792 42.2063 62.3722 42.2445C62.2577 42.8453 61.846 43.3318 61.3152 43.5288C60.9315 43.6715 60.4952 43.6583 60.1155 43.507C60.063 43.819 59.9652 44.0803 59.8195 44.299C59.5327 44.7303 59.039 44.975 58.5825 44.9027C58.5445 44.8967 58.5073 44.8885 58.47 44.878C58.4167 45.3427 58.1605 45.7305 57.795 45.8957C57.651 45.9602 57.488 45.993 57.3087 45.993Z" fill="#6CE0C0"/>
<path d="M38.0267 94.957C38.0267 94.957 26.197 90.4583 12.6035 89.1698C12.6035 89.1698 8.42775 102.097 8.5165 109.56C8.5165 109.56 24.1435 113.382 34.8833 113.691C34.8833 113.691 38.3642 103.332 38.0267 94.957Z" fill="white"/>
<path d="M11.8515 108.759C11.7458 108.759 11.645 108.698 11.5995 108.595C11.538 108.456 11.6005 108.293 11.7395 108.232L13.0485 107.652C13.3888 107.501 13.758 107.315 13.8385 107.017C13.9208 106.714 13.6598 106.366 13.359 106.178C13.3398 106.166 13.3193 106.154 13.2985 106.143C13.0568 106.204 12.8095 106.193 12.6233 106.185C12.5143 106.18 12.4185 106.112 12.3788 106.01C12.339 105.909 12.3625 105.794 12.4393 105.716C12.67 105.482 13.0023 105.463 13.3085 105.555C13.3243 105.546 13.3398 105.536 13.3543 105.525C13.416 105.48 13.4588 105.378 13.4518 105.293C13.4488 105.258 13.4388 105.237 13.4225 105.228C13.311 105.172 13.2513 105.048 13.2768 104.926C13.3023 104.804 13.4065 104.714 13.531 104.707C13.7965 104.693 14.0675 104.66 14.2523 104.518C14.3958 104.407 14.459 104.195 14.3798 104.09C14.3243 104.016 14.1998 103.969 14.068 103.918C13.8783 103.846 13.6633 103.763 13.5128 103.562C13.4 103.412 13.3608 103.239 13.3393 103.106C13.192 102.193 13.5695 101.354 13.9345 100.542C14.0505 100.283 14.1665 100.026 14.2643 99.767C14.325 99.6058 14.448 99.213 14.2753 99.054C14.2455 99.0265 14.211 99.0058 14.177 98.9838C14.117 98.945 14.058 98.9053 14.0055 98.857C13.6505 98.531 13.6965 97.98 13.926 97.6038C14.0478 97.4043 14.2038 97.2465 14.3545 97.094C14.438 97.0095 14.522 96.9255 14.5973 96.834C15.076 96.2533 15.126 95.3403 14.7138 94.7103C14.6305 94.5828 14.6663 94.4123 14.7933 94.329C14.9205 94.246 15.0913 94.2818 15.1745 94.4085C15.722 95.2453 15.6578 96.4125 15.022 97.184C14.9363 97.2883 14.841 97.3848 14.7458 97.481C14.611 97.617 14.4838 97.7455 14.3958 97.8903C14.2875 98.0683 14.2495 98.3338 14.3778 98.4515C14.4075 98.4788 14.442 98.4993 14.476 98.5213C14.5365 98.5605 14.596 98.6005 14.6488 98.6493C14.8603 98.8443 15.055 99.2303 14.7795 99.9613C14.6778 100.231 14.5578 100.499 14.4368 100.768C14.09 101.539 13.762 102.268 13.883 103.018C13.8945 103.089 13.9128 103.178 13.9533 103.232C14.0088 103.306 14.1333 103.353 14.2653 103.404C14.4543 103.476 14.6688 103.558 14.8198 103.759C15.11 104.144 14.9343 104.688 14.5885 104.954C14.41 105.092 14.204 105.166 13.9963 105.207C13.9983 105.22 13.9995 105.233 14.0005 105.247C14.0183 105.454 13.9493 105.67 13.8215 105.832C14.2155 106.145 14.5108 106.642 14.37 107.162C14.2143 107.738 13.601 108.01 13.2715 108.156L11.9625 108.736C11.9265 108.751 11.8888 108.759 11.8515 108.759Z" fill="#6CE0C0"/>
<path d="M17.181 108.511C17.0983 108.511 17.015 108.504 16.9325 108.487C16.7833 108.459 16.6858 108.314 16.7148 108.165C16.744 108.015 16.8898 107.919 17.0375 107.947C17.453 108.029 17.9318 107.727 18.038 107.315C18.1443 106.904 17.873 106.409 17.4685 106.278C17.3258 106.232 17.2465 106.079 17.29 105.936C17.3335 105.792 17.4835 105.709 17.6285 105.751C17.892 105.825 18.177 105.811 18.4325 105.712C18.6953 105.609 18.9593 105.353 18.931 105.082C18.921 104.989 18.8343 104.891 18.724 104.846C18.606 104.889 18.489 104.918 18.384 104.944C18.2678 104.972 18.1453 104.922 18.0825 104.82C18.02 104.717 18.0315 104.585 18.111 104.495C18.2503 104.336 18.448 104.261 18.6633 104.273C18.695 104.256 18.7245 104.237 18.7515 104.216C18.789 104.186 18.82 104.148 18.8415 104.109C18.6978 104.102 18.5575 104.058 18.4378 103.977C18.3768 103.935 18.335 103.871 18.3218 103.798C18.3083 103.726 18.325 103.651 18.3673 103.591C18.4778 103.434 18.665 103.355 18.87 103.378C18.963 103.388 19.051 103.419 19.1285 103.465C19.135 103.459 19.1415 103.453 19.1475 103.447C19.2683 103.326 19.3305 103.126 19.3188 102.897C19.284 102.218 18.699 101.684 18.1335 101.167C18.0173 101.061 17.9023 100.956 17.7923 100.85C17.5508 100.618 17.2858 100.33 17.1533 99.9538C16.9988 99.515 17.0815 99.0428 17.3645 98.7505C17.7953 98.3065 18.4065 98.4225 18.945 98.524C19.3848 98.6073 19.801 98.6863 20.0343 98.4633C20.1178 98.3835 20.159 98.2525 20.144 98.113C20.129 97.9735 20.061 97.854 19.962 97.794C19.863 97.7335 19.8123 97.6173 19.8355 97.5035C19.8585 97.3898 19.9508 97.303 20.0658 97.2863C20.4365 97.2325 20.8198 97.1768 21.1473 97.0233C21.4748 96.8695 21.7108 96.617 21.7785 96.3483C21.8295 96.1463 21.8043 95.907 21.7778 95.6533C21.742 95.3148 21.7025 94.9403 21.862 94.6135C21.8443 94.607 21.8253 94.602 21.8055 94.5985C21.7245 94.585 21.6455 94.601 21.5935 94.642C21.4735 94.736 21.301 94.716 21.2065 94.5978C21.1118 94.4788 21.1318 94.3055 21.2508 94.2108C21.4268 94.0713 21.6633 94.015 21.9 94.0563C22.1363 94.0975 22.3398 94.2308 22.4578 94.4218C22.5223 94.526 22.51 94.6608 22.4273 94.7518C22.256 94.9403 22.288 95.244 22.3248 95.596C22.3555 95.8865 22.3873 96.1868 22.312 96.4835C22.2023 96.9168 21.863 97.2953 21.3805 97.522C21.1335 97.638 20.8705 97.7068 20.6133 97.756C20.653 97.849 20.6795 97.9495 20.6908 98.0543C20.724 98.3628 20.6205 98.6648 20.4138 98.862C19.9758 99.2803 19.3733 99.1658 18.8418 99.0655C18.3078 98.9643 17.9685 98.9185 17.759 99.134C17.6013 99.297 17.6015 99.5713 17.672 99.7708C17.7658 100.038 17.978 100.265 18.1733 100.453C18.2798 100.556 18.3915 100.657 18.504 100.76C19.1218 101.325 19.8215 101.964 19.868 102.869C19.8878 103.253 19.767 103.605 19.5368 103.836C19.5005 103.872 19.4618 103.905 19.4208 103.935C19.4395 104.138 19.3673 104.352 19.221 104.524C19.3635 104.659 19.458 104.837 19.4775 105.026C19.5373 105.599 19.0813 106.049 18.632 106.225C18.5425 106.26 18.4503 106.288 18.3568 106.308C18.5798 106.639 18.6715 107.059 18.5698 107.453C18.4118 108.07 17.8075 108.511 17.181 108.511Z" fill="#6CE0C0"/>
<path d="M23.5753 108.323C23.4913 108.323 23.4085 108.285 23.3545 108.213C23.2633 108.091 23.2883 107.918 23.41 107.827C23.9263 107.441 24.195 107.09 24.2558 106.722C24.2913 106.506 24.207 106.25 24.0463 106.085C24.0215 106.06 23.9918 106.033 23.9573 106.01C23.8243 105.997 23.6928 105.971 23.5653 105.93C23.443 105.891 23.3635 105.772 23.3745 105.644C23.3853 105.516 23.4838 105.413 23.6108 105.395C23.786 105.371 23.9568 105.397 24.1153 105.469C24.427 105.476 24.7298 105.385 24.9775 105.207C25.0695 105.14 25.228 105.004 25.2585 104.836C25.2893 104.668 25.173 104.462 24.9883 104.357C24.834 104.269 24.651 104.243 24.488 104.25C24.4018 104.265 24.3143 104.273 24.2263 104.274C24.0645 104.274 23.9608 104.166 23.9488 104.022C23.9365 103.879 24.037 103.75 24.1795 103.727C24.265 103.713 24.3488 103.705 24.4303 103.701C24.7505 103.636 25.0453 103.437 25.2165 103.159C25.3388 102.959 25.3743 102.749 25.3118 102.597C25.2828 102.526 25.2138 102.462 25.1365 102.434C25.1218 102.428 25.1 102.422 25.0758 102.42C25.029 102.435 24.9823 102.447 24.9363 102.458C24.8015 102.487 24.6643 102.415 24.6163 102.284C24.5683 102.154 24.6245 102.009 24.7475 101.945C24.8188 101.908 24.895 101.884 24.9743 101.874C25.271 101.771 25.5855 101.564 25.666 101.248C25.7055 101.093 25.6433 100.894 25.514 100.765C25.51 100.76 25.5055 100.756 25.5005 100.751C25.345 100.731 25.2028 100.696 25.082 100.658C24.9643 100.622 24.8853 100.511 24.8885 100.388C24.892 100.264 24.977 100.158 25.0965 100.128C25.3023 100.076 25.514 100.109 25.701 100.218C25.8708 100.228 26.053 100.21 26.227 100.142C26.5183 100.027 26.7298 99.762 26.742 99.4985C26.748 99.3685 26.6908 99.2243 26.5925 99.1218C26.5455 99.0725 26.4473 98.9905 26.317 98.9905C26.3165 98.9903 26.3155 98.9903 26.315 98.9905C26.1635 98.9905 26.0405 98.8683 26.0398 98.7168C26.039 98.5648 26.161 98.4408 26.313 98.4398C26.6333 98.4373 26.9643 98.4348 27.243 98.3223C27.4605 98.2345 27.6865 98.0378 27.7013 97.795C27.7168 97.5355 27.4808 97.2973 27.2395 97.196C26.934 97.0678 26.5713 97.0728 26.222 97.078C26.0803 97.0623 25.945 96.9583 25.943 96.8065C25.941 96.6548 26.0625 96.5295 26.2145 96.5275C26.6013 96.5213 27.0413 96.5158 27.4528 96.6885C27.9505 96.8975 28.2785 97.3663 28.2508 97.8283C28.2253 98.2528 27.9103 98.6473 27.449 98.8333C27.3453 98.875 27.2398 98.9055 27.1335 98.928C27.244 99.109 27.3015 99.32 27.2923 99.5238C27.2703 100.004 26.9235 100.459 26.4295 100.654C26.3348 100.691 26.2395 100.718 26.1448 100.737C26.231 100.945 26.2535 101.174 26.1995 101.384C26.1168 101.708 25.91 101.957 25.6585 102.137C25.7275 102.211 25.7835 102.296 25.8213 102.388C25.9525 102.707 25.9033 103.093 25.686 103.447C25.5805 103.618 25.4438 103.768 25.2853 103.893C25.6603 104.118 25.8715 104.543 25.8005 104.935C25.7515 105.204 25.5785 105.452 25.2995 105.653C25.1003 105.797 24.8728 105.9 24.634 105.959C24.7823 106.218 24.8453 106.529 24.7985 106.812C24.6863 107.491 24.1405 107.968 23.74 108.268C23.6905 108.305 23.6325 108.323 23.5753 108.323Z" fill="#6CE0C0"/>
<path d="M30.186 108.851C30.4265 109.245 30.9212 109.58 31.3997 109.455C31.6902 109.379 31.9125 109.134 32.0365 108.86C32.2382 108.412 32.0165 108.099 32.682 108.289C33.2385 108.447 34.3637 108.333 34.5177 107.617C34.5497 107.468 34.5062 107.312 34.4297 107.18C34.0885 106.592 33.3758 106.306 32.777 106.067C32.1113 105.802 31.2425 105.52 30.5847 105.962C30.0795 106.301 29.9112 106.969 29.903 107.578C29.897 108 29.9523 108.434 30.158 108.803C30.167 108.819 30.1763 108.835 30.186 108.851Z" fill="#6CE0C0"/>
<path d="M29.6312 105.35C29.8475 105.493 30.069 105.638 30.3202 105.702C30.4505 105.735 30.61 105.736 30.6955 105.632C31.0512 105.202 30.7207 104.333 30.1745 104.258C29.5805 104.177 29.0515 104.967 29.6312 105.35Z" fill="#6CE0C0"/>
<path d="M31.982 104.487C31.7075 104.477 31.3045 104.622 31.4133 104.973C31.4423 105.066 31.5023 105.147 31.5673 105.219C31.6998 105.368 31.9068 105.544 32.122 105.47C32.2378 105.431 32.3155 105.324 32.3835 105.222C32.4355 105.144 32.4867 105.064 32.5122 104.974C32.5377 104.883 32.5345 104.781 32.4823 104.703C32.392 104.569 32.1885 104.494 31.982 104.487Z" fill="#6CE0C0"/>
<path d="M28.7372 106.388C28.6327 106.642 28.6295 107.07 28.9962 107.09C29.0937 107.095 29.19 107.066 29.281 107.031C29.4665 106.958 29.7035 106.825 29.709 106.597C29.7117 106.475 29.6387 106.365 29.5667 106.266C29.5115 106.19 29.4537 106.114 29.3782 106.059C29.3025 106.004 29.205 105.971 29.1138 105.993C28.9563 106.031 28.816 106.196 28.7372 106.388Z" fill="#6CE0C0"/>
<path d="M63.2168 115.152C63.049 115.242 62.8852 115.328 62.7217 115.417C61.5755 116.029 60.1195 116.87 59.1605 117.443C55.9132 110.712 51.8142 108.753 51.0617 108.581C51.128 108.546 51.657 108.255 51.7235 108.22C52.3745 107.881 53.0022 107.573 53.6065 107.296C53.9652 107.136 54.3122 106.984 54.6475 106.844C59.965 107.858 62.1055 112.914 63.2168 115.152Z" fill="#AE312F"/>
<path d="M63.474 115.016C63.3882 115.063 63.3025 115.109 63.2168 115.152C61.9418 115.823 60.788 116.474 59.739 117.098C56.3627 110.065 52.8148 108.536 51.7233 108.22C52.3743 107.881 53.002 107.573 53.6063 107.296C54.082 107.082 54.5383 106.887 54.9748 106.708C60.1795 107.83 62.3355 112.723 63.474 115.016Z" fill="#FF5555"/>
<path d="M61.8135 111.763C61.4475 112.446 60.6538 112.895 59.9075 113.009C58.8618 113.17 57.6 112.878 56.7052 112.32C55.4717 111.551 54.8975 110.834 54.7178 109.928C54.5978 109.324 54.9003 108.959 54.9723 108.562C55.78 106.536 57.7348 106.431 59.6645 107.387C61.598 108.339 62.941 109.659 61.8135 111.763Z" fill="#AE312F"/>
<path d="M62.09 110.692C62.0628 110.754 62.0278 110.817 61.9888 110.871C61.3885 111.764 59.6535 111.881 57.9575 111.109C56.2655 110.341 55.2167 108.957 55.4895 107.92C55.5052 107.85 55.5285 107.783 55.5595 107.721C56.039 106.668 57.887 106.481 59.6883 107.304C61.4935 108.123 62.5655 109.639 62.09 110.692Z" fill="#AE312F"/>
<path d="M61.9885 110.871C61.3883 111.764 59.6533 111.881 57.9573 111.109C56.2653 110.341 55.2165 108.957 55.4893 107.92C56.0898 107.027 57.8245 106.91 59.5168 107.682C61.2128 108.45 62.2615 109.834 61.9885 110.871Z" fill="white"/>
<path d="M56.5935 107.799C57.0515 107.976 57.4633 108.217 57.8665 108.471C58.2613 108.739 58.6483 109.009 59.005 109.35L58.5795 109.657C58.3155 109.003 58.0842 108.335 57.9725 107.614C58.429 108.183 58.766 108.805 59.07 109.441L59.598 110.545L58.6445 109.747C57.9425 109.16 57.1992 108.562 56.5935 107.799Z" fill="#AE312F"/>
<path d="M16.665 111.658C16.4633 112.824 16.5515 114.136 16.9433 115.25C17.871 117.888 20.9622 119.15 23.567 119.19C25.3322 119.216 27.0747 118.474 28.3045 117.212C29.1602 116.334 29.943 115.139 30.0015 113.878C30.0645 112.516 29.1005 111.585 28.012 110.918C25.3872 109.311 22.0987 109.059 19.2337 110.152C18.7545 110.335 16.7663 111.073 16.665 111.658Z" fill="#FF9C3D"/>
<path d="M20.3455 114.307C20.8378 114.015 21.3092 113.718 21.765 113.409C22.2152 113.093 22.6567 112.772 23.0455 112.4C23.439 112.033 23.7815 111.625 24.0737 111.177C24.3505 110.718 24.5348 110.213 24.6828 109.654C24.7658 110.219 24.6902 110.825 24.4557 111.374C24.2135 111.918 23.8445 112.396 23.4207 112.803C22.9877 113.201 22.4985 113.525 21.9802 113.779C21.4622 114.031 20.9163 114.229 20.3455 114.307Z" fill="#AE312F"/>
<path d="M24 116.192L25.4748 115.255C25.951 114.934 26.427 114.618 26.8615 114.256C27.3005 113.902 27.72 113.525 28.0858 113.1C28.4455 112.669 28.7517 112.2 28.9998 111.656C28.9775 112.252 28.7557 112.841 28.4315 113.355C28.106 113.873 27.6672 114.301 27.2057 114.685C26.7357 115.062 26.222 115.373 25.6847 115.628C25.1472 115.881 24.5872 116.089 24 116.192Z" fill="#AE312F"/>
</g>
<defs>
<clipPath id="clip0_25_8">
<rect width="128" height="128" fill="white"/>
</clipPath>
</defs>
</svg>
