<svg width="124" height="125" viewBox="0 0 124 125" fill="none" xmlns="http://www.w3.org/2000/svg">
<g clip-path="url(#clip0_25_238)">
<path d="M123.955 99.1536C123.886 100.355 123.696 101.56 123.367 102.72C122.811 104.721 121.846 106.593 120.399 108.111C117.99 110.635 114.587 112.164 111.162 112.588C110.336 112.691 109.499 112.731 108.666 112.713C106.937 112.683 105.212 112.392 103.556 111.869C103.395 111.818 103.231 111.766 103.07 111.707C102.957 111.67 102.847 111.63 102.734 111.589C99.5575 110.414 97.1743 107.757 93.9833 106.611C93.7566 106.53 93.5302 106.46 93.2998 106.394C90.2003 105.531 86.856 106.055 83.793 106.814L85.8179 101.571C85.9129 101.324 87.7441 101.243 87.9635 101.22C89.0197 101.106 90.087 101.073 91.1507 101.128C91.8562 101.165 92.5614 101.239 93.256 101.361C94.8203 101.63 96.2899 102.208 97.6861 102.941C99.0092 103.641 100.27 104.481 101.487 105.34C102.767 106.243 103.936 106.924 105.468 107.33C107.014 107.742 108.63 107.823 110.216 107.683C111.484 107.573 112.687 107.307 113.769 106.843H113.772C115.154 106.254 116.327 105.333 117.153 103.973C117.351 103.652 117.526 103.31 117.683 102.937C118.739 100.428 118.758 97.5432 118.447 94.8755C118.378 94.2749 118.29 93.6743 118.18 93.0774C118.052 92.3735 117.895 91.6736 117.709 90.9844C117.449 90.0227 117.266 88.969 117.299 87.9741C117.329 87.0493 117.595 86.0986 118.217 85.417C118.9 84.6653 120.114 84.2527 120.965 84.9197C121.791 85.5644 122.098 86.6956 122.395 87.6499C122.552 88.1509 122.698 88.6594 122.837 89.168C123.465 91.5115 123.868 93.9175 123.97 96.3381C124.014 97.2744 124.01 98.2139 123.955 99.1536Z" fill="#FF9C3D"/>
<path opacity="0.2" d="M123.955 99.1536C123.886 100.355 123.696 101.56 123.367 102.72C122.811 104.721 121.846 106.593 120.399 108.111C117.99 110.635 114.587 112.164 111.162 112.588C110.336 112.691 109.499 112.731 108.666 112.713C106.937 112.683 105.212 112.392 103.556 111.869C103.395 111.818 103.231 111.766 103.07 111.707C102.957 111.67 102.847 111.63 102.734 111.589C99.5575 110.414 97.1743 107.757 93.9833 106.611C93.7566 106.53 93.5302 106.46 93.2998 106.394C90.2003 105.531 86.856 106.055 83.793 106.814L85.8179 101.571C85.9129 101.324 87.7441 101.243 87.9635 101.22C89.0197 101.106 90.087 101.073 91.1507 101.128C91.8562 101.165 92.5614 101.239 93.256 101.361C94.8203 101.63 96.2899 102.208 97.6861 102.941C99.0092 103.641 100.27 104.481 101.487 105.34C102.767 106.243 103.936 106.924 105.468 107.33C107.014 107.742 108.63 107.823 110.216 107.683C111.484 107.573 112.687 107.307 113.769 106.843H113.772C115.154 106.254 116.327 105.333 117.153 103.973C117.351 103.652 117.526 103.31 117.683 102.937C118.739 100.428 118.758 97.5432 118.447 94.8755C118.378 94.2749 118.29 93.6743 118.18 93.0774C118.052 92.3735 117.895 91.6736 117.709 90.9844C117.449 90.0227 117.266 88.969 117.299 87.9741C117.329 87.0493 117.595 86.0986 118.217 85.417C118.9 84.6653 120.114 84.2527 120.965 84.9197C121.791 85.5644 122.098 86.6956 122.395 87.6499C122.552 88.1509 122.698 88.6594 122.837 89.168C123.465 91.5115 123.868 93.9175 123.97 96.3381C124.014 97.2744 124.01 98.2139 123.955 99.1536Z" fill="#AE312F"/>
<path d="M120.443 87.3149C120.596 88.9363 119.737 92.2817 118.18 93.0776C118.052 92.3738 117.895 91.6738 117.709 90.9846C117.449 90.023 117.266 88.9692 117.299 87.9744C117.329 87.0496 117.595 86.0989 118.217 85.4172C118.9 84.6655 120.114 84.2529 120.965 84.9199C121.791 85.5647 122.098 86.6958 122.395 87.6502C122.552 88.1511 122.698 88.6597 122.837 89.1682C121.229 88.9988 120.443 87.3149 120.443 87.3149Z" fill="#AE312F"/>
<path d="M123.955 99.1536C123.886 100.355 123.696 101.56 123.367 102.72C122.954 102.366 122.603 101.862 122.384 101.162C121.616 98.7297 123.093 97.0718 123.97 96.3386C124.014 97.2744 124.01 98.2139 123.955 99.1536Z" fill="#AE312F"/>
<path d="M116.821 107.536C115.808 107.916 114.609 107.374 113.772 106.843C115.154 106.254 116.327 105.333 117.153 103.973C117.563 105.108 118.06 107.072 116.821 107.536Z" fill="#AE312F"/>
<path d="M108.666 112.713C106.937 112.683 105.212 112.392 103.556 111.869C103.395 111.817 103.231 111.766 103.07 111.707C104.002 110.922 105.402 109.971 106.656 110.034C107.818 110.089 108.388 111.471 108.666 112.713Z" fill="#AE312F"/>
<path d="M97.6861 102.941C96.9038 103.663 95.7597 104.334 94.3672 104.017C92.6273 103.619 91.6331 102.127 91.1507 101.128C91.8562 101.165 92.5614 101.239 93.256 101.361C94.8205 101.629 96.2899 102.208 97.6861 102.941Z" fill="#AE312F"/>
<path d="M46.1476 12.9556C36.3439 16.446 27.3398 24.8264 22.8589 34.2378C12.1251 56.781 30.4333 80.5142 50.0272 90.2588C55.3607 92.9111 61.0589 94.8091 66.9011 95.9233C75.1145 97.4898 83.4024 99.0435 91.8017 98.481C106.104 97.5232 120.455 88.6763 120.156 72.676C120.065 67.769 118.497 62.9065 115.634 58.9358C112.822 55.0349 109.022 51.9893 106.185 48.1052C102.407 42.9324 101.137 36.2539 99.1615 30.2893C95.5313 19.3286 86.0601 12.9148 75.0788 10.7368C65.6631 8.86939 55.1853 9.73804 46.1476 12.9556Z" fill="#9BEFE6"/>
<path d="M49.9732 30.8247C49.9086 30.7539 49.841 30.6858 49.7792 30.6206C47.1999 27.9668 43.6197 26.3054 39.6594 26.2686C39.6115 26.2656 39.5664 26.2656 39.5187 26.2656C39.4708 26.2656 39.4259 26.2656 39.378 26.2686C36.2673 26.2969 33.3872 27.3318 31.0472 29.0642C30.9714 29.1182 30.8925 29.1748 30.8193 29.2344C28.8436 30.8438 27.2529 32.7947 26.266 35.1719C25.1289 37.9104 24.863 40.9949 25.5023 43.8918C25.9741 46.0293 26.9366 48.0469 28.2938 49.7559C28.35 49.8325 28.412 49.906 28.4711 49.977C30.8421 52.855 34.2986 54.7971 38.1998 55.1543C38.2925 55.1655 38.3853 55.1711 38.4809 55.177C38.8241 55.2053 39.17 55.2168 39.5187 55.2168C43.1103 55.2168 46.3983 53.8813 48.9185 51.6785C48.9887 51.616 49.0592 51.5537 49.1294 51.4885C51.8746 48.9934 53.6634 45.4438 53.8603 41.48C53.8659 41.3865 53.8688 41.29 53.8715 41.1965C53.877 41.0464 53.8799 40.8931 53.8799 40.7429C53.8799 36.9062 52.3919 33.4189 49.9732 30.8247ZM49.5738 30.8191L44.6969 35.5369C43.4031 34.2297 41.6255 33.4075 39.6597 33.3706V26.5518C43.541 26.5889 47.0481 28.2163 49.5738 30.8191ZM46.5504 40.8928C46.5504 40.9863 46.5448 41.0828 46.5392 41.1763C46.4266 43.0618 45.5773 44.7515 44.2808 45.9595C44.2133 46.022 44.143 46.0842 44.0699 46.1438C42.8408 47.1958 41.2516 47.8337 39.5192 47.8337C39.3729 47.8337 39.2266 47.8281 39.0833 47.8196C38.9876 47.814 38.8948 47.8054 38.8021 47.7969C36.9428 47.6069 35.2976 46.6826 34.1555 45.3215C34.0937 45.2507 34.0346 45.177 33.9755 45.1003C32.3228 42.958 32.0259 39.9587 33.2475 37.5378C33.7154 36.6104 34.3877 35.7908 35.202 35.1511C35.2751 35.0889 35.3509 35.0322 35.4296 34.981C36.5463 34.1702 37.9074 33.6824 39.3785 33.6541C39.4235 33.6514 39.4712 33.6514 39.5192 33.6514C39.5669 33.6514 39.6149 33.6514 39.6599 33.6541C41.5444 33.6909 43.2515 34.4792 44.4947 35.7322C44.5594 35.7974 44.624 35.8655 44.6889 35.9363C45.8478 37.2009 46.5538 38.8877 46.5538 40.7422C46.5533 40.7935 46.5533 40.8418 46.5504 40.8928ZM39.3782 26.552V33.3708C37.8454 33.3992 36.425 33.9067 35.2606 34.7544L31.216 29.2908C33.5083 27.5925 36.3293 26.5803 39.3782 26.552ZM28.6905 49.7983L33.936 45.5C35.1286 46.9233 36.8442 47.8845 38.7793 48.0801L38.2225 54.8706C34.3998 54.519 31.0136 52.6194 28.6905 49.7983ZM39.5189 54.9331C39.1787 54.9331 38.8384 54.9219 38.5037 54.8933L39.0578 48.1028C39.2097 48.1113 39.3644 48.1169 39.5192 48.1169C41.3249 48.1169 42.9786 47.4536 44.2557 46.3562L48.7335 51.4653C46.2634 53.626 43.0401 54.9331 39.5189 54.9331ZM48.9439 51.2783L44.4664 46.1719C45.8192 44.9158 46.7051 43.155 46.8207 41.1875L53.5794 41.4683C53.3849 45.3525 51.6356 48.8286 48.9439 51.2783ZM46.8316 40.9041C46.8345 40.8501 46.8345 40.7964 46.8345 40.7424C46.8345 38.8145 46.0946 37.0566 44.8909 35.741L49.7678 31.0229C52.1447 33.5635 53.5985 36.9856 53.5985 40.7422C53.5985 40.8896 53.5959 41.0371 53.59 41.1846L46.8316 40.9041Z" fill="#6CE0C0"/>
<path d="M43.2983 46.4744C43.2983 46.4744 29.2873 53.8315 24.9666 62.9626C20.646 72.0935 39.5202 63.4758 39.5202 63.4758L43.2983 46.4744Z" fill="#FF9C3D"/>
<path opacity="0.2" d="M43.2983 46.4744C43.2983 46.4744 29.2873 53.8315 24.9666 62.9626C20.646 72.0935 39.5202 63.4758 39.5202 63.4758L43.2983 46.4744Z" fill="#AE312F"/>
<path d="M70.1806 114.037C73.9442 113.561 77.1975 112.148 79.9786 110.054C81.1437 109.177 82.2227 108.181 83.2321 107.083C83.2348 107.08 83.2745 107.058 83.3348 107.024C83.5087 106.927 83.8545 106.725 83.986 106.569C84.0182 106.531 86.9097 102.25 88.1018 99.8953C88.1286 99.8411 88.1606 99.7815 88.1875 99.7275C89.1538 97.8118 89.9807 95.7712 90.6893 93.6553C90.7428 93.509 90.7913 93.363 90.8395 93.2168C91.489 91.2361 92.0368 89.1902 92.4715 87.1121C92.4984 87.0039 92.52 86.9011 92.5413 86.7927C92.8687 85.2231 93.1427 83.6431 93.3572 82.0571C93.3894 81.8623 93.411 81.6728 93.4376 81.478C93.7973 78.7612 93.9906 76.0498 94.0497 73.4248C94.055 73.2571 94.0603 73.0894 94.0603 72.9216C94.0819 71.3738 94.0603 69.8638 93.9906 68.3972C93.9799 68.2456 93.969 68.0886 93.9637 67.9373C93.953 67.7642 93.9421 67.5962 93.9315 67.4285C93.8402 66.0647 93.6791 64.717 93.4483 63.3911C93.4214 63.1963 93.3892 63.0068 93.3517 62.8174C93.008 60.9287 92.5302 59.083 91.9181 57.3079C91.8431 57.0913 91.7677 56.875 91.6873 56.6584C91.2204 55.3811 90.6782 54.1418 90.0552 52.9565C90.0499 52.9402 90.0446 52.9241 90.0337 52.9077C89.6256 52.1067 89.1802 51.3328 88.7021 50.5859C88.7021 50.5806 88.6968 50.5752 88.6915 50.5698C88.1708 49.7527 87.6016 48.9624 87.0003 48.2156C86.9412 48.1453 86.8821 48.0693 86.823 47.999C85.7063 46.6406 84.4663 45.4011 83.0865 44.3135C82.9378 44.1948 82.7891 44.0737 82.6407 43.9556C84.1345 42.459 85.1766 40.7898 85.823 38.9944C86.3287 37.5935 86.598 36.1196 86.6465 34.5847C86.6615 34.1484 86.6615 33.7058 86.6433 33.2571C86.6312 33.0435 86.6191 32.8267 86.6009 32.613L86.5978 32.5886C86.4978 31.2915 86.2587 29.9609 85.8954 28.6123C85.7334 28.0105 85.5559 27.4092 85.3173 26.833C84.957 25.9541 84.4757 25.1333 83.8792 24.3765C83.8792 24.3765 81.0112 19.7695 79.9693 17.5667C78.9093 15.3335 78.1001 12.3965 76.7243 12.4558C75.4806 12.511 72.9575 15.4666 72.6722 18.5752C72.6696 18.6025 72.6698 18.6301 72.6674 18.6577C71.8943 18.5124 71.0915 18.386 70.253 18.2822C70.144 18.27 70.0319 18.2546 69.92 18.2456C68.8665 18.1204 67.7677 18.0288 66.6113 17.9709C66.1421 17.9495 65.6575 17.9314 65.1702 17.9189C63.0632 17.8672 60.7958 17.9189 58.38 18.0808C58.3013 18.0837 58.2226 18.0898 58.1499 18.0959C57.8775 18.1143 57.6111 18.1357 57.3536 18.1602C56.6457 18.2244 55.9681 18.3035 55.3101 18.397L55.2115 18.3179C54.7966 17.9717 54.259 17.4553 54.195 17.3975C53.366 16.6147 52.8034 15.5269 52.0592 14.6694C50.9773 13.4209 49.4157 12.5916 47.7119 13.1106C47.6049 13.1445 47.5104 13.1985 47.423 13.2808C47.199 13.4868 47.0311 13.8418 46.9175 14.2988C46.5068 15.9377 46.7967 18.8435 47.571 20.5425C47.5857 20.5769 47.6041 20.6143 47.6221 20.6482C44.4836 22.2166 42.486 24.3618 41.2237 26.7417C41.136 26.9065 41.0542 27.0774 40.9726 27.2451C40.6485 27.9197 40.3792 28.6152 40.152 29.3171C39.9745 29.8657 39.8302 30.4233 39.7071 30.9866C39.5226 31.832 39.3923 32.6802 39.2986 33.5256C39.2894 33.6204 39.2804 33.7148 39.2743 33.8064C39.2622 33.904 39.2562 33.9988 39.2501 34.0933C39.2138 34.542 39.1985 34.9814 39.1985 35.4055V35.4695C39.1985 36.0034 39.2228 36.5193 39.268 37.0198C39.2894 37.2485 39.3165 37.4744 39.3438 37.6943C39.8251 41.3899 41.4053 44.0359 42.3923 45.3755C42.8766 46.0286 43.2157 46.3735 43.2157 46.3735C43.2157 46.3735 43.26 46.4294 43.2973 46.4746C22.3202 66.0078 36.5388 96.134 36.5388 96.134L46.0844 95.8472L62.5665 103.516L66.8399 113.81C66.8411 113.81 67.5047 114.294 70.1806 114.037Z" fill="#FF9C3D"/>
<path d="M74.5298 19.0732C73.3046 18.7183 72.393 18.6055 72.3453 18.5964C72.6306 15.488 75.1726 12.574 76.4165 12.5188C76.6688 13.2048 76.9498 13.9849 76.6264 15.8594C76.5933 16.0437 76.5739 16.2227 76.5613 16.3975C76.361 18.9873 75.6962 19.4133 74.5298 19.0732Z" fill="#AE312F"/>
<path d="M48.811 20.094C48.3455 20.2554 47.9083 20.4136 47.5717 20.542C46.7974 18.843 46.5075 15.9373 46.9183 14.2983C47.0319 13.8413 47.1997 13.4863 47.4237 13.2803C47.4237 13.2803 48.0854 13.5261 48.6969 15.0198C48.9192 15.5649 49.1173 16.0874 49.343 16.5671C49.8785 17.7014 50.3268 19.5601 48.811 20.094Z" fill="#AE312F"/>
<path opacity="0.48" d="M68.6485 45.7935C67.696 46.5168 67.6066 47.9224 68.7609 48.5781C70.3068 49.4563 73.1426 49.1597 74.4298 47.9026C75.5165 46.8413 74.7429 45.0295 73.4979 44.7542C72.4456 44.5215 71.3455 44.6643 70.3393 44.9951C69.8711 45.1492 69.1823 45.3879 68.6485 45.7935Z" fill="#EA4949"/>
<path opacity="0.48" d="M49.5995 43.1314C50.5622 43.8882 50.63 45.3284 49.4375 45.98C47.8405 46.8523 44.9427 46.5 43.6463 45.1914C42.5516 44.0867 43.3741 42.2454 44.6533 41.9849C45.7344 41.7647 46.858 41.9297 47.8824 42.2856C48.3588 42.4509 49.0599 42.7073 49.5995 43.1314Z" fill="#EA4949"/>
<path d="M65.171 17.9192C63.7786 19.2368 62.7714 21.2107 61.9678 22.6997C61.5256 23.5154 61.1255 24.3555 60.7554 25.2063C60.4762 25.8447 59.9538 26.489 59.2265 26.6152C58.3129 26.7734 57.4723 26.2085 56.9845 25.4663C56.372 24.5395 56.3137 23.4126 56.4401 22.3367C56.6205 20.8145 57.2476 19.3491 58.1492 18.0947C58.2238 18.0898 58.302 18.0845 58.3803 18.0791C60.7978 17.9194 63.0627 17.8669 65.171 17.9192Z" fill="#AE312F"/>
<path d="M42.1816 34.6589C41.2041 34.8533 40.1716 34.5557 39.2496 34.094C39.2569 33.9993 39.2642 33.9045 39.2746 33.8059C39.2823 33.7148 39.2896 33.6201 39.3005 33.5249C39.392 32.6804 39.5226 31.8318 39.7071 30.9875C41.6589 32.6497 44.0135 34.2913 42.1816 34.6589Z" fill="#AE312F"/>
<path d="M41.9016 37.2397C41.2668 37.6479 40.2809 37.7349 39.3451 37.6934C39.3167 37.4729 39.2915 37.2483 39.2695 37.0198C39.2242 36.5195 39.1983 36.0024 39.1995 35.468C39.2005 35.4463 39.1985 35.4285 39.1997 35.4067C41.1365 35.8792 43.0205 36.5203 41.9016 37.2397Z" fill="#AE312F"/>
<path d="M41.803 30.1963C41.2554 30.136 40.6725 29.8232 40.1254 29.4163C40.1324 29.3831 40.1431 29.3491 40.1535 29.3154C40.3794 28.6145 40.6488 27.9197 40.9743 27.2434C42.1309 28.7764 43.0723 30.3369 41.803 30.1963Z" fill="#AE312F"/>
<path d="M69.9205 18.2446C69.555 18.6582 69.1448 19.1201 68.8508 19.4678C67.9212 20.5701 66.9576 22.0989 66.2221 22.28C64.6854 22.6609 64.0259 21.1548 64.9951 19.5784C65.4376 18.8601 66.0625 18.334 66.6129 17.9717L66.6166 17.9712C67.7689 18.0276 68.868 18.1191 69.9205 18.2446Z" fill="#AE312F"/>
<path d="M57.3544 18.1602C56.5774 19.2163 55.7542 20.978 54.9456 21.2725C53.7274 21.7144 52.7513 20.7715 53.2636 20.0706C53.7603 19.3894 54.3413 18.8538 54.8492 18.4639C55.6448 18.3406 56.4786 18.2383 57.3544 18.1602Z" fill="#AE312F"/>
<path d="M74.3395 43.354C72.7485 44.5281 70.2102 44.9834 68.3412 44.3191C67.9421 44.177 67.5686 43.9775 67.231 43.7126C65.7689 42.5542 64.8973 40.4656 64.8319 38.6064C64.8271 38.5637 64.8258 38.5205 64.8246 38.4773C64.7932 36.5998 65.8057 34.8669 67.4003 33.9163C69.2671 32.8047 72.0857 32.3569 73.8919 33.8047C74.6042 34.377 75.1784 35.1853 75.5751 36.104L75.5787 36.1038C76.6446 38.5496 76.4695 41.7793 74.3395 43.354Z" fill="white"/>
<path d="M74.3395 43.354C73.4395 44.0166 72.361 44.3965 71.2649 44.5752C70.7146 44.6614 70.1535 44.6863 69.5957 44.6404C69.0385 44.5972 68.4805 44.4829 67.9566 44.26C67.4313 44.0386 66.9627 43.6853 66.5689 43.2754C66.171 42.8657 65.8331 42.3989 65.5524 41.9006C64.9937 40.9016 64.6568 39.7764 64.5783 38.6157L64.5798 38.6353C64.4933 37.2488 64.9583 35.8923 65.8394 34.854C66.2761 34.3389 66.804 33.8923 67.3962 33.5749C67.9794 33.2517 68.5996 33.0056 69.2419 32.8411C70.5175 32.5229 71.9307 32.5178 73.1552 33.106C73.7679 33.3933 74.2869 33.8477 74.6989 34.3591C75.1164 34.8721 75.44 35.4509 75.686 36.0559L75.5623 35.9836L75.5656 35.9834L75.657 35.9756L75.6894 36.0554C75.9418 36.6768 76.1108 37.3286 76.197 37.9893C76.2806 38.6501 76.2859 39.3203 76.1982 39.9778C76.1094 40.6348 75.9144 41.2773 75.6102 41.8635C75.3048 42.4482 74.8713 42.9673 74.3395 43.354ZM74.3395 43.354C74.8674 42.9617 75.2944 42.4395 75.5925 41.854C75.8953 41.2688 76.0616 40.6208 76.1326 39.9692C76.2045 39.3164 76.1721 38.6545 76.0544 38.0115C75.9381 37.3682 75.7415 36.741 75.468 36.1531L75.5916 36.2251L75.5882 36.2256L75.5034 36.2371L75.4644 36.1531C75.1982 35.5806 74.8604 35.0425 74.4438 34.5801C74.0285 34.115 73.5381 33.7307 72.9774 33.5017C71.8527 33.0381 70.5642 33.0752 69.3867 33.4033C68.2024 33.7314 67.0765 34.3208 66.2906 35.2432C66.0942 35.4734 65.92 35.7222 65.7646 35.9822C65.6185 36.2473 65.4817 36.5188 65.379 36.8047C65.2778 37.0903 65.1923 37.3838 65.1475 37.6851C65.1165 37.8345 65.1104 37.9871 65.092 38.1384C65.0896 38.2844 65.0755 38.4548 65.084 38.5776L65.0855 38.5974C65.1051 39.6731 65.3696 40.761 65.8556 41.7373C66.0998 42.2249 66.3996 42.6855 66.7597 43.0945C67.1184 43.5056 67.5403 43.8582 68.0314 44.0947C69.0176 44.5688 70.1653 44.666 71.2581 44.5273C72.3552 44.3894 73.4322 44.0012 74.3395 43.354Z" fill="#AE312F"/>
<path d="M70.5013 43.0715C71.9866 43.1206 73.5557 42.3723 74.2964 41.0396C75.4765 38.9163 74.5364 35.9163 72.3436 34.9231C71.1663 34.3899 69.6427 34.4192 68.5069 35.052C65.4713 36.7432 66.2719 41.6101 69.3092 42.8296C69.6834 42.98 70.0879 43.0579 70.5013 43.0715Z" fill="#AE312F"/>
<path opacity="0.21" d="M75.5753 36.1045C68.7982 33.7646 65.2567 38.0493 64.8321 38.6067C64.8273 38.564 64.8261 38.5208 64.8249 38.4775C64.7934 36.6001 65.806 34.8672 67.4005 33.9165C69.2673 32.8049 72.0859 32.3572 73.8921 33.8049C74.6044 34.3774 75.1786 35.1855 75.5753 36.1045Z" fill="#AE312F"/>
<path d="M52.2239 39.1658C51.5753 40.7598 49.772 41.543 48.1742 41.6672C47.9539 41.6814 47.7349 41.6775 47.5208 41.6514C44.9289 41.3438 43.0573 38.0659 43.7233 35.5422C43.7873 35.2822 43.8841 35.0293 44.0077 34.7878C45.0963 32.678 48.3619 31.5549 50.4692 32.7158C50.9776 33.001 51.3421 33.5044 51.6169 34.0076C51.8058 34.3506 51.9747 34.7393 52.1144 35.1531C52.5603 36.4487 52.707 37.981 52.2239 39.1658Z" fill="white"/>
<path d="M52.2239 39.1658C51.9945 39.7285 51.6094 40.2202 51.1335 40.5947C50.6593 40.9709 50.1142 41.2571 49.5378 41.4456C49.25 41.5415 48.956 41.6216 48.6567 41.676C48.3588 41.7327 48.0527 41.7739 47.7424 41.7656C47.1248 41.7368 46.509 41.5642 45.9674 41.2502C44.8756 40.6265 44.0755 39.5642 43.6349 38.3816C43.4216 37.7856 43.2932 37.1501 43.2988 36.5027L43.3339 36.0181C43.3559 35.8577 43.3923 35.6992 43.4216 35.5395C43.4867 35.2219 43.6049 34.9053 43.757 34.6169C44.391 33.4504 45.5143 32.6792 46.7066 32.3C47.8991 31.9282 49.2493 31.9185 50.3779 32.5032C50.9671 32.7805 51.3605 33.3267 51.6455 33.8611C51.9364 34.4045 52.1362 34.9871 52.2905 35.5762C52.4433 36.1663 52.5312 36.7739 52.5339 37.3821C52.5385 37.9893 52.4552 38.6038 52.2239 39.1658ZM52.2239 39.1658C52.6651 38.0237 52.5518 36.7458 52.2084 35.6001C52.0321 35.0232 51.7908 34.4663 51.4794 33.9578C51.1684 33.4548 50.7773 32.9861 50.2447 32.7793C49.1825 32.3076 47.9456 32.4048 46.8744 32.7993C46.3331 32.9941 45.8243 33.2771 45.3777 33.6296C44.9306 33.9802 44.548 34.4121 44.2915 34.9026C44.1588 35.1479 44.058 35.404 43.9984 35.6797C43.9723 35.8184 43.9379 35.9556 43.9166 36.095L43.8805 36.5176C43.8638 37.0854 43.95 37.6624 44.1266 38.2124C44.4707 39.3098 45.1442 40.3518 46.1236 40.991C46.6085 41.314 47.1699 41.5102 47.7521 41.5754C48.0437 41.6018 48.3404 41.5808 48.6363 41.5435C48.932 41.5076 49.2268 41.4519 49.5131 41.3647C50.0863 41.198 50.6409 40.9429 51.1197 40.5767C51.5973 40.2102 51.9872 39.7256 52.2239 39.1658Z" fill="#AE312F"/>
<path d="M46.5131 39.6179C46.6238 39.6955 47.6916 40.7991 49.756 39.9517C51.8204 39.1042 51.345 36.3694 50.9434 35.4968C50.5419 34.6243 49.2651 32.865 46.9008 33.7466C44.5366 34.6282 44.6088 38.2812 46.5131 39.6179Z" fill="#AE312F"/>
<path opacity="0.21" d="M52.1141 35.1528C49.1093 33.7478 45.5392 34.8081 43.7233 35.5422C43.7873 35.2822 43.8841 35.0293 44.0076 34.7878C45.0963 32.678 48.3619 31.5549 50.4692 32.7158C50.9776 33.001 51.3421 33.5044 51.6169 34.0076C51.8056 34.3503 51.9746 34.739 52.1141 35.1528Z" fill="#AE312F"/>
<path d="M85.3181 26.8328C79.9262 30.4521 77.7434 26.7473 80.0716 25.8472C81.3733 25.3435 82.5629 24.5471 83.4653 23.8818C83.6106 24.0435 83.7499 24.2085 83.88 24.3762C84.4765 25.1331 84.9577 25.9539 85.3181 26.8328Z" fill="#AE312F"/>
<path d="M86.5997 32.5872L86.6026 32.6121C86.6016 32.7312 86.6075 32.8462 86.6096 32.9614C84.4961 34.0435 81.8579 34.7918 79.6623 34.0852C78.8337 33.8186 78.0769 33.1069 78.2743 32.2793C78.3554 31.9487 78.5867 31.6482 78.8795 31.416C79.7439 30.7253 81.0032 30.488 82.0972 30.2478C83.3413 29.9724 84.7804 29.2634 85.8964 28.6128C86.2587 29.9617 86.4975 31.292 86.5997 32.5872Z" fill="#AE312F"/>
<path d="M86.6482 34.5854C86.598 36.1184 86.3299 37.593 85.8245 38.9937C84.3454 39.4111 82.6896 39.239 81.3077 38.6057C80.692 38.322 80.12 37.8206 80.1871 37.0762C80.2738 36.0913 81.539 35.8462 82.3154 35.7759C84.4217 35.5864 85.8833 34.9829 86.6482 34.5854Z" fill="#AE312F"/>
<path d="M39.5202 45.6609C40.4184 45.2207 41.3467 44.8679 42.2825 44.5364C43.2213 44.2136 44.1675 43.9128 45.1438 43.7002C44.2457 44.1411 43.3174 44.4939 42.3816 44.8247C41.4426 45.147 40.4964 45.4475 39.5202 45.6609Z" fill="#AE312F"/>
<path d="M38.78 43.593C39.7229 43.3857 40.6739 43.2705 41.6274 43.1777C42.5814 43.0942 43.5376 43.0337 44.5022 43.0662C43.5594 43.2742 42.6083 43.3894 41.655 43.4815C40.7008 43.5645 39.7447 43.6248 38.78 43.593Z" fill="#AE312F"/>
<path d="M39.075 40.5251C40.0123 40.7568 40.9168 41.075 41.8134 41.4143C42.7069 41.7622 43.5918 42.1318 44.4441 42.5884C43.5066 42.3574 42.6022 42.0391 41.7057 41.6992C40.8125 41.3508 39.9275 40.9812 39.075 40.5251Z" fill="#AE312F"/>
<path d="M75.2837 18.1641C75.2837 18.1641 74.5925 18.196 74.3906 18.0564C74.1852 17.9175 75.2397 17.772 75.2397 17.772C74.6872 17.6038 74.1857 17.0291 74.3649 16.998C74.5472 16.9629 75.2145 17.3562 75.2145 17.3562C74.4685 16.4844 74.7647 15.0066 75.486 15.0183C75.7945 15.0227 76.1997 15.6663 76.561 16.3977C76.3607 18.9875 78.0798 20.6799 78.382 20.8838C77.142 19.9817 75.6959 19.4136 74.5296 19.0735C74.649 18.5398 75.2837 18.1641 75.2837 18.1641Z" fill="white"/>
<path d="M48.811 20.094C48.8456 19.5088 49.3542 18.6458 49.3995 18.572C49.3556 18.595 48.8911 18.8611 48.6504 18.7585C48.3983 18.6499 49.1752 18.2329 49.1752 18.2329C49.1752 18.2329 48.5547 18.3542 48.4842 18.1709C48.4104 17.9915 49.0524 17.969 49.0524 17.969C48.5724 17.7458 47.6213 16.6084 48.1437 16.2205C48.4842 15.9685 49.0125 16.302 49.343 16.5676C49.8785 17.7017 50.5763 18.5896 52.1863 18.9587C52.1863 18.9583 50.3268 19.5601 48.811 20.094Z" fill="white"/>
<path d="M57.7138 40.2351C57.7138 40.2351 56.8216 39.0464 56.3369 39.2429C55.8523 39.4397 57.1943 41.239 57.7242 41.4204C58.2541 41.6018 59.4922 39.7769 59.2151 39.4089C58.938 39.0413 57.7138 40.2351 57.7138 40.2351Z" fill="#AE312F"/>
<path d="M59.1957 47.9241C59.0339 47.3765 58.8937 46.824 58.7448 46.2729L58.3377 44.6111C58.2018 44.0566 58.0846 43.4983 57.9649 42.9397C57.8535 42.3782 57.7404 41.8213 57.6685 41.2417L57.9632 41.27C57.6484 42.3257 57.3595 43.3928 57.079 44.4602C56.9407 44.9946 56.8075 45.5305 56.6913 46.0701C56.5658 46.6082 56.4612 47.1501 56.3713 47.6973C56.3941 47.1428 56.4701 46.592 56.5476 46.0425C56.6336 45.4941 56.7436 44.9502 56.855 44.4067C57.0829 43.3203 57.3643 42.2485 57.6743 41.1819L57.8811 40.4707L57.969 41.2104C58.0349 41.7632 58.1432 42.3257 58.2473 42.8835L58.5668 44.5615L58.8908 46.2405C58.9901 46.8018 59.1015 47.3608 59.1957 47.9241Z" fill="#AE312F"/>
<path opacity="0.48" d="M55.344 41.51C54.4425 41.6882 53.5658 42.2166 53.0236 43.0684C52.2377 44.303 52.042 45.8794 52.955 47.0566C53.5217 47.7874 54.3399 48.2024 55.1674 48.4658C56.753 48.9705 58.3633 49.3584 60.0192 48.9558C60.6195 48.8098 61.2151 48.571 61.7142 48.1545C62.4791 47.5161 62.9688 46.4624 62.9981 45.3921C63.0274 44.3218 62.5955 43.2598 61.8661 42.6086C60.9688 41.8074 59.5973 41.5151 58.4677 41.489C57.4609 41.4656 56.3348 41.314 55.344 41.51Z" fill="#AE312F"/>
<path d="M72.2709 46.5349C73.2697 46.5232 74.2586 46.6035 75.245 46.7061C76.2305 46.8179 77.2135 46.9529 78.1866 47.1807C77.1876 47.1929 76.1987 47.1128 75.2123 47.0093C74.2271 46.8967 73.2443 46.7617 72.2709 46.5349Z" fill="#AE312F"/>
<path d="M78.4566 44.6946C77.5235 44.9424 76.578 45.0986 75.6296 45.2327C74.68 45.3574 73.7274 45.4592 72.7623 45.4685C73.6955 45.2197 74.6407 45.0637 75.5894 44.9304C76.539 44.8062 77.4915 44.7046 78.4566 44.6946Z" fill="#AE312F"/>
<path d="M77.2966 42.1792C76.5666 42.8154 75.7858 43.375 74.9924 43.9155C74.1939 44.4485 73.3826 44.9624 72.5199 45.3984C73.2494 44.7615 74.0304 44.2021 74.8241 43.6621C75.6228 43.1296 76.4341 42.616 77.2966 42.1792Z" fill="#AE312F"/>
<path d="M65.0818 32.2695C65.0826 32.3604 65.0925 32.46 65.1562 32.5244C65.2022 32.571 65.2683 32.5903 65.3323 32.6028C65.8065 32.6951 66.2855 32.5037 66.727 32.3064C66.9602 32.2021 67.1956 32.0935 67.3923 31.9297C67.5892 31.7659 67.7464 31.5386 67.7735 31.2827C67.8653 30.4197 66.8006 29.8013 66.077 30.1965C65.4509 30.5386 65.0755 31.6094 65.0818 32.2695Z" fill="#AE312F"/>
<path d="M51.8008 32.2144C51.886 32.2439 51.9824 32.2678 52.0638 32.229C52.1229 32.2007 52.1628 32.1443 52.196 32.0876C52.4409 31.668 52.4217 31.1489 52.3849 30.6633C52.3655 30.4067 52.3423 30.147 52.2549 29.9053C52.1674 29.6636 52.0073 29.4382 51.7773 29.3269C51.0011 28.9517 50.0672 29.7563 50.1951 30.5762C50.3057 31.2852 51.1815 31.9995 51.8008 32.2144Z" fill="#AE312F"/>
<path d="M38.0515 100.72C35.6209 106.534 29.2463 106.067 29.2463 106.067C29.2463 106.067 29.9152 107.924 27.4844 109.025C26.2965 109.56 25.0683 109.574 23.6465 108.849C22.1514 108.093 20.4447 106.527 18.343 103.911C14.2309 98.7969 6.68317 99.3018 3.66406 99.0476C2.21311 98.926 0.666988 97.6548 0.166144 96.2217C-0.374903 94.6704 0.30516 92.9314 3.66406 92.2571C10.1227 90.9639 22.5356 96.9329 22.5356 96.9329C17.6705 84.8437 24.2972 75.5071 24.2972 75.5071C37.0465 78.9407 40.4858 94.906 38.0515 100.72Z" fill="#FF9C3D"/>
<path opacity="0.2" d="M38.0515 100.72C35.6209 106.534 29.2463 106.067 29.2463 106.067C29.2463 106.067 29.9152 107.924 27.4844 109.025C26.2965 109.56 25.0683 109.574 23.6465 108.849C22.1514 108.093 20.4447 106.527 18.343 103.911C14.2309 98.7969 6.68317 99.3018 3.66406 99.0476C2.21311 98.926 0.666988 97.6548 0.166144 96.2217C-0.374903 94.6704 0.30516 92.9314 3.66406 92.2571C10.1227 90.9639 22.5356 96.9329 22.5356 96.9329C17.6705 84.8437 24.2972 75.5071 24.2972 75.5071C37.0465 78.9407 40.4858 94.906 38.0515 100.72Z" fill="#AE312F"/>
<path opacity="0.48" d="M22.5356 96.9336C23.0587 97.4231 23.4474 97.9541 23.8392 98.4849C24.2238 99.0259 24.5842 99.5425 24.9669 100.147C24.274 99.929 23.7492 99.4031 23.3394 98.8511C22.9441 98.281 22.6266 97.6519 22.5356 96.9336Z" fill="#AE312F"/>
<path opacity="0.2" d="M23.6469 108.848C22.1519 108.093 20.4452 106.527 18.3435 103.911C14.2314 98.7966 6.68365 99.3015 3.66454 99.0474C2.21359 98.9258 0.66747 97.6545 0.166626 96.2214C0.784204 95.6392 1.99781 94.9097 4.21285 94.8728C7.91178 94.8174 15.1672 96.8735 19.3888 100.145C23.3069 103.185 27.7077 107.353 23.6469 108.848Z" fill="#AE312F"/>
<path d="M3.4599 94.9148C3.3933 94.6677 3.41461 94.4255 3.47201 94.1963C3.52795 93.9644 3.63597 93.7483 3.77716 93.5496C3.92902 93.3591 4.11647 93.1863 4.34485 93.0786C4.57251 92.9714 4.8377 92.9355 5.0765 93.0115C4.89244 93.1909 4.75366 93.3293 4.62458 93.4749C4.503 93.6277 4.38312 93.769 4.26953 93.9258C4.03122 94.2346 3.81156 94.5647 3.4599 94.9148Z" fill="#AE312F"/>
<path d="M3.7062 95.616C3.58002 95.6797 3.47346 95.8 3.46183 95.9419C3.45118 96.071 3.51875 96.1943 3.60109 96.2937C3.69458 96.4065 3.81155 96.5015 3.94645 96.5581C4.34679 96.7266 5.37923 96.6975 5.20486 96.0334C5.04719 95.4333 4.16757 95.3833 3.7062 95.616Z" fill="#FFC792"/>
<path d="M1.60086 96.8577C1.55824 97.4575 2.19519 97.782 2.69264 97.8772C2.94718 97.926 3.24943 97.8923 3.48024 97.7688C3.60496 97.7019 3.71298 97.5903 3.7435 97.4512C3.79266 97.2256 3.63039 97.009 3.45408 96.8613C3.08305 96.5508 1.6665 95.9341 1.60086 96.8577Z" fill="#FFC792"/>
<path d="M8.78173 96.7317C8.03264 96.6194 7.27798 96.5864 6.55578 96.7283C6.02127 96.8333 4.80961 97.2156 4.72194 97.8743C4.6936 98.0876 4.8377 98.2944 5.02201 98.4031C5.20631 98.5117 5.42452 98.5427 5.63644 98.5691C7.08278 98.7493 8.54438 98.8215 9.97474 99.1025C11.579 99.4177 13.1694 99.8687 14.6398 100.599C16.1946 101.372 17.4818 102.48 18.6928 103.717C18.9914 104.021 19.3249 104.544 19.7269 104.713C19.9701 104.816 20.2648 104.681 20.4135 104.462C20.5622 104.242 20.5915 103.962 20.5755 103.697C20.4498 101.594 18.5395 100.442 16.8994 99.543C15.0198 98.5122 13.0096 97.7231 10.9336 97.2012C10.2465 97.0286 9.51701 96.842 8.78173 96.7317Z" fill="#FFC792"/>
<path d="M26.4101 88.9595C27.5169 93.105 30.0855 96.6992 33.541 99.208C36.9774 101.703 40.8464 103.749 44.74 104.971C48.2234 106.064 52.647 106.555 56.0073 104.801C59.2703 103.097 61.3395 99.0088 62.4381 95.6604C64.5243 89.3008 66.9278 81.405 66.3906 74.7385C65.9777 69.6135 64.0581 64.2881 60.963 60.1848C58.8855 57.4309 56.1672 54.9646 52.6247 54.3374C52.2648 53.3855 52.3898 52.4131 51.1267 52.45C50.2646 52.4751 50.5692 54.2178 50.5692 54.2178C50.5692 54.2178 49.9388 52.4551 49.0095 52.4011C48.0808 52.3474 48.8575 54.3001 48.8579 54.3015C48.4784 53.3477 41.284 55.1628 40.6238 55.3694C34.4054 57.3137 30.8852 62.9351 28.6367 68.7239C26.1182 75.2073 24.5719 81.999 26.3921 88.8911C26.398 88.9141 26.404 88.9368 26.4101 88.9595Z" fill="#FFC792"/>
<path opacity="0.48" d="M71.9607 48.7283C72.4649 48.636 72.9667 48.5366 73.4584 48.4028C73.9493 48.2717 74.4387 48.1252 74.8849 47.9045L75.3457 47.6765L75.0336 48.1006C74.9621 48.198 74.8914 48.3328 74.8892 48.4172C74.8926 48.4607 74.8938 48.4524 74.912 48.4668C74.9243 48.4797 75.0089 48.4966 75.027 48.4932C75.0791 48.4937 75.1917 48.4043 75.2719 48.3088C75.3578 48.2107 75.4356 48.0959 75.509 47.9788C75.6562 47.7432 75.787 47.4907 75.905 47.2332C76.0207 46.9775 76.1336 46.7058 76.207 46.4524L76.3697 45.8901L76.5395 46.4482C76.6075 46.6714 76.6986 46.9031 76.8119 47.103C76.9238 47.3027 77.083 47.481 77.2077 47.4485C77.3544 47.4341 77.5211 47.2434 77.6337 47.0454C77.7497 46.8435 77.8463 46.614 77.9214 46.3901L77.957 46.2842L78.0614 46.2913C78.3336 46.3093 78.6349 46.2781 78.9185 46.2217C79.205 46.1641 79.4879 46.0791 79.7606 45.9666C80.0326 45.8538 80.3038 45.729 80.554 45.5667C80.8088 45.4114 81.0466 45.229 81.282 45.0405C81.0727 45.2571 80.8521 45.4666 80.6058 45.6443C80.3658 45.8315 80.1006 45.9834 79.8298 46.125C79.5542 46.2576 79.2646 46.3616 78.9669 46.4385C78.6661 46.5134 78.3682 46.5649 78.0408 46.5613L78.1805 46.4624C78.1135 46.7195 78.0255 46.9602 77.8977 47.1965C77.8335 47.314 77.7596 47.4294 77.6613 47.5361C77.5644 47.6404 77.4319 47.7449 77.2537 47.7747C77.1682 47.7886 77.0713 47.781 76.9854 47.7461C76.9018 47.7119 76.8354 47.6624 76.7792 47.6108C76.6678 47.5064 76.5903 47.3909 76.5208 47.2744C76.3857 47.0388 76.2895 46.8015 76.2084 46.5459L76.5409 46.5415C76.4535 46.8447 76.3361 47.1069 76.2123 47.3774C76.0864 47.6443 75.9498 47.9067 75.7863 48.1589C75.703 48.2842 75.6148 48.4075 75.507 48.5242C75.3937 48.6321 75.2862 48.7712 75.044 48.8003C74.9747 48.801 74.9394 48.7925 74.8921 48.7803C74.8468 48.7686 74.7974 48.7498 74.7483 48.7161C74.64 48.6545 74.5836 48.49 74.6066 48.3899C74.6432 48.1846 74.7391 48.0667 74.8422 47.9377L74.9909 48.134C74.5029 48.3381 73.9997 48.4651 73.4923 48.5576C72.9834 48.6414 72.4736 48.708 71.9607 48.7283Z" fill="#AE312F"/>
<path opacity="0.48" d="M43.2983 46.4744C43.7616 46.8525 44.2239 47.2297 44.7022 47.5825C44.9389 47.762 45.1798 47.9346 45.4261 48.0955C45.671 48.2529 45.9309 48.4058 46.1837 48.4836L46.2542 48.5051L46.2794 48.5825C46.3571 48.821 46.4521 49.0669 46.5736 49.282C46.687 49.4932 46.8735 49.7 47.0006 49.677C47.0609 49.668 47.0837 49.6553 47.1096 49.554C47.1287 49.4585 47.1222 49.3364 47.1067 49.2166C47.0737 48.9746 46.9977 48.7219 46.9161 48.4866L46.6816 47.8105L47.1958 48.2993C47.3944 48.488 47.6119 48.6714 47.8342 48.835C48.057 48.9973 48.2917 49.1501 48.5307 49.24C48.6489 49.2861 48.7722 49.3096 48.8599 49.2866C48.9589 49.2607 49.027 49.2141 49.0299 49.1379C49.0471 48.9514 48.8773 48.6768 48.7153 48.4805L48.4767 48.1912L48.8308 48.2771C49.2869 48.3879 49.7586 48.4622 50.2282 48.5234C50.6993 48.5835 51.1745 48.6074 51.6518 48.573C51.1827 48.6763 50.6971 48.6865 50.2164 48.6753C49.7339 48.6582 49.258 48.5999 48.7785 48.5168L48.8938 48.3137C49.0001 48.428 49.0904 48.5439 49.1725 48.6777C49.2488 48.8123 49.3283 48.9612 49.3215 49.1653C49.3147 49.2654 49.2668 49.3809 49.1876 49.4492C49.1493 49.4876 49.1088 49.5168 49.067 49.5352C49.0263 49.5588 48.9832 49.5774 48.935 49.5859C48.7446 49.6348 48.5748 49.5935 48.4276 49.5442C48.1277 49.4431 47.8771 49.2815 47.638 49.1099C47.3988 48.9368 47.1762 48.7534 46.9582 48.5503L47.2377 48.363C47.3348 48.627 47.4055 48.8879 47.4443 49.1724C47.46 49.3154 47.4719 49.4619 47.4382 49.6279C47.4249 49.6711 47.4133 49.7136 47.3954 49.7566C47.3685 49.8003 47.3472 49.8459 47.3084 49.8838C47.2292 49.9646 47.1217 50.0073 47.0224 50.0115C46.8158 50.0251 46.6531 49.9045 46.5499 49.7959C46.4431 49.6819 46.3695 49.5581 46.3012 49.4336C46.1716 49.1819 46.0764 48.9287 46.0059 48.658L46.1014 48.7568C45.7899 48.6394 45.5422 48.4653 45.2956 48.2881C45.0522 48.1082 44.8183 47.9189 44.5901 47.7239C44.1416 47.3245 43.7059 46.9136 43.2983 46.4744Z" fill="#AE312F"/>
<path d="M71.5017 112.175C65.6636 116.941 57.5338 111.042 57.5338 111.042C50.337 117.302 44.2072 115.801 44.1585 111.446C44.1474 110.801 44.277 110.091 44.5528 109.333C46.6964 103.483 48.2626 89.0671 49.1488 87.6655C49.1491 87.6621 49.1524 87.6623 49.1529 87.6587C50.0388 86.2571 52.77 85.7082 54.3721 89.2156C56.0606 92.9014 54.669 99.5088 54.5818 99.9077C59.3723 85.9004 66.7348 80.7397 71.0341 80.9026C75.3402 81.0662 76.9154 89.9158 76.9154 89.9158C76.9154 89.9158 77.3402 107.405 71.5017 112.175Z" fill="#FF9C3D"/>
<path opacity="0.48" d="M54.5162 100.048C54.7608 100.323 54.9821 100.618 55.1894 100.925C55.3977 101.231 55.5811 101.556 55.7116 101.918C55.7642 102.104 55.8298 102.294 55.7893 102.521C55.7366 102.756 55.5869 102.939 55.3612 103.028C55.134 103.103 54.9061 103.057 54.7213 102.982C54.5317 102.903 54.3692 102.804 54.2081 102.674L54.4738 102.495C54.7119 103.23 54.9298 103.964 55.01 104.754C55.019 104.957 55.042 105.154 54.971 105.387C54.9187 105.507 54.8635 105.642 54.677 105.696C54.4842 105.737 54.358 105.619 54.2829 105.546C53.9947 105.21 53.8797 104.847 53.7446 104.477L53.9729 104.459C53.8746 104.86 53.7601 105.249 53.6082 105.627C53.4578 106.004 53.289 106.375 53.0805 106.721C53.2299 106.345 53.3655 105.968 53.4699 105.58C53.5741 105.194 53.6763 104.803 53.74 104.414L53.8063 104.009L53.9686 104.396C54.1086 104.731 54.2815 105.093 54.498 105.33C54.554 105.385 54.6043 105.398 54.6002 105.39C54.599 105.396 54.6155 105.375 54.6312 105.362L54.6639 105.288C54.7022 105.152 54.6891 104.96 54.6772 104.784C54.6404 104.421 54.5561 104.053 54.4677 103.688C54.3788 103.323 54.2747 102.958 54.1606 102.602L53.9812 102.039L54.4266 102.422C54.6678 102.63 55.0139 102.822 55.2677 102.747C55.3871 102.715 55.5062 102.587 55.5372 102.467C55.5765 102.328 55.5377 102.15 55.5004 101.984C55.4052 101.645 55.241 101.318 55.0761 100.994C54.9058 100.671 54.7131 100.359 54.5162 100.048Z" fill="#AE312F"/>
<path opacity="0.48" d="M57.5326 111.041C57.9521 110.388 58.4057 109.783 58.8467 109.167L59.504 108.243L60.1446 107.293C59.9671 108.056 59.5706 108.744 59.1262 109.372C58.8964 109.683 58.6544 109.984 58.3892 110.264C58.1257 110.544 57.846 110.811 57.5326 111.041Z" fill="#AE312F"/>
<path d="M67.3555 70.3987C67.1908 70.4399 59.4503 72.1333 54.8475 76.5022C50.2447 80.8713 52.0216 84.0764 53.8426 84.2266C53.8426 84.2266 54.6704 85.6829 56.5837 85.436C56.5837 85.436 58.1701 87.375 60.6861 87.1782C63.2022 86.9814 66.0547 84.1597 66.0547 84.1597L71.1796 85.0925L73.5112 76.8538L67.3555 70.3987Z" fill="#FF9C3D"/>
<path opacity="0.48" d="M56.6702 85.4365C56.6215 84.9004 56.6963 84.3474 56.8734 83.8296C57.0458 83.3096 57.3195 82.8174 57.6818 82.4009C58.0492 81.9932 58.4718 81.6233 58.9651 81.3875C59.1972 81.2432 59.4636 81.1721 59.7121 81.072C59.971 80.9985 60.2347 80.9431 60.4953 80.895C60.2555 81.0195 60.007 81.1057 59.7758 81.2305C59.55 81.3652 59.3088 81.4656 59.101 81.6226L58.7806 81.8386L58.4847 82.0854C58.3815 82.1623 58.2943 82.2563 58.204 82.3472C58.1151 82.439 58.0189 82.5242 57.9436 82.6284C57.6026 83.0105 57.3374 83.4563 57.124 83.9285C56.9155 84.4026 56.7557 84.9067 56.6702 85.4365Z" fill="#AE312F"/>
<path opacity="0.48" d="M53.8426 84.2266C53.6017 83.325 53.6392 82.3503 53.9044 81.4402C54.0403 80.9849 54.2587 80.5525 54.5382 80.1697C54.8116 79.7791 55.1938 79.4807 55.5886 79.2471C55.274 79.5906 54.9821 79.9307 54.7625 80.3213C54.546 80.7097 54.357 81.113 54.235 81.5427C54.1042 81.969 54.0168 82.4099 53.9531 82.8579C53.8964 83.3066 53.8518 83.762 53.8426 84.2266Z" fill="#AE312F"/>
<path opacity="0.48" d="M93.4163 74.6243C92.2429 76.9824 90.6128 79.123 88.5951 80.8291C88.3575 81.0576 88.0761 81.2344 87.8167 81.437C87.5498 81.6287 87.2977 81.8496 87.0126 82.0117L86.172 82.5349C85.8942 82.7117 85.5908 82.8445 85.3021 83.0029C84.7247 83.3271 84.1069 83.5557 83.5038 83.8245C82.8787 84.0383 82.2684 84.2852 81.6288 84.4473C80.3641 84.823 79.0631 85.0625 77.7579 85.2173C77.1038 85.302 76.4458 85.3389 75.7916 85.3831C75.1338 85.3979 74.4758 85.4236 73.8178 85.4053C71.2191 85.3428 68.6311 85.0146 66.1092 84.3406C65.5062 85.0037 64.8336 85.5786 64.1024 86.0872C63.3386 86.5957 62.5052 87.0342 61.5878 87.2295C60.6704 87.4321 59.72 87.3806 58.8208 87.1189C57.9581 86.8464 57.1541 86.3599 56.5912 85.6045C56.3425 85.5972 56.0943 85.5862 55.8419 85.5566C55.659 85.5308 55.4764 85.5015 55.2936 85.4536C55.1987 85.4314 55.1071 85.4058 55.0158 85.3726C54.7489 85.2878 54.4857 85.1626 54.2483 84.9858C54.1313 84.8975 54.0216 84.7978 53.9267 84.6799C53.8463 84.5842 53.7804 84.4883 53.722 84.363C53.0713 84.175 52.5341 83.6924 52.2343 83.0994C51.9163 82.4802 51.8504 81.7654 51.9344 81.095C52.1427 79.7427 52.8482 78.5527 53.6889 77.5393C54.537 76.5225 55.5384 75.6602 56.5692 74.8496C57.6256 74.0647 58.7658 73.4016 59.9501 72.8416C60.2279 72.709 60.513 72.5798 60.7944 72.4582C62.907 71.5371 65.1184 70.8628 67.3516 70.3323C69.8883 69.7317 72.4615 69.3005 75.0529 69.05C72.4688 69.3447 69.9028 69.8237 67.3846 70.4648C65.2535 71.0212 63.1446 71.6697 61.1308 72.5503C60.7653 72.7087 60.4071 72.8782 60.0489 73.0515C58.883 73.6189 57.7608 74.2822 56.7336 75.0669C55.7211 75.8738 54.7416 76.7361 53.9155 77.731C53.0967 78.7185 52.4317 79.8755 52.2415 81.1355C52.1684 81.7581 52.2306 82.4067 52.5157 82.9519C52.7899 83.4973 53.2905 83.9246 53.879 84.0684L53.9594 84.0906L53.9959 84.1826C54.0655 84.3706 54.2444 84.5806 54.4418 84.7205C54.6428 84.8716 54.8732 84.9819 55.1216 85.0593C55.2643 85.1108 55.414 85.1477 55.5675 85.1736C55.6699 85.1956 55.7758 85.2104 55.8816 85.2251C56.1412 85.2546 56.4043 85.2656 56.6711 85.2693H56.7552L56.8136 85.3467C57.3035 86.0356 58.0928 86.5369 58.9189 86.7873C59.7559 87.0305 60.666 87.0747 61.5142 86.8943C62.3766 86.7136 63.177 86.2974 63.9191 85.8074C64.6503 85.3062 65.341 84.7131 65.9295 84.0535L65.999 83.9761L66.1014 84.0017C68.6052 84.6907 71.2186 85.0371 73.8209 85.1072C75.1258 85.1291 76.4307 85.0886 77.7281 84.9451C79.0221 84.8049 80.3123 84.5803 81.5661 84.2229C82.1984 84.0681 82.809 83.8286 83.4266 83.626C84.026 83.3645 84.6402 83.1433 85.2139 82.8301C86.391 82.2627 87.4801 81.5256 88.5108 80.7224C90.5399 79.0642 92.203 76.9639 93.4163 74.6243Z" fill="#AE312F"/>
<path d="M90.0557 52.9563C88.4881 54.2822 86.6092 55.1968 84.6869 55.9004C82.7005 56.6309 80.6015 57.2966 78.47 57.3669C77.2028 57.4102 74.7708 57.1829 74.2285 55.738C73.3213 53.3027 78.0725 52.6262 79.4523 52.1445C81.5729 51.4084 83.6024 50.3965 85.4813 49.1516C85.8894 48.8811 86.4476 48.3723 86.8235 47.9988C86.8826 48.0691 86.9417 48.145 87.0008 48.2153C87.6021 48.9622 88.171 49.7524 88.692 50.5696C88.6973 50.575 88.7026 50.5803 88.7026 50.5857C89.1805 51.3325 89.6261 52.1064 90.0342 52.9075C90.0448 52.9238 90.0502 52.9402 90.0557 52.9563Z" fill="#AE312F"/>
<path d="M74.625 85.2629C72.6243 85.2722 70.8132 85.0835 69.3795 84.8623C69.5996 84.103 69.6759 83.2798 69.5727 82.5259C69.4216 81.4182 68.9036 80.3821 68.7699 79.2722C68.7355 79.0068 68.7263 78.7297 68.8229 78.4785C69.4751 76.7849 71.4456 78.418 72.1881 79.1641C73.7793 80.7637 74.6684 83.0229 74.625 85.2629Z" fill="#AE312F"/>
<path d="M76.4242 73.9814C75.965 74.6897 74.9255 74.707 74.1394 74.4192C72.6621 73.876 71.571 72.6221 70.2746 71.7258C69.2973 71.0481 68.2804 70.6543 67.2179 70.4351C69.6059 69.8376 71.7735 69.4744 73.2201 69.2729C74.2569 69.8574 75.1796 70.6497 75.9137 71.5879C76.4489 72.2754 76.8921 73.2493 76.4242 73.9814Z" fill="#AE312F"/>
<path d="M93.4488 63.3909C91.5965 64.4246 89.3524 64.9009 87.5915 63.97C85.6532 62.947 88.3754 60.1924 89.3684 59.4292C90.1899 58.8069 90.9898 58.1465 91.7629 57.4646C91.8167 57.416 91.8649 57.3672 91.9186 57.3076C92.5306 59.0828 93.0085 60.9282 93.3521 62.8171C93.3897 63.0066 93.4219 63.196 93.4488 63.3909Z" fill="#AE312F"/>
<path d="M94.0608 72.9214C94.0608 73.0891 94.0555 73.2568 94.0501 73.4246C92.4502 74.0037 90.7322 74.312 89.1107 73.8684C88.7939 73.7817 88.4718 73.6572 88.2517 73.4084C87.7041 72.7808 88.1444 71.7686 88.7617 71.2112C90.0179 70.0637 91.7736 69.355 93.1964 68.4185C93.4326 68.2615 93.6902 68.0938 93.9641 67.9368C93.9695 68.0884 93.9801 68.2451 93.991 68.3967C94.0608 69.8635 94.0823 71.3735 94.0608 72.9214Z" fill="#AE312F"/>
<path opacity="0.48" d="M75.8456 100.65C76.0139 100.015 76.1757 99.3804 76.3128 98.7395C76.4598 98.1016 76.593 97.4607 76.7071 96.8169C76.9401 95.531 77.1297 94.2366 77.2028 92.9353C77.2469 92.2856 77.2692 91.6348 77.2532 90.9846C77.2355 90.3345 77.1694 89.6885 77.0788 89.0464C76.9832 88.4048 76.8202 87.7739 76.5886 87.1689C76.3661 86.5596 76.0524 85.9839 75.6548 85.4622C76.1125 85.9326 76.4646 86.5029 76.7451 87.1025C77.0142 87.7083 77.2106 88.3474 77.3406 88.9983C77.5988 90.3035 77.6184 91.6394 77.5477 92.958C77.4448 94.2759 77.2576 95.5852 76.9667 96.8704C76.6754 98.1548 76.3196 99.4246 75.8456 100.65Z" fill="#AE312F"/>
<path d="M93.3575 82.0569C93.1427 83.6426 92.869 85.2229 92.5415 86.7925C92.52 86.9009 92.4987 87.0037 92.4718 87.1118C91.7578 87.2688 91.033 87.3445 90.3081 87.2795C89.7499 87.231 89.1807 87.0847 88.7351 86.7437C88.2841 86.3972 87.9833 85.8291 88.0746 85.2661C88.1875 84.5786 88.8208 84.1133 89.4275 83.7725C90.684 83.0745 92.0315 82.5874 93.3575 82.0569Z" fill="#AE312F"/>
<path d="M90.6893 93.655C89.9807 95.771 89.1538 97.8115 88.1875 99.7273C87.3447 99.5378 86.5338 99.2292 85.7877 98.8071C85.1219 98.439 84.4777 97.9629 84.1127 97.2917C83.7475 96.6152 83.7262 95.7114 84.2309 95.1323C84.8213 94.4612 85.8414 94.4719 86.7327 94.4504C88.1873 94.4126 89.4597 94.1042 90.6893 93.655Z" fill="#AE312F"/>
<path d="M84.1132 106.439C82.8712 107.926 81.5932 109.135 79.8357 110.16C78.5487 109.363 77.4855 107.956 77.0784 106.488C76.9054 105.872 76.8444 105.199 77.0626 104.597C77.284 103.999 77.8383 103.491 78.4746 103.479C78.958 103.47 79.4021 103.733 79.8117 103.997C80.8119 104.646 81.7717 105.367 82.8327 105.908C83.2432 106.116 83.6692 106.301 84.1132 106.439Z" fill="#AE312F"/>
<path opacity="0.48" d="M66.4616 60.2102C66.6258 60.7034 66.8631 61.1855 67.2281 61.5359C67.4027 61.7034 67.6427 61.8491 67.8408 61.8882C68.0295 61.8948 68.193 61.666 68.3039 61.4543C68.5306 61.0081 68.6582 60.5005 68.7832 60.0015C68.9002 59.4985 68.9958 58.9851 69.0733 58.4766L69.3211 56.8533L69.4095 58.4949C69.4281 58.8413 69.4768 59.198 69.548 59.5388C69.6216 59.8765 69.7246 60.2212 69.9113 60.4709C70.0019 60.5911 70.1259 60.6807 70.2346 60.6907C70.3351 60.7029 70.4497 60.6255 70.5446 60.498C70.7299 60.2417 70.8481 59.8923 70.9324 59.5625L71.192 59.6016C71.1382 60.1348 71.1721 60.7046 71.3494 61.2178C71.4349 61.4758 71.5674 61.7195 71.7539 61.9187C71.9423 62.116 72.1852 62.261 72.4523 62.3455C72.1772 62.2971 71.9079 62.1775 71.6916 61.9846C71.4756 61.793 71.3099 61.5454 71.1942 61.2793C71.0782 61.0125 71.0123 60.728 70.9701 60.4426C70.9302 60.1553 70.914 59.8711 70.9309 59.5735L71.1903 59.6125C71.1179 59.9846 71.021 60.344 70.7924 60.6824C70.6827 60.8411 70.4848 61.0293 70.2138 61.0156C69.9578 60.9958 69.7762 60.8389 69.6488 60.6782C69.4 60.3462 69.2981 59.9756 69.2121 59.613C69.1307 59.2468 69.0905 58.8828 69.0716 58.5071L69.4078 58.5256C69.3262 59.0513 69.2179 59.5654 69.0811 60.0776C68.9433 60.5881 68.7815 61.0972 68.5088 61.5715C68.4376 61.6887 68.3584 61.8042 68.2526 61.9055C68.1511 62.0044 67.9992 62.0989 67.8266 62.0815C67.518 62.0076 67.3148 61.8354 67.1276 61.6348C66.7709 61.227 66.5667 60.7219 66.4616 60.2102Z" fill="#AE312F"/>
<path opacity="0.2" d="M52.2868 102.042C49.6199 109.841 47.9798 113.688 44.1588 111.446C44.1476 110.801 44.2772 110.091 44.5531 109.333C46.6967 103.483 48.2629 89.0674 49.149 87.6658C49.1493 87.6623 49.1527 87.6626 49.1532 87.6589C49.8543 87.4009 50.7976 87.2812 51.7065 87.9009C53.4719 89.1008 55.008 94.0869 52.2868 102.042Z" fill="#AE312F"/>
<path d="M49.2142 94.647C49.0013 95.0149 48.9178 95.4421 48.8405 95.8611C48.3196 98.6914 47.9388 101.553 47.2007 104.334C46.9023 105.458 46.546 106.566 46.2568 107.692C46.1878 107.962 46.1292 108.272 46.2912 108.498C46.422 108.68 46.6703 108.749 46.8904 108.712C47.1106 108.675 47.3065 108.549 47.4789 108.406C47.9083 108.05 48.227 107.577 48.4915 107.084C48.8039 106.501 49.0483 105.885 49.289 105.27C50.3365 102.587 51.3316 99.8474 51.6448 96.9822C51.7412 96.1011 51.7199 94.9783 51.1069 94.2615C50.5637 93.6267 49.5794 94.0164 49.2142 94.647Z" fill="#FFC792"/>
<path d="M51.9153 92.252C51.9243 92.4282 51.9671 92.6106 52.0824 92.7436C52.1805 92.8572 52.3202 92.9236 52.4559 92.9868C52.677 93.0901 52.9337 93.1938 53.1551 93.0916C53.6821 92.8474 53.5937 91.7485 53.2173 91.4094C52.6041 90.8569 51.8814 91.5815 51.9153 92.252Z" fill="#FFC792"/>
<path d="M49.9236 89.9429C49.9136 90.1882 49.94 90.4448 50.0689 90.6533C50.2713 90.9807 50.7061 91.1189 51.0773 91.0247C51.4486 90.9304 51.7494 90.6362 51.916 90.2888C52.0289 90.0535 52.0863 89.7766 52.0013 89.5298C51.8703 89.1492 51.2878 88.73 50.8858 88.7393C50.2435 88.7537 49.9461 89.3823 49.9236 89.9429Z" fill="#FFC792"/>
<path d="M48.7366 92.3208C48.7913 92.3789 48.8669 92.4133 48.9432 92.4353C49.5467 92.6089 50.4496 91.7856 49.7058 91.3743C49.1822 91.0845 48.2602 91.8145 48.7366 92.3208Z" fill="#FFC792"/>
<path opacity="0.48" d="M38.1516 88.3731L37.9406 88.5791C37.7723 88.0479 37.6313 87.5159 37.5207 86.9705C37.4657 86.698 37.4226 86.4219 37.4025 86.1411C37.3855 85.8601 37.3758 85.574 37.4524 85.2798C37.4931 85.1375 37.5664 84.9709 37.7299 84.8818C37.8064 84.8372 37.9009 84.8196 37.975 84.8264C38.0535 84.8281 38.1317 84.8286 38.2041 84.8579C38.5032 84.9468 38.712 85.1711 38.8723 85.3977C39.1891 85.8628 39.3862 86.385 39.5209 86.9165C39.3264 86.4065 39.0961 85.9004 38.7592 85.4858C38.5902 85.2852 38.3867 85.1033 38.1552 85.0474C38.0985 85.0256 38.0397 85.0312 37.982 85.032C37.9212 85.0288 37.8762 85.0437 37.8365 85.0688C37.7558 85.1147 37.7057 85.2212 37.6786 85.3391C37.5865 85.8337 37.7137 86.3857 37.8135 86.9087C37.929 87.4363 38.0777 87.9629 38.2487 88.4736L38.355 88.7918L38.0377 88.6797C37.6732 88.5508 37.2886 88.4453 36.9106 88.3821C36.7214 88.3525 36.5318 88.3301 36.3538 88.3401C36.1797 88.3398 36.0082 88.4194 35.9808 88.479C35.9438 88.519 36.0467 88.7119 36.1702 88.8372C36.2962 88.9741 36.4439 89.1011 36.5972 89.2214C36.9048 89.4617 37.2405 89.679 37.5756 89.8809L38.023 90.1504L37.5064 90.1509C37.1625 90.1511 36.8035 90.1811 36.4691 90.2632C36.1443 90.3415 35.7835 90.4944 35.7185 90.7939C35.6878 90.9414 35.7227 91.1116 35.8423 91.2141C35.9602 91.3218 36.1337 91.3733 36.3042 91.4016C36.6515 91.4541 37.0155 91.4297 37.3703 91.376C37.0227 91.4709 36.6609 91.5293 36.2918 91.5015C36.1094 91.4846 35.9159 91.4499 35.751 91.3249C35.5815 91.1987 35.5035 90.9695 35.5403 90.7627C35.5708 90.5466 35.7251 90.3762 35.8859 90.2693C36.0491 90.1565 36.2288 90.0913 36.4076 90.0361C36.7684 89.9294 37.1307 89.8813 37.5054 89.8625L37.4361 90.1326C37.0782 89.9338 36.7391 89.7156 36.4095 89.4692C36.2458 89.3447 36.0857 89.2126 35.937 89.0564C35.8631 88.977 35.7919 88.8918 35.7314 88.7854C35.6759 88.6841 35.6098 88.5332 35.6747 88.3582C35.705 88.2725 35.7638 88.2151 35.8164 88.1748C35.8702 88.1235 35.9288 88.0991 35.9876 88.0735C36.1048 88.0251 36.2201 88.0076 36.3303 87.9998C36.5517 87.9858 36.7624 88.0037 36.967 88.0398" fill="#AE312F"/>
<path d="M54.1129 86.6396L16.3411 73.8982L26.8789 62.9624L60.7946 72.4575L61.131 72.5496C60.7656 72.708 60.4074 72.8774 60.0492 73.0508C58.8833 73.6182 57.761 74.2815 56.7339 75.0662C55.7213 75.873 54.7419 76.7353 53.9158 77.7302C53.097 78.7178 52.4319 79.8748 52.2418 81.1348C52.1686 81.7573 52.2309 82.406 52.5159 82.9512C52.7901 83.4966 53.2907 83.9238 53.8792 84.0676L53.9596 84.0898L53.9962 84.1819C54.0657 84.3699 54.2447 84.5798 54.4421 84.7197L54.1137 86.6377" fill="#FF5555"/>
<path d="M54.1134 86.6379L47.6797 64.9783L8.80328 54.8716L16.3411 73.8989L54.1134 86.6379Z" fill="#FF5555"/>
<path d="M28.1158 72.3862C28.1267 72.4839 24.886 69.803 25.4837 67.8845C26.0814 65.9661 30.2938 66.5815 30.2938 66.5815C30.2938 66.5815 27.707 68.7546 28.1158 72.3862Z" fill="white"/>
<path d="M37.2191 74.001C37.2191 74.001 36.248 71.3281 37.3647 68.7285C37.3647 68.7285 34.7636 69.2861 34.0511 71.3464C34.0511 71.3464 35.122 73.5657 37.2191 74.001Z" fill="white"/>
<path d="M33.2131 71.8225C28.3592 71.8225 27.2444 68.5684 27.2321 68.5308C27.1793 68.3669 27.2679 68.1912 27.4304 68.1379C27.5927 68.0859 27.7663 68.1738 27.8196 68.3367C27.8709 68.4919 29.1553 72.1228 35.4655 70.9829C35.634 70.9541 35.7946 71.0657 35.8246 71.2346C35.8549 71.4043 35.7428 71.5662 35.5749 71.5967C34.7035 71.7537 33.9186 71.8225 33.2131 71.8225Z" fill="white"/>
<path d="M33.1615 74.0732C33.0562 74.0732 32.9535 74.019 32.8959 73.9214C32.8888 73.9099 32.2153 72.769 31.5791 71.4673L31.4948 71.2944L31.6106 71.1411C31.6537 71.0837 32.6835 69.7268 33.7106 69.1916C33.8619 69.1121 34.0484 69.1729 34.1274 69.3257C34.2056 69.4785 34.1463 69.6667 33.9944 69.7458C33.2763 70.1199 32.5093 71.0132 32.2211 71.3686C32.8186 72.572 33.4209 73.5913 33.427 73.6021C33.5146 73.75 33.4664 73.9414 33.3202 74.0295C33.27 74.0588 33.2153 74.0732 33.1615 74.0732Z" fill="white"/>
<path d="M27.6392 68.3513C27.5234 68.6404 27.1972 68.7803 26.9104 68.6636C26.6237 68.5469 26.4851 68.218 26.6007 67.929C26.7164 67.6399 27.0427 67.5002 27.3294 67.6167C27.6162 67.7334 27.7549 68.0625 27.6392 68.3513Z" fill="#FF5555"/>
<path d="M30.8024 73.8882C30.6999 73.8882 30.5997 73.8369 30.5408 73.7434C30.5001 73.6782 29.5379 72.1365 29.1151 70.6421L29.0746 70.4988L29.1599 70.377C29.1955 70.3257 30.0475 69.1165 31.1424 68.2881C31.2802 68.1851 31.4737 68.2126 31.5754 68.3501C31.6779 68.488 31.6503 68.6833 31.5139 68.7866C30.6898 69.4097 29.9918 70.2974 29.7532 70.6165C30.1727 71.9822 31.0547 73.395 31.0637 73.4097C31.1552 73.5552 31.1124 73.7478 30.968 73.8398C30.9162 73.8726 30.8588 73.8882 30.8024 73.8882Z" fill="white"/>
<path d="M8.80328 54.8716L9.89603 54.1873L48.3491 64.7441L55.1279 85.6194L54.1134 86.6379L47.3014 65.6553L8.80328 54.8716Z" fill="#AE312F"/>
<path opacity="0.45" d="M14.4462 64.3621C14.4685 64.4524 11.4046 56.7224 11.4046 56.7224C11.4046 56.7224 19.5058 58.9988 19.3888 58.9829C19.2718 58.9668 13.3201 59.8042 14.4462 64.3621Z" fill="white"/>
<path d="M101.547 42.3525C101.531 42.8936 101.444 43.4187 101.296 43.9177L101.665 43.7751C101.794 43.2793 101.865 42.7642 101.868 42.2295L101.547 42.3525ZM101.865 41.8892C101.845 41.3772 101.765 40.8813 101.63 40.4084C101.601 40.3015 101.569 40.1978 101.534 40.0974C101.379 39.6277 101.17 39.1836 100.913 38.7688C100.859 38.6748 100.798 38.584 100.737 38.4934C100.441 38.0591 100.094 37.667 99.705 37.3203C99.6117 37.2361 99.5185 37.155 99.4189 37.0806C98.9271 36.6853 98.3744 36.3645 97.7796 36.1311C97.6253 36.0696 97.4645 36.0144 97.3039 35.9658C96.7348 35.7908 96.1305 35.6936 95.5037 35.6904C95.4846 35.6873 95.4684 35.6873 95.449 35.6873C94.4236 35.6873 93.456 35.9302 92.5977 36.3645C90.4827 37.4241 89.0264 39.6243 89.0264 42.1614C89.0264 45.7322 91.9065 48.6357 95.4488 48.6357C96.2235 48.6357 96.9629 48.4963 97.6507 48.2437H97.6539C98.4061 47.9651 99.0908 47.5469 99.6822 47.0251C100.541 46.2668 101.196 45.282 101.556 44.1641C101.598 44.0376 101.637 43.9082 101.665 43.7751C101.794 43.2793 101.865 42.7642 101.868 42.2295C101.871 42.2068 101.871 42.1841 101.871 42.1614C101.871 42.0706 101.868 41.9797 101.865 41.8892ZM101.296 43.9177C101.257 44.0505 101.212 44.1831 101.164 44.3127C100.547 45.9717 99.2388 47.2971 97.5928 47.9192H97.5897C97.2361 48.0552 96.8697 48.1558 96.4904 48.2205C96.153 48.282 95.8026 48.3113 95.449 48.3113C92.0867 48.3113 89.3481 45.5537 89.3481 42.1611C89.3481 40.3271 90.1485 38.6777 91.4183 37.55C91.8169 37.1936 92.2635 36.8889 92.7489 36.6492C93.5621 36.241 94.4815 36.0107 95.449 36.0107C95.9087 36.0107 96.3587 36.0625 96.7895 36.1631C96.9695 36.2019 97.1431 36.2507 97.3168 36.3091C97.9532 36.5132 98.5415 36.821 99.0685 37.2131C99.1683 37.2908 99.2678 37.3687 99.3642 37.4497C99.766 37.7866 100.123 38.1787 100.425 38.6099C100.489 38.6973 100.55 38.7913 100.608 38.8853C100.868 39.2969 101.077 39.7439 101.235 40.2139C101.27 40.3145 101.302 40.4214 101.328 40.5249C101.46 40.998 101.537 41.4971 101.547 42.009C101.55 42.0576 101.55 42.1094 101.55 42.1614C101.55 42.2261 101.55 42.2878 101.547 42.3525C101.531 42.8936 101.444 43.4187 101.296 43.9177ZM101.547 42.3525C101.531 42.8936 101.444 43.4187 101.296 43.9177L101.665 43.7751C101.794 43.2793 101.865 42.7642 101.868 42.2295L101.547 42.3525Z" fill="#FF9C3D"/>
<path d="M103.26 41.6978C103.263 41.5845 103.257 41.4709 103.25 41.3577C103.221 40.8489 103.131 40.3564 102.99 39.8865C102.958 39.7827 102.925 39.679 102.89 39.5786C102.723 39.1121 102.504 38.6714 102.241 38.2598C102.183 38.1689 102.122 38.0752 102.057 37.9875C101.752 37.5566 101.392 37.1645 100.99 36.8276C100.897 36.7434 100.8 36.6624 100.701 36.5879C100.19 36.199 99.6175 35.8848 99.0036 35.6611C98.8396 35.6028 98.6725 35.551 98.5023 35.5056C97.9719 35.363 97.4158 35.2854 96.8404 35.2854C95.1303 35.2854 93.8702 35.603 92.62 36.3481C92.6135 36.3513 92.6038 36.3579 92.5975 36.3643C92.1025 36.6624 91.7169 37.0771 91.4178 37.5503C91.8164 37.1938 92.263 36.8892 92.7484 36.6494C92.7581 36.6428 92.7709 36.6333 92.7837 36.6267C93.6324 36.1213 94.4907 35.8198 95.503 35.6902C95.9176 35.635 96.3613 35.6091 96.8401 35.6091C97.2225 35.6091 97.5955 35.6448 97.9588 35.7161C98.1484 35.7485 98.3381 35.7937 98.5214 35.8489C99.1804 36.0369 99.7975 36.3381 100.344 36.7271C100.447 36.7983 100.55 36.8762 100.646 36.957C101.061 37.2876 101.431 37.6733 101.746 38.1042C101.81 38.1919 101.874 38.2825 101.935 38.3765C102.202 38.7849 102.424 39.2288 102.588 39.6953C102.623 39.7957 102.658 39.8994 102.687 40.0032C102.829 40.4731 102.912 40.9656 102.935 41.4775C102.938 41.5684 102.941 41.6624 102.941 41.7561V41.821C102.932 42.3362 102.797 42.8838 102.572 43.4282C102.517 43.5674 102.453 43.7068 102.385 43.8462C101.774 45.084 100.74 46.2732 99.682 47.0249C99.2673 47.3198 98.8493 47.5498 98.4509 47.6892L98.3545 47.7249C97.8917 47.887 97.7919 47.9192 97.5928 47.9192H97.5897C97.2361 48.0552 96.8697 48.1558 96.4904 48.2205C96.6062 48.227 96.7251 48.2302 96.8409 48.2302C97.0949 48.2302 97.2652 48.2368 97.3938 48.24C97.4708 48.2432 97.5352 48.2466 97.5931 48.2466C97.6125 48.2466 97.6316 48.2466 97.651 48.2434H97.6541C97.8663 48.2402 97.9949 48.1916 98.4577 48.0295L98.5541 47.9971C100.142 47.4397 101.994 45.6025 102.823 43.6777C102.881 43.5417 102.935 43.4087 102.98 43.2727C103.161 42.7607 103.263 42.2488 103.263 41.7561C103.263 41.7368 103.263 41.7173 103.26 41.6978Z" fill="#FF9C3D"/>
<path d="M99.0041 35.6611L98.5219 35.8491L97.7793 36.1311L97.3165 36.3093C97.1429 36.251 96.9695 36.2024 96.7893 36.1633L97.3037 35.9658L97.9593 35.7163L98.5025 35.5056C98.6728 35.551 98.8401 35.6028 99.0041 35.6611Z" fill="#FF9C3D"/>
<path d="M100.991 36.8276L100.647 36.9573L99.7047 37.3203L99.364 37.45C99.2676 37.3689 99.1678 37.2913 99.0683 37.2134L99.4187 37.0806L100.344 36.7273L100.701 36.5881C100.801 36.6624 100.897 36.7434 100.991 36.8276Z" fill="#FF9C3D"/>
<path d="M102.241 38.2598L101.936 38.3765L100.913 38.7686L100.608 38.8853C100.55 38.7913 100.489 38.6973 100.425 38.6099L100.737 38.4932L101.746 38.1042L102.058 37.9875C102.122 38.0752 102.183 38.1692 102.241 38.2598Z" fill="#FF9C3D"/>
<path d="M102.99 39.8865L102.688 40.0032L101.63 40.4082L101.328 40.5249C101.302 40.4211 101.27 40.3142 101.235 40.2139L101.533 40.0972L102.588 39.6956L102.89 39.5789C102.926 39.6792 102.958 39.783 102.99 39.8865Z" fill="#FF9C3D"/>
<path d="M103.26 41.6978L102.942 41.821L101.868 42.2292L101.547 42.3523C101.55 42.2874 101.55 42.2258 101.55 42.1611C101.55 42.1094 101.55 42.0576 101.547 42.0088L101.865 41.8889L102.935 41.4773L103.25 41.3574C103.257 41.4712 103.263 41.5845 103.26 41.6978Z" fill="#FF9C3D"/>
<path d="M102.98 43.2727C102.935 43.4087 102.881 43.5418 102.823 43.6777L102.386 43.8462L101.556 44.1638L101.164 44.313C101.212 44.1833 101.257 44.0505 101.296 43.9177L101.665 43.7751L102.572 43.4285L102.98 43.2727Z" fill="#FF9C3D"/>
<path d="M95.1455 42.4453C94.8682 42.3499 94.6164 42.2532 94.3894 42.1548C94.1625 42.0564 93.9673 41.9373 93.8036 41.7976C93.6396 41.658 93.5122 41.4912 93.4209 41.2974C93.3296 41.1038 93.2838 40.8672 93.2838 40.5876C93.2838 40.1558 93.4161 39.7922 93.6808 39.4968C93.9455 39.2014 94.3233 39 94.815 38.8918V38.1201C94.8716 38.1074 94.9598 38.0918 95.0794 38.0728C95.1991 38.0537 95.3219 38.0442 95.448 38.0442C95.6939 38.0442 95.8859 38.0872 96.0244 38.1726C96.163 38.2585 96.2322 38.4412 96.2322 38.7205V38.8442C96.6226 38.8953 96.9363 38.9966 97.1724 39.1492C97.4088 39.3015 97.5267 39.511 97.5267 39.7778C97.5267 39.9431 97.4889 40.0842 97.4134 40.2017C97.3378 40.3191 97.2465 40.4194 97.1392 40.5017C97.0007 40.4128 96.8147 40.3347 96.5817 40.2683C96.3485 40.2017 96.0932 40.1682 95.8162 40.1682C95.5326 40.1682 95.3248 40.208 95.1923 40.2871C95.0601 40.3667 94.9939 40.4666 94.9939 40.5872C94.9939 40.6826 95.0349 40.7603 95.1167 40.8206C95.1986 40.8811 95.3214 40.9365 95.4853 40.9873L95.9862 41.1494C96.5783 41.3398 97.0336 41.5828 97.3516 41.8779C97.6696 42.1733 97.829 42.575 97.829 43.0833C97.829 43.5151 97.6934 43.8818 97.4226 44.1836C97.1516 44.4851 96.7546 44.6899 96.2318 44.7981V45.5601C96.1751 45.5728 96.0867 45.5886 95.967 45.6077C95.8474 45.6267 95.7246 45.6362 95.5987 45.6362C95.3529 45.6362 95.1606 45.5933 95.0223 45.5076C94.8837 45.4219 94.8145 45.2393 94.8145 44.96V44.8645C94.5875 44.8391 94.3812 44.7981 94.1954 44.7407C94.0094 44.6836 93.8489 44.6106 93.7135 44.5217C93.5779 44.4329 93.4725 44.3281 93.397 44.2073C93.3214 44.0869 93.2836 43.9502 93.2836 43.7976C93.2836 43.6135 93.3371 43.4565 93.4444 43.3262C93.5515 43.196 93.668 43.0959 93.7939 43.0261C93.9702 43.1658 94.1862 43.2864 94.4413 43.3879C94.6965 43.4897 94.9753 43.5405 95.2778 43.5405C95.5863 43.5405 95.8036 43.4929 95.9297 43.3975C96.0557 43.3022 96.1187 43.1912 96.1187 43.0642C96.1187 42.9373 96.0683 42.8403 95.9673 42.7737C95.8663 42.707 95.7249 42.6421 95.542 42.5784L95.1455 42.4453Z" fill="#FF9C3D"/>
<path d="M113.221 25.5933C113.203 26.2087 113.104 26.8057 112.936 27.373L113.357 27.2109C113.503 26.6472 113.583 26.0615 113.587 25.4534L113.221 25.5933ZM113.583 25.0664C113.561 24.4841 113.47 23.9204 113.316 23.3826C113.283 23.261 113.247 23.1431 113.207 23.0288C113.031 22.4946 112.794 21.9897 112.501 21.5181C112.439 21.4114 112.37 21.3081 112.3 21.2048C111.964 20.7112 111.569 20.2651 111.127 19.8709C111.021 19.7751 110.915 19.6831 110.802 19.5981C110.242 19.1487 109.614 18.7839 108.937 18.5186C108.762 18.4485 108.579 18.386 108.396 18.3306C107.749 18.1316 107.062 18.021 106.35 18.0173C106.328 18.0137 106.309 18.0137 106.287 18.0137C105.121 18.0137 104.021 18.29 103.045 18.7837C100.64 19.9885 98.9845 22.4905 98.9845 25.3755C98.9845 29.4358 102.26 32.7373 106.287 32.7373C107.168 32.7373 108.009 32.5789 108.791 32.2915H108.795C109.65 31.9746 110.429 31.4993 111.101 30.906C112.077 30.0439 112.823 28.9238 113.232 27.6526C113.28 27.5088 113.323 27.3613 113.356 27.2105C113.503 26.6467 113.583 26.061 113.587 25.4529C113.59 25.427 113.59 25.4014 113.59 25.3755C113.59 25.2727 113.587 25.1697 113.583 25.0664ZM112.936 27.373C112.892 27.5242 112.841 27.675 112.786 27.8223C112.085 29.7087 110.597 31.2158 108.725 31.9231H108.722C108.32 32.0779 107.903 32.1921 107.472 32.2659C107.088 32.3359 106.69 32.3689 106.288 32.3689C102.464 32.3689 99.3502 29.2334 99.3502 25.3755C99.3502 23.29 100.26 21.4146 101.704 20.1323C102.157 19.7271 102.665 19.3806 103.217 19.1082C104.142 18.6438 105.187 18.3823 106.288 18.3823C106.81 18.3823 107.322 18.4414 107.812 18.5554C108.016 18.5996 108.214 18.655 108.411 18.7212C109.135 18.9534 109.804 19.3032 110.403 19.7493C110.516 19.8379 110.63 19.926 110.74 20.0183C111.197 20.4014 111.602 20.8474 111.946 21.3374C112.019 21.437 112.088 21.5437 112.154 21.6506C112.45 22.1187 112.688 22.627 112.867 23.1614C112.907 23.2756 112.943 23.3972 112.972 23.5151C113.122 24.053 113.21 24.6206 113.221 25.2026C113.225 25.2578 113.225 25.3169 113.225 25.3757C113.225 25.4495 113.225 25.5198 113.221 25.5933C113.203 26.209 113.104 26.8059 112.936 27.373ZM113.221 25.5933C113.203 26.2087 113.104 26.8057 112.936 27.373L113.357 27.2109C113.503 26.6472 113.583 26.0615 113.587 25.4534L113.221 25.5933Z" fill="#FF9C3D"/>
<path d="M115.169 24.8489C115.173 24.72 115.166 24.5911 115.158 24.4619C115.126 23.8835 115.023 23.3235 114.863 22.7891C114.826 22.6711 114.789 22.5532 114.749 22.439C114.559 21.9084 114.311 21.4072 114.011 20.9392C113.945 20.8359 113.876 20.7292 113.802 20.6296C113.455 20.1396 113.046 19.6938 112.589 19.3105C112.483 19.2148 112.373 19.1226 112.26 19.0378C111.679 18.5957 111.028 18.2383 110.33 17.9841C110.143 17.9177 109.954 17.8589 109.76 17.8074C109.157 17.6453 108.524 17.5566 107.87 17.5566C105.926 17.5566 104.493 17.9177 103.071 18.7651C103.064 18.7688 103.053 18.7761 103.045 18.7837C102.482 19.1226 102.044 19.5942 101.704 20.1321C102.157 19.7268 102.665 19.3804 103.217 19.1079C103.228 19.1006 103.243 19.0894 103.257 19.082C104.222 18.5073 105.198 18.1645 106.349 18.0171C106.821 17.9546 107.325 17.925 107.87 17.925C108.305 17.925 108.729 17.9656 109.142 18.0466C109.358 18.0835 109.573 18.1353 109.781 18.1978C110.531 18.4114 111.232 18.7541 111.854 19.1963C111.971 19.2773 112.088 19.3657 112.197 19.4578C112.669 19.8337 113.089 20.272 113.447 20.7622C113.521 20.8616 113.594 20.9648 113.663 21.0718C113.966 21.5361 114.219 22.0408 114.405 22.5715C114.445 22.6858 114.485 22.8037 114.518 22.9216C114.679 23.4558 114.774 24.0159 114.8 24.5981C114.803 24.7014 114.807 24.8081 114.807 24.915V24.9888C114.796 25.5747 114.642 26.1973 114.387 26.8162C114.324 26.9746 114.251 27.1331 114.174 27.2915C113.48 28.699 112.303 30.0513 111.101 30.906C110.629 31.2415 110.154 31.5029 109.701 31.6614L109.591 31.7019C109.065 31.8862 108.951 31.9229 108.725 31.9229H108.721C108.319 32.0776 107.902 32.1919 107.471 32.2656C107.603 32.2729 107.738 32.2766 107.87 32.2766C108.158 32.2766 108.352 32.2839 108.498 32.2876C108.586 32.2913 108.659 32.2949 108.725 32.2949C108.747 32.2949 108.769 32.2949 108.791 32.2913H108.795C109.036 32.2876 109.182 32.2324 109.708 32.0481L109.818 32.0112C111.623 31.3774 113.729 29.2883 114.672 27.0996C114.738 26.9448 114.8 26.7937 114.851 26.6389C115.056 26.0569 115.173 25.4746 115.173 24.9146C115.173 24.8933 115.173 24.8711 115.169 24.8489Z" fill="#FF9C3D"/>
<path d="M110.33 17.9846L109.782 18.1982L108.937 18.5188L108.411 18.7214C108.214 18.655 108.016 18.5999 107.812 18.5557L108.397 18.3308L109.142 18.0471L109.76 17.8076C109.954 17.8594 110.143 17.9182 110.33 17.9846Z" fill="#FF9C3D"/>
<path d="M112.589 19.311L112.198 19.4583L111.127 19.8708L110.739 20.0183C110.63 19.9263 110.516 19.8379 110.403 19.7493L110.801 19.5981L111.854 19.1965L112.26 19.0381C112.373 19.123 112.483 19.2153 112.589 19.311Z" fill="#FF9C3D"/>
<path d="M114.011 20.9397L113.663 21.0723L112.501 21.5181L112.154 21.6506C112.088 21.5439 112.019 21.437 111.946 21.3374L112.3 21.2048L113.448 20.7627L113.802 20.6299C113.876 20.7295 113.945 20.8364 114.011 20.9397Z" fill="#FF9C3D"/>
<path d="M114.862 22.7893L114.519 22.9219L113.316 23.3823L112.972 23.5149C112.943 23.397 112.907 23.2754 112.867 23.1611L113.207 23.0283L114.406 22.5715L114.749 22.439C114.789 22.5535 114.826 22.6714 114.862 22.7893Z" fill="#FF9C3D"/>
<path d="M115.169 24.8489L114.808 24.989L113.587 25.4534L113.221 25.5933C113.225 25.5195 113.225 25.4497 113.225 25.376C113.225 25.3169 113.225 25.2581 113.221 25.2029L113.583 25.0667L114.8 24.5986L115.158 24.4624C115.166 24.5911 115.173 24.72 115.169 24.8489Z" fill="#FF9C3D"/>
<path d="M114.851 26.6396C114.8 26.7944 114.738 26.9456 114.672 27.1003L114.175 27.292L113.232 27.6531L112.786 27.8225C112.841 27.675 112.892 27.5239 112.936 27.373L113.356 27.2109L114.387 26.8167L114.851 26.6396Z" fill="#FF9C3D"/>
<path d="M106.132 26.019C105.817 25.9109 105.53 25.8008 105.272 25.6887C105.014 25.5767 104.792 25.4414 104.606 25.2825C104.42 25.1238 104.275 24.9341 104.171 24.7139C104.067 24.4937 104.015 24.2246 104.015 23.9067C104.015 23.4155 104.165 23.0022 104.466 22.6665C104.767 22.3306 105.197 22.1016 105.756 21.9788V21.1011C105.82 21.0867 105.92 21.0686 106.057 21.0469C106.193 21.0251 106.332 21.0144 106.476 21.0144C106.755 21.0144 106.973 21.063 107.131 21.1606C107.289 21.2581 107.368 21.4658 107.368 21.7837V21.9243C107.811 21.9822 108.168 22.0977 108.437 22.271C108.705 22.4443 108.84 22.6829 108.84 22.9861C108.84 23.1741 108.797 23.3347 108.711 23.4683C108.625 23.6021 108.521 23.7158 108.399 23.8093C108.241 23.7083 108.03 23.6199 107.765 23.5439C107.5 23.468 107.21 23.4302 106.895 23.4302C106.572 23.4302 106.336 23.4753 106.185 23.5657C106.035 23.656 105.959 23.7698 105.959 23.9067C105.959 24.0149 106.006 24.1035 106.099 24.1721C106.192 24.2407 106.332 24.304 106.518 24.3616L107.088 24.5457C107.761 24.7625 108.279 25.0388 108.641 25.3745C109.002 25.7104 109.183 26.1672 109.183 26.7449C109.183 27.2361 109.029 27.6531 108.721 27.9958C108.413 28.3389 107.962 28.5718 107.368 28.6946V29.561C107.303 29.5757 107.203 29.5938 107.067 29.6152C106.931 29.637 106.791 29.648 106.648 29.648C106.368 29.648 106.15 29.5991 105.992 29.5015C105.834 29.4043 105.756 29.1963 105.756 28.8787V28.7705C105.498 28.7415 105.263 28.6946 105.052 28.6296C104.841 28.5645 104.658 28.4819 104.504 28.3804C104.35 28.2793 104.23 28.1602 104.144 28.0229C104.058 27.8857 104.015 27.7305 104.015 27.5571C104.015 27.3479 104.076 27.1689 104.198 27.021C104.319 26.8733 104.452 26.7595 104.595 26.6799C104.796 26.8389 105.041 26.9761 105.331 27.0916C105.621 27.2073 105.938 27.2649 106.282 27.2649C106.633 27.2649 106.88 27.2107 107.024 27.1025C107.167 26.9941 107.239 26.8679 107.239 26.7234C107.239 26.5789 107.182 26.4688 107.067 26.3928C106.952 26.3169 106.791 26.2432 106.583 26.1709L106.132 26.019Z" fill="#FF9C3D"/>
<path d="M53.0802 90.3381C53.1592 90.1426 53.3043 90.0103 53.4704 89.918C53.637 89.8223 53.8356 89.783 54.0403 89.7922C54.244 89.8086 54.4532 89.8938 54.6007 90.0396C54.7554 90.1768 54.8366 90.3765 54.8361 90.5798C54.6293 90.5313 54.4905 90.4785 54.3554 90.4585C54.2229 90.4387 54.1144 90.4146 53.9916 90.4133C53.7475 90.3882 53.4791 90.395 53.0802 90.3381Z" fill="#AE312F"/>
<path d="M95.0407 54.9978L97.1463 53.7122L97.2584 51.2371L99.1576 52.8557L101.55 52.2266L100.618 54.5127L101.985 56.5991L99.5095 56.3933L97.9617 58.3118L97.3635 55.8984L95.0407 54.9978Z" fill="white"/>
<path d="M104.847 58.0195L105.875 58.1147L106.525 57.3076L106.765 58.3311L107.728 58.7197L106.849 59.2571L106.794 60.3044L106.01 59.613L105.013 59.8716L105.408 58.907L104.847 58.0195Z" fill="white"/>
</g>
<defs>
<clipPath id="clip0_25_238">
<rect width="124" height="125" fill="white"/>
</clipPath>
</defs>
</svg>
