<svg width="128" height="128" viewBox="0 0 128 128" fill="none" xmlns="http://www.w3.org/2000/svg">
<g clip-path="url(#clip0_25_373)">
<path d="M77.6435 18.8582C69.0948 20.7447 61.5677 26.2155 56.308 33.214C53.2435 37.2917 50.8858 41.8798 47.6515 45.824C44.4173 49.7685 40.0005 53.1445 34.9133 53.5168C32.355 53.704 29.796 53.121 27.2323 53.1953C19.3065 53.4253 13.528 59.3175 11.1868 66.5512C8.964 73.4185 9.87 80.918 13.4185 87.1837C17.2308 93.9152 23.5633 99.0555 29.9788 103.181C41.3795 110.513 54.6307 114.69 68.2582 113.104C89.6122 110.619 108.82 98.0933 115.425 77.0553C120.732 60.1533 118.234 39.4067 104.812 26.772C101.876 24.0075 98.6335 21.8692 94.9175 20.3122C93.5673 19.7465 92.1737 19.285 90.7487 18.9487C86.464 17.9377 81.9423 17.9097 77.6435 18.8582Z" fill="#9BEFE6"/>
<path d="M44.3857 60.5743C43.0185 61.753 41.3227 62.6515 39.226 63.1783C38.6075 63.3328 38.0085 63.4535 37.419 63.5358C36.6702 63.642 35.9407 63.6903 35.2305 63.6903C22.5967 63.671 16.466 47.38 14.896 42.433L47.613 32.6643C47.869 33.7273 48.1347 34.9108 48.386 36.1813C49.9077 44.061 50.6422 55.2068 44.3857 60.5743Z" fill="#6CE0C0"/>
<path d="M64.957 85.3295L36.3272 94.2575L33.298 95.2045C33.298 95.2045 32.5057 95.5235 32.3705 95.2045C31.0032 91.929 22.8577 73.9762 35.2305 63.6905C35.7765 63.2315 36.361 62.792 36.989 62.3718C37.6075 61.9515 38.2692 61.5505 38.9747 61.1688C40.912 60.7098 42.714 60.5263 44.3857 60.5745C61.527 60.9995 64.957 85.3295 64.957 85.3295Z" fill="#6CE0C0"/>
<path d="M48.9595 32.2103L48.9647 32.2088L48.9482 32.1528C48.944 32.1355 48.943 32.1175 48.938 32.1003C48.9325 32.0818 48.923 32.0645 48.917 32.0463L46.8367 24.9648L10.9842 35.6758L12.971 42.5283C13.7875 45.3443 22.5007 45.2925 32.4327 42.413C42.238 39.57 49.5595 35.035 48.9595 32.2103Z" fill="#AE312F"/>
<path d="M46.9512 25.2475C47.7677 28.0635 40.378 32.6808 30.4462 35.5603C20.5142 38.44 11.801 38.4915 10.9845 35.6755C10.168 32.8595 17.5577 28.2422 27.4895 25.3628C37.4215 22.4833 46.1347 22.4315 46.9512 25.2475Z" fill="#FF5555"/>
<path d="M67.9632 90.8363L67.9685 90.8348L67.952 90.7788C67.9478 90.7615 67.9467 90.7435 67.9417 90.7263C67.9362 90.7078 67.9268 90.6905 67.9208 90.6723L65.8405 83.5908L29.988 94.3018L31.9747 101.154C32.7912 103.97 41.5045 103.919 51.4365 101.039C61.2417 98.1963 68.5632 93.661 67.9632 90.8363Z" fill="#AE312F"/>
<path d="M49.4505 94.1808C59.382 91.3009 66.7711 86.6835 65.9546 83.8677C65.138 81.0518 56.425 81.1038 46.4936 83.9838C36.5621 86.8637 29.173 91.4811 29.9895 94.2969C30.8061 97.1128 39.519 97.0608 49.4505 94.1808Z" fill="#FF5555"/>
<path d="M30.9547 91.7628C30.9547 91.7628 35.1007 95.04 48.9782 91.3998C62.8557 87.7595 64.3827 82.4485 64.3827 82.4485C64.3827 82.4485 63.3675 77.8173 52.1407 78.9865C40.9137 80.156 30.9547 91.7628 30.9547 91.7628Z" fill="#6CE0C0"/>
<path d="M26.7912 58.061C26.7912 58.061 31.4672 63.1793 38.4792 61.9043C45.4913 60.6293 47.3952 51.1493 47.3952 51.1493C47.3952 51.1493 45.3402 47.5698 38.7562 49.145C32.2887 50.6923 33.1202 56.7673 26.7912 58.061Z" fill="#FF9C3D"/>
<path d="M29.8983 33.6694C37.6194 31.4304 43.4618 28.1781 42.9477 26.4052C42.4336 24.6323 35.7576 25.0101 28.0365 27.2491C20.3154 29.4881 14.473 32.7404 14.9871 34.5133C15.5012 36.2862 22.1772 35.9084 29.8983 33.6694Z" fill="#FF9C3D"/>
<path d="M62.5077 82.7435C60.944 76.3225 57.077 73.7978 57.077 73.7978C56.6 83.8655 45.4725 80.1033 38.955 81.64C32.4375 83.1768 34.546 90.8505 34.546 90.8505C35.06 92.6235 41.7362 92.246 49.4577 90.0073C57.1792 87.7688 63.022 84.5165 62.5077 82.7435Z" fill="#FF9C3D"/>
<path d="M19.2622 47.5855C19.444 47.7825 19.6815 47.9205 19.928 48.0255C20.5855 48.3055 21.55 48.3285 21.8597 47.54C22.077 46.9878 21.8215 46.347 21.353 46.021C20.3397 45.3158 18.115 46.343 19.2622 47.5855Z" fill="white"/>
<path d="M21.0067 50.2553C21.021 50.7233 21.2532 51.3015 21.3905 51.5845C21.8155 52.4623 22.471 53.23 23.2812 53.774C23.887 54.1805 24.2047 53.7263 24.1035 53.1368C24.0212 52.658 23.7777 52.2163 23.5712 51.7823C23.2607 51.1295 22.5495 49.6338 21.7375 49.5543C21.16 49.4978 20.994 49.8315 21.0067 50.2553Z" fill="white"/>
<path d="M93.4816 19.6563C96.8027 16.3353 96.8027 10.9507 93.4816 7.62963C90.1605 4.30854 84.7759 4.30854 81.4549 7.62963C78.1338 10.9507 78.1338 16.3353 81.4549 19.6563C84.7759 22.9774 90.1605 22.9774 93.4816 19.6563Z" fill="white"/>
<path d="M87.469 22.4335C82.6215 22.4335 78.678 18.4898 78.678 13.6425C78.678 8.79525 82.6215 4.8515 87.469 4.8515C92.3168 4.8515 96.26 8.79525 96.26 13.6425C96.26 18.4898 92.3165 22.4335 87.469 22.4335ZM87.469 5.42525C82.938 5.42525 79.2517 9.1115 79.2517 13.6425C79.2517 18.1735 82.938 21.8598 87.469 21.8598C92 21.8598 95.6865 18.1735 95.6865 13.6425C95.6865 9.1115 92 5.42525 87.469 5.42525Z" fill="#6CE0C0"/>
<path d="M87.469 13.9295C87.4198 13.9295 87.371 13.917 87.3268 13.8917C87.245 13.845 87.1913 13.7607 87.1833 13.6665L86.6892 7.7115C86.6757 7.5535 86.7935 7.41475 86.9515 7.402C87.0955 7.38675 87.2473 7.50575 87.2608 7.664L87.7208 13.203L93.5123 10.4072C93.655 10.3395 93.827 10.3982 93.8955 10.5407C93.9645 10.6832 93.9045 10.8547 93.7623 10.9237L87.5943 13.901C87.554 13.92 87.5115 13.9295 87.469 13.9295Z" fill="#6CE0C0"/>
<path d="M112.48 26.9273C113.01 23.6711 110.8 20.6017 107.544 20.0715C104.288 19.5413 101.218 21.7512 100.688 25.0074C100.158 28.2636 102.368 31.333 105.624 31.8632C108.88 32.3933 111.95 30.1835 112.48 26.9273Z" fill="white"/>
<path d="M106.584 32.2275C103.132 32.2275 100.324 29.419 100.324 25.967C100.324 22.515 103.132 19.7065 106.584 19.7065C110.036 19.7065 112.845 22.515 112.845 25.967C112.845 29.419 110.037 32.2275 106.584 32.2275ZM106.584 20.28C103.449 20.28 100.897 22.831 100.897 25.9667C100.897 29.1025 103.449 31.6535 106.584 31.6535C109.72 31.6535 112.271 29.1025 112.271 25.9667C112.271 22.831 109.72 20.28 106.584 20.28Z" fill="#6CE0C0"/>
<path d="M106.287 30.9305C106.281 30.9305 106.275 30.9302 106.269 30.93C106.11 30.92 105.99 30.7835 106.001 30.6255L106.256 26.6102L103.648 28.7652C103.526 28.8655 103.346 28.8487 103.244 28.727C103.143 28.6047 103.16 28.4242 103.282 28.3232L106.402 25.746C106.49 25.6737 106.612 25.6595 106.715 25.7115C106.817 25.7635 106.878 25.871 106.871 25.9852L106.573 30.662C106.563 30.8137 106.437 30.9305 106.287 30.9305Z" fill="#6CE0C0"/>
<path d="M60.4345 19.1443C65.6419 19.1443 69.8633 14.9229 69.8633 9.7155C69.8633 4.50815 65.6419 0.286751 60.4345 0.286751C55.2271 0.286751 51.0057 4.50815 51.0057 9.7155C51.0057 14.9229 55.2271 19.1443 60.4345 19.1443Z" fill="white"/>
<path d="M60.4347 19.431C55.0772 19.431 50.7188 15.0725 50.7188 9.71525C50.7188 4.358 55.0772 0 60.4347 0C65.7915 0 70.15 4.35825 70.15 9.7155C70.15 15.0728 65.7915 19.431 60.4347 19.431ZM60.4347 0.57375C55.3937 0.57375 51.2925 4.6745 51.2925 9.7155C51.2925 14.7565 55.394 18.8575 60.4347 18.8575C65.4755 18.8575 69.5765 14.7565 69.5765 9.7155C69.5765 4.6745 65.4755 0.57375 60.4347 0.57375Z" fill="#6CE0C0"/>
<path d="M53.7243 13.3147C53.619 13.3147 53.517 13.2562 53.467 13.1547C53.397 13.0127 53.4552 12.8407 53.597 12.7707L60.3073 9.45825C60.3615 9.43175 60.4215 9.42325 60.4815 9.4325L68.7582 10.805C68.9145 10.8307 69.0198 10.9787 68.994 11.135C68.9683 11.2912 68.822 11.3982 68.664 11.3707L60.4785 10.0132L53.851 13.285C53.8105 13.3052 53.767 13.3147 53.7243 13.3147Z" fill="#6CE0C0"/>
<path d="M111.9 73.808C112.132 70.4393 111.793 67.5133 111.089 64.9763C110.771 63.8175 110.378 62.7373 109.926 61.74C109.268 60.2708 108.49 58.9713 107.654 57.825C106.479 56.1985 105.196 54.8825 103.992 53.8438C102.356 52.4298 100.871 51.5193 99.9958 51.0128C100.602 50.1315 101.071 49.2038 101.406 48.2358C101.84 46.986 102.058 45.6758 102.085 44.3168C102.097 43.7358 102.08 43.148 102.016 42.5703L102.014 42.5495C101.905 41.4028 101.674 40.2258 101.332 39.0333C101.236 38.6978 101.131 38.3653 101.016 38.036C100.67 37.0573 100.165 36.1668 99.5145 35.3565C99.4283 35.233 96.5603 31.29 95.6 29.3523C94.6238 27.3878 93.8618 24.7963 92.6338 24.8673C91.784 24.9163 91.0195 25.9153 90.5725 26.5348C89.745 27.6813 89.297 28.949 89.0855 30.3363C87.2623 30.0658 85.4233 29.9035 83.5808 29.8508C81.7768 29.799 79.9848 29.9525 78.1845 29.9525C76.7835 30.0395 75.245 30.0558 73.8775 30.3945L73.789 30.3263C73.414 30.025 72.9268 29.5748 72.869 29.5245C72.118 28.842 71.601 27.8858 70.9248 27.136C69.9418 26.044 68.536 25.3303 67.021 25.813C66.9255 25.8445 66.8423 25.8938 66.7653 25.9678C66.5678 26.1533 66.4228 26.47 66.3273 26.8765C65.9823 28.3343 66.28 30.905 66.994 32.4C67.0075 32.4303 67.0245 32.4633 67.0413 32.493C64.2575 33.924 62.5048 35.849 61.409 37.9793C61.3303 38.1245 61.2615 38.2773 61.19 38.425C60.9085 39.0293 60.675 39.6488 60.484 40.274C60.4745 40.3035 60.4653 40.333 60.4608 40.36C60.3635 40.678 60.2788 40.996 60.2048 41.3175C60.169 41.4685 60.1355 41.612 60.1083 41.7615C59.9545 42.512 59.8488 43.2655 59.777 44.0138C59.7708 44.097 59.7645 44.1803 59.7583 44.2635C59.751 44.3505 59.7448 44.4338 59.7423 44.518C59.7135 44.9148 59.7065 45.306 59.7128 45.6815C59.7143 45.7023 59.7133 45.7183 59.7148 45.739C59.7188 46.211 59.752 46.668 59.7973 47.1125C59.8183 47.314 59.8443 47.513 59.8763 47.7058C60.202 49.9358 60.9783 51.715 61.7255 53.0005C60.0383 53.5785 58.2858 54.426 56.5758 55.6615C55.657 56.3195 54.7505 57.0935 53.8775 57.9958C53.501 58.3765 53.1325 58.7863 52.7725 59.2168C52.2345 59.8623 51.7628 60.4955 51.357 61.1123C50.3845 62.5938 49.776 63.9928 49.4368 65.2923C47.8063 71.5663 52.462 75.5435 52.462 75.5435C46.13 90.9018 55.1893 100.338 55.1893 100.338L75.4933 105.892C74.7318 113.681 78.6263 117.463 78.6263 117.463C78.6263 117.463 70.0138 127.644 74.2145 127.992C78.4153 128.339 84.0833 119.066 85.459 116.884C87.5663 113.542 87.6275 110.635 87.6275 110.635C88.2813 110.473 88.9188 110.308 89.5435 110.13C91.1908 109.67 92.7303 109.157 94.1623 108.602C95.466 108.097 96.6825 107.555 97.8165 106.98C99.2485 106.264 100.548 105.494 101.736 104.683C103.309 103.615 104.678 102.473 105.862 101.281C106.967 100.18 107.915 99.038 108.722 97.8708C109.765 96.3725 110.58 94.8373 111.213 93.2978C111.871 91.7045 112.335 90.107 112.645 88.555C114.239 80.616 111.9 73.808 111.9 73.808Z" fill="#FF9C3D"/>
<path d="M63.6775 110.968C63.185 111.784 62.56 112.632 61.782 113.514C60.5363 114.925 59.154 115.774 57.6722 116.196C52.3955 117.706 45.8773 113.828 39.8683 110.956C39.5 110.778 39.1315 110.604 38.7675 110.439C37.6833 109.942 36.5245 109.566 35.3283 109.342C33.23 108.945 31.0365 109.002 29.017 109.64C27.5023 110.12 25.8758 110.985 24.8578 112.239C24.3405 112.876 23.6618 114.072 22.867 115.248C21.2613 117.631 19.1795 119.916 17.0193 117.214C16.0468 115.997 16.4315 113.513 17.9133 111.039C18.89 109.396 20.351 107.757 22.2133 106.499C23.9018 105.352 25.9215 104.521 28.21 104.276C28.475 104.247 28.7398 104.231 29.0048 104.214C34.5795 103.961 40.4893 107.099 45.8033 109.292H45.8075C48.394 110.356 50.836 111.2 53.0335 111.328H53.0378C53.1413 111.332 53.2405 111.337 53.344 111.341C60.3175 111.523 61.05 102.625 61.05 102.625L64.721 101.801C64.7205 101.801 67.0093 105.547 63.6775 110.968Z" fill="#FF9C3D"/>
<g opacity="0.2">
<path d="M63.6775 110.968C63.185 111.784 62.56 112.632 61.782 113.514C60.5363 114.925 59.154 115.774 57.6722 116.196C52.3955 117.706 45.8773 113.828 39.8683 110.956C39.5 110.778 39.1315 110.604 38.7675 110.439C37.6833 109.942 36.5245 109.566 35.3283 109.342C33.23 108.945 31.0365 109.002 29.017 109.64C27.5023 110.12 25.8758 110.985 24.8578 112.239C24.3405 112.876 23.6618 114.072 22.867 115.248C21.2613 117.631 19.1795 119.916 17.0193 117.214C16.0468 115.997 16.4315 113.513 17.9133 111.039C18.89 109.396 20.351 107.757 22.2133 106.499C23.9018 105.352 25.9215 104.521 28.21 104.276C28.475 104.247 28.7398 104.231 29.0048 104.214C34.5795 103.961 40.4893 107.099 45.8033 109.292H45.8075C48.394 110.356 50.836 111.2 53.0335 111.328H53.0378C53.1413 111.332 53.2405 111.337 53.344 111.341C60.3175 111.523 61.05 102.625 61.05 102.625L64.721 101.801C64.7205 101.801 67.0093 105.547 63.6775 110.968Z" fill="#AE312F"/>
</g>
<path d="M22.867 115.248C21.2613 117.632 19.1795 119.916 17.0193 117.214C16.0468 115.997 16.4315 113.514 17.9133 111.039C19.101 111.287 21.009 112.247 21.34 115.831C21.34 115.831 21.9773 115.368 22.867 115.248Z" fill="#AE312F"/>
<path d="M29.0045 104.214C28.8473 105.319 28.2388 107.803 25.9625 107.993C24.034 108.15 22.8213 107.182 22.213 106.499C23.9015 105.352 25.9213 104.521 28.2098 104.276C28.4748 104.248 28.7398 104.231 29.0045 104.214Z" fill="#AE312F"/>
<path d="M39.8683 110.956C39.5 110.778 39.1315 110.604 38.7675 110.439C37.6833 109.942 36.5245 109.566 35.3283 109.342C35.9078 108.817 36.756 108.39 37.9025 108.634C39.2973 108.928 39.744 110.05 39.8683 110.956Z" fill="#AE312F"/>
<path d="M53.033 111.329C52.586 112.169 51.5473 113.348 49.362 112.976C46.974 112.57 46.105 110.439 45.807 109.293C48.3938 110.356 50.8355 111.2 53.033 111.329Z" fill="#AE312F"/>
<path d="M63.6775 110.968C63.185 111.784 62.56 112.632 61.782 113.514C60.5363 114.925 59.154 115.774 57.6722 116.196C57.8545 115.298 58.4627 113.1 60.2175 111.688C61.2647 110.844 62.5768 110.79 63.6775 110.968Z" fill="#AE312F"/>
<path d="M58.7995 95.556C55.77 101.801 47.2528 99.8145 47.2528 99.8145C47.2528 99.8145 46.6858 103.316 43.1845 103.978C42.1788 104.168 41.2352 103.875 40.3247 103.233C38.8927 102.227 37.5395 100.369 36.1365 98.1798C35.3213 96.9093 34.4935 95.527 33.6242 94.1363C31.973 91.4918 29.8995 89.2278 28.2235 87.4773C27.8758 87.1173 27.5448 86.7778 27.2385 86.4593C26.6468 85.8468 26.146 85.3213 25.794 84.8948C25.434 84.4685 25.2228 84.1375 25.2023 83.914C25.107 82.78 26.5265 79.3698 30.69 81.9275C34.8535 84.481 36.844 89.5923 36.844 89.5923C34.8533 66.499 49.9013 68.1088 49.9013 68.1088C56.908 71.9908 61.8287 89.3108 58.7995 95.556Z" fill="#FF9C3D"/>
<g opacity="0.2">
<path d="M58.7995 95.556C55.77 101.801 47.2528 99.8145 47.2528 99.8145C47.2528 99.8145 46.6858 103.316 43.1845 103.978C42.1788 104.168 41.2352 103.875 40.3247 103.233C38.8927 102.227 37.5395 100.369 36.1365 98.1798C35.3213 96.9093 34.4935 95.527 33.6242 94.1363C31.973 91.4918 29.8995 89.2278 28.2235 87.4773C27.8758 87.1173 27.5448 86.7778 27.2385 86.4593C26.6468 85.8468 26.146 85.3213 25.794 84.8948C25.434 84.4685 25.2228 84.1375 25.2023 83.914C25.107 82.78 26.5265 79.3698 30.69 81.9275C34.8535 84.481 36.844 89.5923 36.844 89.5923C34.8533 66.499 49.9013 68.1088 49.9013 68.1088C56.908 71.9908 61.8287 89.3108 58.7995 95.556Z" fill="#AE312F"/>
</g>
<g opacity="0.2">
<path d="M41.1733 102.111C41.078 102.678 40.7513 103.03 40.3248 103.233C38.8928 102.227 37.5395 100.369 36.1365 98.1795C35.3213 96.909 34.4935 95.5268 33.6243 94.136C31.973 91.4915 29.8995 89.2275 28.2235 87.477C27.8758 87.117 27.5448 86.7775 27.2385 86.459C26.6468 85.8465 26.146 85.321 25.794 84.8945C25.434 84.4683 25.2228 84.1373 25.2023 83.9138C25.2023 83.9138 26.423 82.4445 28.9478 83.3425C29.854 83.6653 30.508 84.642 31.0295 85.3953C32.391 87.3653 33.376 89.5505 34.6468 91.57C35.8385 93.4573 37.192 95.245 38.6985 96.8923C39.9978 98.308 41.5333 100.026 41.1733 102.111Z" fill="#AE312F"/>
</g>
<path d="M29.036 84.6448C28.8173 84.7255 28.6415 84.946 28.6638 85.1783C28.6763 85.3088 28.7463 85.4267 28.8275 85.5297C28.9853 85.7295 29.192 85.8903 29.4245 85.9938C29.577 86.0618 29.77 86.1 29.9 85.9952C30.021 85.8977 30.034 85.7215 30.037 85.5663C30.0483 85.01 29.6603 84.4143 29.036 84.6448Z" fill="#FFC792"/>
<path d="M27.938 86.095C27.8677 86.182 27.7725 86.2398 27.6733 86.2938C27.5368 86.3683 27.3918 86.4303 27.2388 86.4593C26.647 85.8468 26.1463 85.3213 25.7943 84.8948C26.0013 84.6505 26.3985 84.51 26.6632 84.5348C26.9902 84.5678 27.284 84.7418 27.5405 84.9445C27.7185 85.0853 27.8922 85.2425 27.9832 85.4495C28.0787 85.6565 28.0827 85.917 27.938 86.095Z" fill="#FFC792"/>
<path d="M36.2938 98.0845C36.2443 98.1218 36.1945 98.1548 36.1365 98.1798C35.3213 96.9093 34.4935 95.527 33.6243 94.1363C31.973 91.4918 29.8995 89.2278 28.2235 87.4773C28.509 87.3863 28.8153 87.382 29.1258 87.4318C29.6885 87.527 30.2555 87.8043 30.6735 88.0855C31.4598 88.6153 32.1758 89.3725 32.7055 90.1508C33.9843 92.0213 34.9528 94.0618 36.153 95.978C36.5588 96.6155 37.047 97.4928 36.2938 98.0845Z" fill="#FFC792"/>
<path d="M85.7225 81.1283C85.7225 81.1283 81.1258 87.2298 83.9565 91.7573C83.9565 91.7573 75.3573 96.22 75.4938 106.384C75.4938 106.384 68.892 107.765 63.516 103.412C63.2388 103.192 62.233 103.569 61.906 103.594C61.0658 103.664 60.1843 103.453 59.394 103.188C54.8168 101.673 52.2218 96.645 51.601 92.1298C50.885 86.9483 52.859 81.6963 56.6005 78.1538C56.9648 78.3153 57.3495 78.4725 57.751 78.6255C57.751 78.6255 61.8068 84.229 66.231 80.6905C66.231 80.6905 70.2123 80.885 70.8043 77.9135C70.8043 77.9135 73.1715 76.9285 72.319 74.1268C71.9218 72.819 70.7918 71.176 68.9418 69.835C69.9433 67.832 72.265 64.521 76.7058 64.3928C83.0875 64.2065 87.08 75.508 85.7225 81.1283Z" fill="#FFC792"/>
<path d="M91.0535 30.7363C89.9542 30.438 89.1388 30.3505 89.096 30.343C89.3095 27.5848 91.5198 24.6715 92.634 24.8668L92.6373 24.8665C92.8718 25.471 93.1472 26.1953 92.8835 27.8605C92.8565 28.0243 92.8415 28.1833 92.8325 28.3383C92.688 30.6355 92.0997 31.022 91.0535 30.7363Z" fill="#AE312F"/>
<path d="M68.095 31.9855C67.6815 32.1348 67.2932 32.2808 66.9942 32.3993C66.28 30.9043 65.9825 28.3335 66.3275 26.8758C66.4227 26.4693 66.568 26.1525 66.7655 25.967C66.7655 25.967 67.3597 26.176 67.9257 27.4913C68.1315 27.9713 68.3155 28.4318 68.5235 28.8538C69.0167 29.8513 69.442 31.4923 68.095 31.9855Z" fill="#AE312F"/>
<g opacity="0.48">
<path d="M86.1143 44.0795C85.4493 44.741 85.438 46.0498 86.3025 46.6768C87.46 47.516 89.511 47.278 90.399 46.1235C91.1488 45.149 90.517 43.4498 89.601 43.1763C88.8268 42.9453 88.0325 43.0635 87.3133 43.3582C86.979 43.4955 86.487 43.7087 86.1143 44.0795Z" fill="#EA4949"/>
</g>
<g opacity="0.48">
<path d="M68.7688 44.0593C69.442 44.7178 69.4693 46.0395 68.6125 46.6855C67.4653 47.5505 65.4113 47.34 64.509 46.1873C63.7473 45.214 64.3583 43.4883 65.271 43.1985C66.0425 42.9535 66.8382 43.0615 67.5612 43.3488C67.897 43.482 68.3915 43.6903 68.7688 44.0593Z" fill="#EA4949"/>
</g>
<path d="M82.8392 29.841C82.6137 30.2563 82.4077 30.6613 82.2122 31.0333C81.8272 31.7588 81.4827 32.5095 81.1642 33.2683C80.9225 33.8365 80.462 34.4165 79.8155 34.5353C79.003 34.6908 78.242 34.2008 77.7965 33.5478C77.2387 32.7373 77.1712 31.7378 77.2685 30.7828C77.2942 30.523 77.3365 30.2505 77.389 29.9955C77.389 29.9955 80.5607 29.8255 82.8392 29.841Z" fill="#AE312F"/>
<path d="M62.3675 44.98C61.497 45.1653 60.5708 44.9155 59.741 44.5188C59.7463 44.4348 59.7515 44.3508 59.7595 44.2633C59.765 44.1823 59.7705 44.0983 59.7788 44.014C59.8493 43.2645 59.9545 42.5108 60.1083 41.7603C61.874 43.2068 63.9988 44.6298 62.3675 44.98Z" fill="#AE312F"/>
<path d="M62.1518 47.2705C61.5903 47.6405 60.7108 47.731 59.8743 47.7067C59.846 47.5117 59.8205 47.313 59.798 47.1107C59.7508 46.668 59.721 46.2105 59.7148 45.7368C59.7155 45.7175 59.7135 45.7018 59.7143 45.6823C61.4503 46.0753 63.1418 46.618 62.1518 47.2705Z" fill="#AE312F"/>
<path d="M61.97 41.031C61.48 40.985 60.9553 40.7158 60.4613 40.3625C60.467 40.333 60.476 40.303 60.485 40.273C60.6773 39.649 60.9087 39.0295 61.1905 38.426C62.2437 39.7683 63.1055 41.1385 61.97 41.031Z" fill="#AE312F"/>
<path d="M87.614 30.1403C86.976 30.9843 86.352 31.8488 85.839 31.9818C84.5632 32.3185 83.9488 31.1895 84.557 29.8898C85.3768 29.9275 86.1665 29.984 86.9245 30.0628C87.0273 30.0713 87.1253 30.082 87.2233 30.093C87.3568 30.107 87.4852 30.1235 87.614 30.1403Z" fill="#AE312F"/>
<path d="M76.8567 30.0238C76.4977 30.5913 76.1245 31.1018 75.7558 31.24C74.7595 31.6168 73.9205 30.929 74.147 30.3315C74.147 30.3315 75.163 30.0878 76.8567 30.0238Z" fill="#AE312F"/>
<g opacity="0.48">
<path d="M61.7883 53.119C62.0533 53.502 62.3175 53.8845 62.599 54.2523C62.737 54.4378 62.8798 54.6193 63.029 54.7933C63.1778 54.9643 63.3393 55.1353 63.5108 55.248L63.561 55.281L63.563 55.3473C63.5693 55.5413 63.586 55.7448 63.63 55.931C63.668 56.1128 63.7635 56.3058 63.8585 56.3145C63.9033 56.32 63.919 56.3188 63.9605 56.2503C63.9953 56.1848 64.0173 56.093 64.0318 56.001C64.06 55.8145 64.0588 55.61 64.0495 55.4178L64.0215 54.837L64.3123 55.337C64.4193 55.521 64.5415 55.7055 64.672 55.8763C64.803 56.046 64.9448 56.2115 65.1033 56.3308C65.181 56.3913 65.2675 56.4353 65.3365 56.4378C65.415 56.4403 65.4733 56.422 65.4913 56.3685C65.5445 56.2375 65.479 55.9948 65.4013 55.814L65.2805 55.5325L65.5388 55.6825C65.8558 55.8665 66.1925 56.0265 66.5303 56.177C66.8695 56.327 67.2198 56.4508 67.585 56.5323C67.2105 56.5065 66.844 56.4068 66.486 56.2925C66.128 56.1735 65.7838 56.0248 65.4423 55.857L65.5798 55.7255C65.6348 55.8345 65.6768 55.9408 65.7093 56.0588C65.737 56.176 65.7645 56.305 65.7138 56.4573C65.6863 56.5313 65.6238 56.6078 65.5483 56.6415C65.5108 56.6618 65.4733 56.6748 65.4378 56.679C65.4015 56.6878 65.3648 56.692 65.3263 56.6875C65.171 56.6815 65.052 56.6125 64.952 56.543C64.7488 56.4008 64.596 56.2248 64.4545 56.044C64.313 55.862 64.1863 55.6763 64.0675 55.4765L64.3303 55.3958C64.345 55.614 64.3403 55.8238 64.3068 56.0448C64.287 56.155 64.2635 56.267 64.201 56.384C64.1815 56.4135 64.163 56.443 64.14 56.4713C64.1098 56.4983 64.0833 56.528 64.0453 56.548C63.9668 56.5913 63.875 56.5993 63.7985 56.5803C63.6383 56.544 63.5418 56.4163 63.488 56.3118C63.4328 56.2025 63.4048 56.0938 63.381 55.9858C63.3393 55.769 63.3238 55.5598 63.331 55.3423L63.383 55.4415C63.1745 55.2843 63.0278 55.0995 62.882 54.9128C62.7395 54.7245 62.606 54.532 62.4783 54.336C62.2308 53.9393 61.9955 53.5365 61.7883 53.119Z" fill="#AE312F"/>
</g>
<path d="M90.941 42.0995C89.5355 43.1613 87.2743 43.5988 85.5963 43.035C85.2378 42.9143 84.9017 42.7428 84.5965 42.5125C83.275 41.5058 82.4687 39.6668 82.3857 38.0205C82.381 37.9828 82.3793 37.9445 82.3775 37.9063C82.3245 36.2433 83.206 34.6943 84.6175 33.8305C86.27 32.8205 88.7818 32.386 90.4143 33.6448C91.0583 34.1423 91.5817 34.8508 91.9482 35.6595L91.9515 35.659C92.9357 37.8115 92.8225 40.6755 90.941 42.0995Z" fill="white"/>
<path d="M90.941 42.0995C90.146 42.699 89.1878 43.05 88.2113 43.224C87.7208 43.3078 87.22 43.338 86.7208 43.3053C86.222 43.275 85.7218 43.182 85.2503 42.9915C84.7773 42.8028 84.353 42.496 83.995 42.138C83.6333 41.7805 83.3245 41.371 83.0665 40.9333C82.5525 40.055 82.235 39.0615 82.1482 38.0325L82.15 38.0508C82.053 36.8193 82.4508 35.6088 83.2258 34.6743C83.61 34.2108 84.0768 33.8068 84.6028 33.517C85.1205 33.2223 85.6723 32.9955 86.2448 32.841C87.382 32.5423 88.6468 32.5193 89.7505 33.0265C90.3025 33.274 90.7733 33.671 91.1478 34.1198C91.5278 34.5698 91.824 35.0793 92.0512 35.6128L91.934 35.5473L91.937 35.547L92.0228 35.5383L92.0543 35.612C92.2875 36.1598 92.4468 36.7358 92.5318 37.3205C92.6145 37.9053 92.6275 38.4993 92.5577 39.083C92.4865 39.6668 92.3205 40.2383 92.0565 40.762C91.7913 41.2843 91.411 41.7498 90.941 42.0995ZM90.941 42.0995C91.4073 41.7448 91.7815 41.2763 92.0398 40.7535C92.3023 40.231 92.4418 39.6543 92.496 39.0765C92.6048 37.9158 92.3463 36.7395 91.8485 35.7063L91.9655 35.7713L91.9625 35.7718L91.883 35.784L91.845 35.7063C91.5993 35.2033 91.29 34.7318 90.912 34.3288C90.5348 33.9233 90.0923 33.5908 89.5893 33.3965C88.5808 33.0035 87.433 33.0545 86.3878 33.361C85.336 33.6673 84.341 34.204 83.6533 35.0288C83.4813 35.2348 83.3295 35.457 83.1943 35.6888C83.0678 35.9248 82.9493 36.1665 82.8615 36.4205C82.775 36.674 82.7025 36.9345 82.6665 37.2013C82.6407 37.3338 82.6373 37.4685 82.6228 37.6025C82.6223 37.7313 82.6123 37.883 82.621 37.9903L82.6225 38.0085C82.653 38.9595 82.9022 39.9193 83.3477 40.7773C83.5712 41.2058 83.8448 41.6098 84.1708 41.9675C84.496 42.327 84.8765 42.6338 85.3178 42.8373C86.2033 43.245 87.2298 43.3168 88.2038 43.1798C89.182 43.0433 90.1388 42.6848 90.941 42.0995Z" fill="#AE312F"/>
<path d="M87.5088 41.9005C88.836 41.924 90.2277 41.24 90.8715 40.0493C91.8972 38.152 91.0175 35.5065 89.046 34.6558C87.9872 34.199 86.6267 34.2455 85.6207 34.8215C82.932 36.3608 83.7118 40.6625 86.441 41.7023C86.7773 41.8305 87.1395 41.894 87.5088 41.9005Z" fill="#AE312F"/>
<g opacity="0.21">
<path d="M91.9482 35.6593C85.8637 33.677 82.7575 37.521 82.3857 38.0205C82.381 37.9828 82.3793 37.9445 82.3775 37.9063C82.3245 36.2433 83.206 34.6943 84.6175 33.8305C86.27 32.8205 88.7818 32.386 90.4143 33.6448C91.058 34.1423 91.5815 34.8505 91.9482 35.6593Z" fill="#AE312F"/>
</g>
<path d="M71.6385 40.0063C71.0805 41.4273 69.4802 42.1453 68.0547 42.277C67.858 42.2925 67.6625 42.292 67.4707 42.2718C65.1517 42.0338 63.4362 39.1545 63.9977 36.9095C64.0512 36.6783 64.1348 36.453 64.2415 36.2373C65.1858 34.3533 68.0878 33.3145 69.9853 34.3145C70.443 34.5603 70.7752 35.0018 71.0275 35.4438C71.2007 35.7453 71.357 36.0875 71.487 36.4523C71.903 37.5943 72.0542 38.9498 71.6385 40.0063Z" fill="white"/>
<path d="M71.6385 40.0065C71.4412 40.508 71.104 40.9493 70.684 41.2875C70.2655 41.6275 69.7825 41.889 69.2702 42.0643C69.0145 42.1535 68.753 42.2288 68.4863 42.2813C68.2208 42.336 67.9477 42.377 67.6702 42.3743C67.1172 42.3578 66.564 42.2138 66.0748 41.943C65.089 41.4055 64.3572 40.4745 63.946 39.431C63.7467 38.9048 63.6228 38.3423 63.6188 37.767L63.6437 37.3355C63.6612 37.1928 63.6918 37.0513 63.7158 36.9093C63.7695 36.626 63.8715 36.3428 64.004 36.084C64.5572 35.038 65.553 34.3385 66.6155 33.987C67.6783 33.6418 68.8865 33.6168 69.9037 34.1223C70.435 34.3618 70.7935 34.842 71.0547 35.3123C71.3215 35.7908 71.5067 36.3048 71.6517 36.825C71.7957 37.3463 71.8817 37.8833 71.892 38.4223C71.9042 38.9595 71.8377 39.5053 71.6385 40.0065ZM71.6385 40.0065C72.0172 38.9883 71.8985 37.8578 71.5755 36.8478C71.41 36.3393 71.186 35.8495 70.9007 35.404C70.6157 34.9633 70.2603 34.5548 69.7828 34.3803C68.829 33.9788 67.7283 34.0833 66.7793 34.4478C65.8288 34.8113 64.9583 35.4658 64.508 36.3415C64.3933 36.5598 64.3067 36.7865 64.2575 37.031C64.236 37.1535 64.2073 37.2753 64.19 37.3988L64.1633 37.7725C64.1555 38.2743 64.2393 38.783 64.4035 39.2673C64.7233 40.2333 65.336 41.147 66.217 41.7005C66.6533 41.9805 67.156 42.1473 67.6762 42.1983C67.9367 42.218 68.201 42.196 68.465 42.1593C68.7285 42.1238 68.991 42.0713 69.2455 41.99C69.7552 41.8353 70.2475 41.602 70.6702 41.2715C71.0925 40.9398 71.4345 40.5055 71.6385 40.0065Z" fill="#AE312F"/>
<path d="M66.5437 40.4835C66.6437 40.5508 67.6122 41.5145 69.4447 40.7358C71.2772 39.9573 70.8165 37.5403 70.4462 36.7725C70.076 36.0048 68.912 34.463 66.812 35.276C64.712 36.089 64.825 39.3248 66.5437 40.4835Z" fill="#AE312F"/>
<g opacity="0.21">
<path d="M71.487 36.452C68.7845 35.2475 65.6098 36.2348 63.9975 36.9095C64.051 36.6783 64.1345 36.453 64.2412 36.2373C65.1855 34.3533 68.0875 33.3145 69.985 34.3145C70.4428 34.5603 70.775 35.0018 71.0273 35.4438C71.201 35.7453 71.357 36.0873 71.487 36.452Z" fill="#AE312F"/>
</g>
<path d="M101.016 38.0355C96.0038 41.7168 93.8575 38.3288 95.973 37.4803C97.3902 36.9108 98.649 35.9543 99.4768 35.3098C100.15 36.1338 100.664 37.042 101.016 38.0355Z" fill="#AE312F"/>
<path d="M102.046 42.882C100.173 43.869 97.808 44.5655 95.8372 43.9688C95.0937 43.7435 94.4082 43.1233 94.5735 42.3873C94.6415 42.0933 94.8442 41.8238 95.1025 41.6143C95.8655 40.9908 96.987 40.7635 97.961 40.536C99.0685 40.2753 100.344 39.6278 101.333 39.0363C101.333 39.0363 101.925 40.6878 102.046 42.882Z" fill="#AE312F"/>
<path d="M102.084 44.3183C102.059 45.6773 101.84 46.9873 101.407 48.2353C100.092 48.6253 98.6103 48.4948 97.3675 47.9523C96.814 47.7093 96.2963 47.2723 96.3463 46.612C96.4105 45.7385 97.5375 45.504 98.23 45.4313C100.109 45.235 101.406 44.6808 102.084 44.3183Z" fill="#AE312F"/>
<path d="M60.4345 47.221C61.2293 46.814 62.0535 46.488 62.8848 46.1815C63.719 45.8832 64.5605 45.605 65.4315 45.4082C64.637 45.8157 63.8128 46.1418 62.9813 46.4478C62.1468 46.7455 61.3053 47.0235 60.4345 47.221Z" fill="#AE312F"/>
<path d="M59.7418 45.1223C60.5805 44.921 61.4285 44.8048 62.2788 44.7098C63.1298 44.6233 63.983 44.558 64.8458 44.5788C64.007 44.7808 63.159 44.8968 62.3088 44.9913C61.4575 45.0773 60.6043 45.1425 59.7418 45.1223Z" fill="#AE312F"/>
<path d="M60.0728 42.3983C60.9145 42.5863 61.7273 42.855 62.5325 43.1433C63.335 43.4395 64.13 43.7565 64.8955 44.1543C64.0533 43.967 63.2408 43.6983 62.4355 43.4093C61.6335 43.1125 60.8383 42.7958 60.0728 42.3983Z" fill="#AE312F"/>
<path d="M91.7147 29.9208C91.7147 29.9208 91.0977 29.9583 90.9157 29.8373C90.7305 29.7168 91.6705 29.5738 91.6705 29.5738C91.1747 29.4323 90.7192 28.9298 90.879 28.8998C91.0412 28.8663 91.6425 29.2058 91.6425 29.2058C90.9645 28.4433 91.2095 27.1298 91.854 27.1305C92.1297 27.1305 92.5002 27.695 92.8325 28.3383C92.688 30.6358 94.246 32.1123 94.5187 32.2888C93.399 31.506 92.0997 31.022 91.0535 30.7365C91.153 30.262 91.7147 29.9208 91.7147 29.9208Z" fill="white"/>
<path d="M68.095 31.9855C68.118 31.4665 68.561 30.695 68.6005 30.629C68.5615 30.65 68.1502 30.892 67.9337 30.8043C67.7072 30.7115 68.3955 30.3315 68.3955 30.3315C68.3955 30.3315 67.843 30.4473 67.7775 30.2858C67.7092 30.1278 68.2825 30.0993 68.2825 30.0993C67.851 29.9078 66.986 28.913 67.4475 28.562C67.7485 28.3343 68.2245 28.6228 68.5233 28.8535C69.0165 29.8513 69.6515 30.6288 71.0948 30.934C71.0948 30.934 69.442 31.4923 68.095 31.9855Z" fill="white"/>
<path d="M76.734 38.9183C76.734 38.9183 75.8513 37.9355 75.4345 38.1455C75.0178 38.3555 76.3463 39.8437 76.8313 39.9642C77.3165 40.0847 78.2828 38.3802 78.0088 38.0762C77.735 37.7722 76.734 38.9183 76.734 38.9183Z" fill="#AE312F"/>
<path d="M78.6255 45.5965C78.4393 45.1258 78.2728 44.6483 78.0983 44.1735L77.6105 42.7368C77.4477 42.2578 77.3018 41.7735 77.1533 41.2892C77.0123 40.8017 76.8697 40.3187 76.7625 39.8117L77.0395 39.8148C76.8378 40.7703 76.6598 41.7342 76.4885 42.6975C76.4045 43.1795 76.3255 43.6628 76.2615 44.1478C76.1888 44.632 76.1355 45.1185 76.0945 45.6082C76.072 45.117 76.0983 44.6247 76.1253 44.1335C76.1605 43.6425 76.2173 43.154 76.2753 42.6655C76.396 41.6888 76.5665 40.7212 76.763 39.7557L76.9003 39.081L77.04 39.759C77.1395 40.2415 77.2778 40.7305 77.4118 41.215L77.82 42.6727L78.2315 44.1315C78.3608 44.6203 78.501 45.1058 78.6255 45.5965Z" fill="#AE312F"/>
<g opacity="0.48">
<path d="M74.7193 40.2217C73.9303 40.4467 73.189 40.9792 72.7698 41.772C72.162 42.921 72.1052 44.3278 73.0055 45.2988C73.5642 45.9013 74.3235 46.2065 75.0795 46.377C76.5285 46.7035 77.991 46.9255 79.4348 46.4458C79.9585 46.2718 80.4708 46.0162 80.884 45.611C81.5173 44.99 81.8747 44.0227 81.821 43.0752C81.7675 42.128 81.304 41.2228 80.6062 40.7023C79.7477 40.062 78.5052 39.9067 77.4977 39.9687C76.6005 40.0237 75.5868 39.9742 74.7193 40.2217Z" fill="#AE312F"/>
</g>
<path d="M90.7657 46.137C91.6582 46.1083 92.5427 46.1648 93.4252 46.2425C94.307 46.3285 95.1868 46.4363 96.0585 46.63C95.166 46.6595 94.2815 46.6028 93.399 46.5245C92.5173 46.4378 91.6375 46.3303 90.7657 46.137Z" fill="#AE312F"/>
<path d="M96.199 44.4245C95.3695 44.6617 94.5275 44.814 93.6823 44.9455C92.8358 45.0685 91.986 45.1705 91.1233 45.1865C91.9528 44.9485 92.7948 44.7965 93.6403 44.6655C94.4865 44.543 95.3362 44.4412 96.199 44.4245Z" fill="#AE312F"/>
<path d="M95.1913 41.8723C94.5505 42.45 93.8613 42.9573 93.16 43.447C92.4538 43.9298 91.7353 44.3948 90.9678 44.7888C91.608 44.2105 92.2975 43.7033 92.999 43.214C93.7055 42.7318 94.424 42.2668 95.1913 41.8723Z" fill="#AE312F"/>
<g opacity="0.48">
<path d="M90.6137 57.6118C90.9855 57.3785 91.3598 57.151 91.7245 56.9095C92.0905 56.6708 92.457 56.432 92.799 56.1675L93.019 55.9975L92.959 56.277C92.9337 56.3945 92.9173 56.5233 92.9185 56.6415C92.917 56.7578 92.949 56.8808 92.9922 56.9073C93.007 56.9208 93.0498 56.9273 93.079 56.92C93.0985 56.9168 93.1367 56.8908 93.17 56.8503C93.2382 56.769 93.2955 56.657 93.3445 56.5438C93.4407 56.3135 93.5177 56.067 93.5795 55.8175C93.6397 55.5703 93.6942 55.309 93.715 55.0695L93.7558 54.5965L93.9812 55.0125C94.0732 55.1825 94.1857 55.3553 94.311 55.499C94.4352 55.6425 94.5945 55.762 94.6933 55.7148C94.8125 55.678 94.9172 55.4958 94.977 55.3165C95.0387 55.1335 95.0802 54.9318 95.1052 54.7378L95.1162 54.6528L95.1937 54.6378C95.649 54.5495 96.107 54.3988 96.538 54.2058C96.7568 54.114 96.969 54.0058 97.1742 53.8853C97.3812 53.7665 97.5743 53.626 97.7663 53.4815C97.4288 53.824 97.0255 54.1025 96.5993 54.3325C96.167 54.5555 95.7168 54.7325 95.2363 54.8538L95.3248 54.7538C95.3118 54.9728 95.279 55.1825 95.213 55.3945C95.1795 55.5 95.1382 55.6055 95.0752 55.708C95.0132 55.808 94.9222 55.9143 94.7822 55.9673C94.715 55.9925 94.6353 56.002 94.5595 55.988C94.486 55.974 94.424 55.945 94.3698 55.9128C94.262 55.8465 94.18 55.7658 94.1042 55.683C93.9555 55.5145 93.8385 55.338 93.7305 55.1443L93.9967 55.087C93.972 55.3708 93.9123 55.624 93.8473 55.8858C93.7788 56.1445 93.7022 56.402 93.587 56.6525C93.5275 56.7773 93.4638 56.902 93.36 57.02C93.3073 57.0765 93.2395 57.1408 93.129 57.1645C93.0302 57.182 92.932 57.1673 92.8418 57.0995C92.6788 56.9483 92.6923 56.775 92.6913 56.6375C92.6983 56.4933 92.723 56.3613 92.7602 56.224L92.9202 56.3333C92.5532 56.5833 92.1758 56.809 91.79 57.02C91.402 57.226 91.0135 57.4303 90.6137 57.6118Z" fill="#AE312F"/>
</g>
<path d="M83.6407 43.067C83.6407 43.067 85.2395 44.8762 87.2797 44.641Z" fill="#AE312F"/>
<path d="M68.587 43.2193C68.587 43.2193 70.6525 43.3728 71.6137 41.685Z" fill="#AE312F"/>
<g opacity="0.48">
<path d="M93.3183 74.0605C91.7408 75.1523 90.2622 76.3825 88.8917 77.7152C87.5357 79.0592 86.2735 80.51 85.2725 82.1253C84.268 83.7305 83.5823 85.5405 83.3363 87.4037C83.205 88.3277 83.202 89.2765 83.4477 90.1565C83.671 91.0248 84.2173 91.859 84.935 92.2777L85.018 92.326L85.0558 92.3955C85.2418 92.739 85.486 93.085 85.745 93.395C86.0075 93.7067 86.2985 93.992 86.6175 94.2343C86.9403 94.4703 87.2917 94.6562 87.6612 94.7767C88.0332 94.8947 88.422 94.9108 88.8065 94.8805L88.875 94.875L88.9477 94.8997C89.4835 95.082 90.1493 95.0997 90.7415 94.9682C91.3483 94.851 91.9178 94.5647 92.4278 94.1992C93.5155 93.4835 94.0745 92.3392 94.526 91.0967C94.9808 89.8675 95.4083 88.5815 96.0805 87.4023C96.7413 86.2218 97.6482 85.1548 98.7625 84.3755C99.8702 83.5798 101.137 83.0842 102.348 82.572C103.569 82.0582 104.794 81.5555 105.988 80.9942C107.176 80.4307 108.365 79.8283 109.334 78.94C110.314 78.0628 110.952 76.8435 111.206 75.542C111.1 76.1952 110.919 76.842 110.625 77.443C110.33 78.0425 109.922 78.5857 109.445 79.0557C108.483 79.9975 107.297 80.6563 106.116 81.258C104.923 81.8493 103.707 82.379 102.497 82.9183C101.284 83.4613 100.071 83.968 99.0348 84.7473C97.9955 85.519 97.141 86.514 96.5198 87.6495C95.8848 88.7817 95.4777 90.0275 95.0242 91.283C94.7977 91.909 94.5418 92.5425 94.1793 93.136C94.0095 93.44 93.7748 93.7075 93.5428 93.9758C93.2928 94.2135 93.0403 94.4485 92.7573 94.652C91.6498 95.4843 90.1483 95.902 88.7338 95.4175L88.8748 95.4368C88.4125 95.474 87.94 95.4468 87.4978 95.3033C87.059 95.158 86.654 94.9372 86.2923 94.668C85.9353 94.3932 85.6185 94.077 85.3357 93.7365C85.0535 93.3915 84.805 93.039 84.5885 92.633L84.709 92.7507C83.761 92.1895 83.2232 91.2607 82.9617 90.2905C82.6977 89.3155 82.7133 88.3032 82.8568 87.3357C83.15 85.3965 83.902 83.553 84.9635 81.9287C86.0225 80.3025 87.3207 78.8543 88.741 77.555C90.1667 76.2628 91.685 75.0713 93.3183 74.0605Z" fill="#AE312F"/>
</g>
<path d="M88.8388 95.1605C88.6563 94.7597 88.606 94.3112 88.6228 93.8735C88.6383 93.433 88.7328 92.9955 88.887 92.5817C89.0568 92.175 89.2568 91.7767 89.5423 91.4415C89.8105 91.096 90.1425 90.8043 90.513 90.5768C90.3153 90.9693 90.0995 91.3193 89.9175 91.6855C89.7255 92.0445 89.5687 92.4142 89.423 92.7855C89.273 93.1562 89.1663 93.5412 89.0648 93.933C88.9698 94.3277 88.8925 94.7292 88.8388 95.1605Z" fill="#AE312F"/>
<path d="M84.8215 92.5148C84.6418 92.22 84.5515 91.89 84.5015 91.56C84.449 91.2285 84.4493 90.8915 84.4833 90.5585C84.5635 89.8968 84.7885 89.237 85.24 88.723C85.2352 89.0683 85.19 89.3815 85.1582 89.6958L85.053 90.6225C84.9773 91.2395 84.926 91.8463 84.8215 92.5148Z" fill="#AE312F"/>
<path d="M57.54 71.027C57.5855 71.6932 57.2048 72.3265 56.7205 72.7857C56.2405 73.2492 55.6528 73.5888 55.123 73.9983C54.3575 74.5983 53.9518 75.5295 53.4883 76.3863C51.6508 74.9873 50.3388 73.2532 49.7428 71.7345C50.0365 71.5647 50.3428 71.4075 50.645 71.2585C52.5735 70.315 54.7878 69.5327 56.8323 70.1907C57.0185 70.2527 57.2048 70.3273 57.3373 70.4723C57.4698 70.6215 57.5278 70.8282 57.54 71.027Z" fill="#AE312F"/>
<path d="M67.1085 68.7383C59.7875 70.344 57.2875 76.0968 56.6213 78.1618C56.613 78.1575 56.6087 78.1575 56.6005 78.1535C56.166 77.963 55.7562 77.7602 55.3672 77.5535C54.672 77.1852 54.047 76.792 53.4883 76.3865C55.2348 71.0187 59.2697 68.399 62.1377 67.3893C63.0442 67.468 63.8883 67.621 64.6748 67.832C65.5605 68.0678 66.3717 68.3743 67.1085 68.7383Z" fill="#FF5555"/>
<g opacity="0.48">
<path d="M49.7098 64.3928C49.2243 65.8465 49.054 67.395 49.193 68.9055C49.346 70.414 49.8375 71.8835 50.6453 73.1538C51.4538 74.4263 52.5625 75.4895 53.8058 76.3383C54.4303 76.763 55.0803 77.1458 55.7643 77.4745C56.1075 77.6368 56.4458 77.8095 56.7928 77.9633L57.8408 78.3883L57.91 78.4163L57.9565 78.4768C58.4348 79.0985 59.019 79.6765 59.6405 80.1705C60.267 80.6638 60.956 81.0753 61.695 81.335C62.4375 81.5815 63.2265 81.636 63.9775 81.4808C64.7445 81.3568 65.412 80.91 66.0548 80.4703L66.149 80.406L66.2448 80.409C66.692 80.4225 67.1738 80.3775 67.627 80.293C68.083 80.2048 68.5313 80.0748 68.9393 79.8725C69.3453 79.6683 69.707 79.395 69.9913 79.057C70.2788 78.7173 70.4363 78.295 70.5493 77.863L70.584 77.7303L70.704 77.6743C71.3628 77.3665 71.939 76.754 72.1428 76.0413C72.3748 75.322 72.212 74.5188 71.946 73.7883C71.354 72.3135 70.2373 71.0568 68.9605 70.0735C68.3175 69.5748 67.6033 69.1893 66.8885 68.7988C66.1585 68.4418 65.3953 68.147 64.6085 67.925C63.0365 67.4755 61.3853 67.3108 59.741 67.344C61.3818 67.2168 63.0508 67.3263 64.663 67.7195C65.4673 67.9173 66.2618 68.1765 67.0173 68.5285C67.755 68.9085 68.5028 69.291 69.1748 69.7878C70.5143 70.7743 71.7055 72.0348 72.385 73.612C72.695 74.3995 72.8868 75.3093 72.622 76.183C72.3663 77.0555 71.7283 77.7608 70.9033 78.1535L71.058 77.9648C70.9345 78.471 70.7453 78.978 70.4035 79.3903C70.0668 79.7995 69.6405 80.122 69.1805 80.3573C68.7185 80.5905 68.2263 80.7363 67.7313 80.836C67.2313 80.9313 66.7408 80.984 66.2168 80.9725L66.4065 80.911C65.7138 81.4035 64.9698 81.8968 64.091 82.0338C63.235 82.2055 62.335 82.1313 61.5183 81.8513C60.7055 81.559 59.9713 81.1093 59.3125 80.5828C58.6545 80.049 58.064 79.4595 57.5453 78.7745L57.6608 78.863L56.5825 78.4158C56.2308 78.2568 55.8875 78.078 55.5395 77.9103C54.8428 77.5748 54.1813 77.1548 53.5488 76.705C52.286 75.7993 51.1628 74.6715 50.356 73.3335C49.542 72.0008 49.0845 70.4665 48.995 68.9218C48.912 67.3775 49.142 65.8193 49.7098 64.3928Z" fill="#AE312F"/>
</g>
<path d="M66.2312 80.6888C65.923 79.8648 65.601 79.1155 65.1553 78.4363C64.9433 78.0915 64.694 77.7723 64.419 77.4688C64.1507 77.1538 63.8345 76.8868 63.5163 76.5713C63.9443 76.6743 64.3662 76.8573 64.7197 77.137C65.0872 77.401 65.3923 77.7473 65.638 78.1268C65.878 78.5103 66.066 78.926 66.1677 79.3628C66.2715 79.7965 66.3122 80.2495 66.2312 80.6888Z" fill="#AE312F"/>
<path d="M70.8033 77.9118C70.3733 77.0723 70.009 76.254 69.5212 75.525C69.2817 75.1618 69.0202 74.8153 68.7057 74.523C68.3872 74.234 68.025 74.0005 67.585 73.8083C68.0585 73.7608 68.5582 73.9025 68.9772 74.1673C69.403 74.4298 69.7265 74.8128 70.0003 75.2103C70.265 75.6168 70.4642 76.0558 70.598 76.5115C70.733 76.9655 70.8198 77.4348 70.8033 77.9118Z" fill="#AE312F"/>
<g opacity="0.48">
<path d="M66.2312 84.1905C66.6102 84.1185 67.0012 84.181 67.3637 84.3018C67.7297 84.4213 68.0697 84.6153 68.3745 84.851C68.969 85.3388 69.4228 86.0035 69.5658 86.7523C69.2818 86.493 69.045 86.2285 68.79 85.986C68.542 85.7385 68.282 85.5145 68.0175 85.2995C67.754 85.082 67.47 84.8935 67.1777 84.7068C66.8807 84.525 66.5742 84.354 66.2312 84.1905Z" fill="#AE312F"/>
</g>
<g opacity="0.48">
<path d="M66.5583 86.0598C66.7688 85.781 66.9605 85.4598 67.2418 85.218C67.5108 84.9638 67.834 84.7663 68.1768 84.6183C68.866 84.332 69.654 84.2793 70.3453 84.532C69.9903 84.6465 69.656 84.7153 69.3333 84.8168C69.01 84.9095 68.6995 85.018 68.3985 85.147C68.0932 85.267 67.8013 85.4175 67.5048 85.5783C67.2035 85.7295 66.93 85.955 66.5583 86.0598Z" fill="#AE312F"/>
</g>
<path d="M74.8235 127.761C74.852 127.524 74.7785 127.261 74.8205 127.002C74.8418 126.741 74.9182 126.481 75.0332 126.235C75.1547 125.992 75.33 125.769 75.5475 125.601C75.758 125.426 76.0265 125.325 76.2947 125.302C76.142 125.535 75.991 125.71 75.8733 125.908C75.7563 126.103 75.6385 126.286 75.5465 126.49C75.443 126.688 75.356 126.898 75.2517 127.116C75.2022 127.225 75.147 127.336 75.0875 127.451C75.017 127.552 74.9705 127.708 74.8235 127.761Z" fill="#AE312F"/>
<path d="M26.743 82.883C26.7723 82.3073 27.2045 81.8163 27.7223 81.5703C28.2508 81.3345 28.8693 81.3265 29.3598 81.6058C29.0905 81.7063 28.8473 81.7625 28.6163 81.8398C28.3848 81.9103 28.171 81.996 27.9638 82.09C27.753 82.1788 27.5603 82.2998 27.3585 82.4263C27.1593 82.5588 26.9623 82.7053 26.743 82.883Z" fill="#AE312F"/>
<path d="M56.0958 64.252C55.8228 65.0382 54.8088 65.2163 53.9768 65.2245C52.4745 65.237 50.9348 65.1127 49.4368 65.2907C49.776 63.9912 50.3845 62.5925 51.357 61.1107C52.8553 61.1895 54.3535 61.5205 55.4378 62.5177C55.9218 62.965 56.315 63.6355 56.0958 64.252Z" fill="#AE312F"/>
<path d="M58.4505 58.2595C58.078 58.756 57.362 58.8512 56.7495 58.752C55.9218 58.6195 55.1645 58.214 54.345 58.0525C54.1878 58.0195 54.0348 58.0027 53.8773 57.9945C54.7505 57.0922 55.657 56.3182 56.5755 55.6602C56.708 55.685 56.8363 55.7182 56.9645 55.7555C57.515 55.9127 58.053 56.1942 58.384 56.6577C58.7195 57.1255 58.79 57.8 58.4505 58.2595Z" fill="#AE312F"/>
<path d="M107.654 57.825C106.616 58.214 105.564 58.5822 104.517 58.9465C103.611 59.2652 102.68 59.5837 101.724 59.5672C101.186 59.5547 100.606 59.41 100.279 58.9878C100.064 58.7105 99.9853 58.3462 99.9978 57.9987C100.035 56.8522 100.946 55.9335 101.864 55.2467C102.46 54.7997 103.214 54.1998 103.992 53.8438C105.196 54.8822 106.479 56.1985 107.654 57.825Z" fill="#AE312F"/>
<path d="M111.089 64.9762C110.708 64.968 110.352 64.9555 110.071 64.9845C108.809 65.1005 107.571 65.7335 106.33 65.4812C106.152 65.444 105.966 65.386 105.837 65.2577C105.622 65.0425 105.61 64.6865 105.734 64.4092C105.858 64.1362 106.09 63.925 106.326 63.7305C107.162 63.0477 108.54 62.1702 109.926 61.7397C110.377 62.7375 110.77 63.8175 111.089 64.9762Z" fill="#AE312F"/>
<path d="M110.013 78.311C109.289 79.2423 108.271 79.9705 106.942 80.674C106.74 80.198 106.607 79.685 106.301 79.267C105.962 78.8035 105.444 78.5095 104.948 78.2283C104.447 77.9468 103.934 77.6488 103.603 77.1813C103.272 76.7135 103.176 76.0265 103.545 75.5838C103.872 75.1865 104.443 75.1078 104.956 75.1285C106.243 75.1823 107.518 75.7575 108.557 76.6308C109.127 77.1108 109.628 77.6818 110.013 78.311Z" fill="#AE312F"/>
<path d="M93.2933 80.9678C91.969 81.1623 90.6695 80.6118 89.3698 80.2808C88.484 80.0573 87.5735 79.933 86.663 79.9208C87.7473 78.617 88.9393 77.4748 90.011 76.5603C90.5863 76.7175 91.149 76.912 91.6955 77.148C92.4198 77.4583 93.4627 77.806 94.1497 78.3978C94.402 78.6213 94.609 78.8738 94.7333 79.1758C95.135 80.165 94.1543 80.8395 93.2933 80.9678Z" fill="#AE312F"/>
<path d="M112.645 88.554C112.335 90.106 111.871 91.7035 111.213 93.2968C110.423 93.0278 109.653 92.6883 108.887 92.3533C107.418 91.7075 105.945 91.0538 104.633 90.1308C104.248 89.8575 103.851 89.514 103.793 89.0465C103.739 88.6243 103.987 88.2145 104.314 87.9373C105.125 87.2503 106.296 87.246 107.356 87.3538C109.161 87.5358 110.94 87.9415 112.645 88.554Z" fill="#AE312F"/>
<path d="M108.722 97.8698C107.915 99.037 106.967 100.179 105.862 101.28C105.407 100.701 104.952 100.117 104.496 99.5375C103.842 98.7058 102.009 96.5743 102.82 95.4775C103.06 95.1548 103.391 95.0265 103.764 95.0223C104.778 95.0058 106.11 95.9163 106.727 96.3383C107.418 96.8145 108.08 97.3318 108.722 97.8698Z" fill="#AE312F"/>
<path d="M101.736 104.682C100.548 105.493 99.2487 106.263 97.8167 106.979C97.1752 105.038 96.658 102.075 97.6677 100.353C98.574 98.8175 100.18 100.916 100.598 101.768C101.057 102.704 101.438 103.681 101.736 104.682Z" fill="#AE312F"/>
<path d="M94.1625 108.601C92.7305 109.156 91.191 109.669 89.5437 110.128C89.1837 108.792 89.4403 107.215 89.7343 105.886C89.937 104.98 90.7275 103.523 91.907 104.156C92.2462 104.338 92.5278 104.715 92.772 105.17C93.2685 106.093 93.6037 107.351 93.8977 108.034C93.972 108.208 94.0672 108.398 94.1625 108.601Z" fill="#AE312F"/>
<g opacity="0.48">
<path d="M66.7025 89.2765C66.3147 89.3095 65.9295 89.3562 65.5598 89.4427C65.3765 89.4895 65.1965 89.5472 65.04 89.628C64.883 89.6972 64.7507 89.8295 64.7545 89.9115C64.7402 89.942 64.7705 89.9275 64.8053 89.968C64.8655 89.9952 64.9373 90.0212 65.021 90.041C65.19 90.076 65.3735 90.0932 65.5587 90.101C65.9297 90.111 66.3148 90.1027 66.6858 90.0735L68.422 89.9367L66.7877 90.5787C66.413 90.726 66.0325 90.886 65.6685 91.0577C65.31 91.2287 64.9385 91.4307 64.6905 91.6532C64.633 91.7047 64.597 91.7665 64.595 91.7705C64.5947 91.7805 64.599 91.7407 64.5885 91.7467C64.5977 91.7497 64.5895 91.7627 64.606 91.7672C64.639 91.81 64.8267 91.849 65.0042 91.8355C65.371 91.8225 65.7767 91.7285 66.1482 91.6135L67.311 91.2538L66.389 92.0312C66.1642 92.2207 65.9333 92.4612 65.7365 92.709C65.5378 92.9597 65.3503 93.223 65.1933 93.5057C65.037 93.7877 64.8855 94.0777 64.7777 94.387C64.6595 94.6932 64.586 95.0145 64.5115 95.3407C64.504 94.674 64.6442 93.9943 64.9115 93.3658C65.046 93.0518 65.2065 92.746 65.4025 92.463C65.5995 92.1765 65.8042 91.9113 66.0735 91.6568L66.314 92.0745C65.8998 92.2227 65.4947 92.3427 65.0315 92.384C64.8032 92.386 64.5385 92.414 64.242 92.1913C64.1675 92.139 64.1175 92.0532 64.0725 91.968C64.0363 91.8805 64.0192 91.7267 64.046 91.6415C64.102 91.4437 64.2027 91.3412 64.2915 91.2477C64.657 90.9055 65.0453 90.7392 65.4315 90.5515C65.8198 90.3715 66.2102 90.2207 66.617 90.0875L66.7193 90.5925C66.3165 90.604 65.9245 90.5995 65.5227 90.552C65.3222 90.5275 65.1202 90.494 64.9135 90.4332C64.81 90.4002 64.7015 90.3565 64.5937 90.2847C64.5392 90.229 64.4785 90.1952 64.442 90.1087C64.4232 90.0667 64.4082 90.0222 64.3972 89.9795C64.3977 89.9377 64.403 89.8947 64.41 89.853C64.4948 89.544 64.7387 89.44 64.9277 89.365C65.1295 89.2975 65.3295 89.2673 65.5275 89.2473C65.9235 89.2153 66.3155 89.223 66.7025 89.2765Z" fill="#AE312F"/>
</g>
<path d="M63.5843 70.372C63.5843 71.322 62.1133 72.092 60.2985 72.092C58.4838 72.092 57.0127 71.322 57.0127 70.372C57.0127 70.2883 56.9953 69.692 57.0175 69.6115C57.2458 68.7783 58.6438 68.652 60.2985 68.652C61.959 68.652 63.3487 68.7073 63.57 69.5445C63.5902 69.6223 63.5843 70.2915 63.5843 70.372Z" fill="#AE312F"/>
<path d="M63.5843 69.7018C63.5843 70.6518 62.1133 71.4218 60.2985 71.4218C58.4838 71.4218 57.0127 70.6518 57.0127 69.7018C57.0127 68.7518 58.4838 67.9815 60.2985 67.9815C62.113 67.9818 63.5843 68.7518 63.5843 69.7018Z" fill="white"/>
<path d="M59.7928 70.8578C59.7815 70.8578 59.7703 70.8553 59.7598 70.8495C59.7245 70.8313 59.711 70.788 59.729 70.7528L60.3795 69.5045L58.3168 68.8945C58.2788 68.8833 58.2568 68.8435 58.268 68.8055C58.2798 68.7678 58.3195 68.7455 58.357 68.7573L60.5033 69.392C60.524 69.398 60.5408 69.413 60.5493 69.4325C60.5578 69.452 60.5565 69.4745 60.547 69.4935L59.8568 70.8188C59.8438 70.8438 59.8185 70.8578 59.7928 70.8578Z" fill="#AE312F"/>
<path d="M76.6227 58.2258C76.7712 58.2368 79.1375 58.2643 79.1375 58.2643L79.4508 61.4048L79.045 62.296H76.6227L75.3548 60.4793L76.6227 58.2258Z" fill="#FF5555"/>
<path d="M67.3158 56.501C67.3158 56.501 75.0352 58.2375 77.5242 58.2783L75.7757 61.74C75.7757 61.74 69.0245 58.0485 67.3158 56.501Z" fill="white"/>
<path d="M77.5242 58.2783L79.719 62.296C79.719 62.296 88.441 58.787 91.2347 57.2238C91.2347 57.2238 86.6087 58.3438 77.5242 58.2783Z" fill="white"/>
<path d="M76.4713 61.8695L74.1533 72.493L78.391 78.025L82.1405 72.2408L79.052 61.8695H76.4713Z" fill="#FF5555"/>
</g>
<defs>
<clipPath id="clip0_25_373">
<rect width="128" height="128" fill="white"/>
</clipPath>
</defs>
</svg>
